<svg version="1.1" xmlns="http://www.w3.org/2000/svg" xmlns:xlink="http://www.w3.org/1999/xlink" stroke-linecap="round" stroke-linejoin="round" stroke-width="0" fill-rule="evenodd" clip-rule="evenodd" id="XYKVCTIlLFFP8jWfcOxo_top" viewBox="393.701 393.701 3937.008 984.252" width="3.9370079999999996in" height="0.9842519999999999in" class="w-100 h-100"><defs><style>.XYKVCTIlLFFP8jWfcOxo_fr4 {color: #666666;}
.XYKVCTIlLFFP8jWfcOxo_cu {color: #cccccc;}
.XYKVCTIlLFFP8jWfcOxo_cf {color: #cc9933;}
.XYKVCTIlLFFP8jWfcOxo_sm {color: #004200; opacity: 0.75;}
.XYKVCTIlLFFP8jWfcOxo_ss {color: #ffffff;}
.XYKVCTIlLFFP8jWfcOxo_sp {color: #999999;}
.XYKVCTIlLFFP8jWfcOxo_out {color: #000000;}</style><rect x="-22.335" y="-21.8685" width="44.67" height="43.737" rx="21.8685" ry="21.8685" id="T0dBhPi_M7lULa4Yf4fD_pad-17"/><circle cx="0" cy="0" r="7.792" id="T0dBhPi_M7lULa4Yf4fD_pad-19"/><circle cx="0" cy="0" r="16.3885" id="T0dBhPi_M7lULa4Yf4fD_pad-20"/><circle cx="0" cy="0" r="6.2555" id="T0dBhPi_M7lULa4Yf4fD_pad-21"/><circle cx="0" cy="0" r="6.2555" id="T0dBhPi_M7lULa4Yf4fD_pad-22"/><circle cx="0" cy="0" r="6.219" id="T0dBhPi_M7lULa4Yf4fD_pad-23"/><circle cx="0" cy="0" r="6.219" id="T0dBhPi_M7lULa4Yf4fD_pad-24"/><circle cx="0" cy="0" r="6.987" id="T0dBhPi_M7lULa4Yf4fD_pad-25"/><rect x="-7.792" y="-7.022" width="15.584" height="14.044" rx="7.022" ry="7.022" id="T0dBhPi_M7lULa4Yf4fD_pad-26"/><rect x="-13.2425" y="-16.3815" width="26.485" height="32.763" rx="13.2425" ry="13.2425" id="T0dBhPi_M7lULa4Yf4fD_pad-27"/><rect x="-3.9145" y="-3.1235" width="7.829" height="6.247" rx="3.1235" ry="3.1235" id="T0dBhPi_M7lULa4Yf4fD_pad-28"/><circle cx="0" cy="0" r="7.0235" id="T0dBhPi_M7lULa4Yf4fD_pad-29"/><rect x="-7.8285" y="-7.022" width="15.657" height="14.044" rx="7.022" ry="7.022" id="T0dBhPi_M7lULa4Yf4fD_pad-30"/><rect x="-6.219" y="-7.022" width="12.438" height="14.044" rx="6.219" ry="6.219" id="T0dBhPi_M7lULa4Yf4fD_pad-31"/><rect x="-6.219" y="-5.4605" width="12.438" height="10.921" rx="5.4605" ry="5.4605" id="T0dBhPi_M7lULa4Yf4fD_pad-32"/><rect x="-66.5355" y="-28.937" width="133.071" height="57.874" id="T7RlA3lLL671uEm-V4Gm_pad-49"/><circle cx="0" cy="0" r="43.937" id="T7RlA3lLL671uEm-V4Gm_pad-47"/><rect x="-39.37" y="-35.433" width="78.74" height="70.866" id="T7RlA3lLL671uEm-V4Gm_pad-45"/><circle cx="0" cy="0" r="59.055" id="T7RlA3lLL671uEm-V4Gm_pad-38"/><circle cx="0" cy="0" r="20" id="sKhkGDAMIhlVLaMdwbql_pad-36"/><rect x="-62.5985" y="-25" width="125.197" height="50" id="sKhkGDAMIhlVLaMdwbql_pad-18"/><circle cx="0" cy="0" r="40" id="sKhkGDAMIhlVLaMdwbql_pad-33"/><rect x="-35.433" y="-31.496" width="70.866" height="62.992" id="sKhkGDAMIhlVLaMdwbql_pad-34"/><circle cx="0" cy="0" r="9.55" id="ZF7oz1qLcF3-_PGjh277_pad-1"/><circle cx="0" cy="0" r="17.5" id="ZF7oz1qLcF3-_PGjh277_pad-2"/><circle cx="0" cy="0" r="59.05" id="ZF7oz1qLcF3-_PGjh277_pad-3"/><g id="XYKVCTIlLFFP8jWfcOxo_top_silkscreen"><use xlink:href="#T0dBhPi_M7lULa4Yf4fD_pad-17" x="1435.911" y="1213.958"/><path d="M 1289.556 680.238 1289.556 790.524 M 1289.556 585.94 1289.556 593.673 M 1289.556 585.94 1387.61 585.94 1387.61 692.131 M 1387.61 778.696 1387.61 892.816 M 1289.556 880.274 1289.556 990.559 M 1387.61 978.666 1387.61 1092.852 M 1289.556 1080.374 1289.556 1185.85 M 1387.61 1178.832 1387.61 1185.85 1289.556 1185.85" fill="none" stroke-width="9.843"/><use xlink:href="#T0dBhPi_M7lULa4Yf4fD_pad-19" x="3102.644" y="615.215"/><path d="M 2935.72 644.854 3020.079 788.62 3085.707 644.854 2935.72 644.854"/><path d="M 3099.535 782.13 3158.798 782.13 3166.626 780.579 3177.528 775.905 3185.356 771.231 3193.112 764.984 3197.794 758.737 3202.477 749.389 3204.013 741.569 3205.623 730.671 3204.013 721.3 3199.331 710.379 3193.112 704.133 3185.356 697.908 3175.991 693.212 3168.163 690.11 3216.524 644.854 3099.535 644.854 3099.535 782.13"/><path d="M 3197.794 782.13 3341.342 782.13 3321.075 743.142 3292.98 738.468 3283.615 646.427 3257.057 646.427 3247.692 738.468 3219.67 743.142 3197.794 782.13"/><path d="M 3355.389 724.424 3375.656 724.424 3395.922 644.854 3336.659 644.854 3355.389 724.424"/><path d="M 3512.912 671.37 3444.284 708.829 3512.912 744.693 3503.547 755.614 3494.182 761.861 3481.744 768.108 3469.233 771.231 3455.185 771.231 3442.747 768.108 3430.236 763.411 3419.335 755.614 3409.97 744.693 3403.751 733.772 3400.605 721.3 3399.068 708.829 3400.605 694.785 3403.751 682.291 3411.506 669.819 3420.871 660.471 3431.773 652.651 3444.284 647.977 3455.185 644.854 3469.233 644.854 3481.744 647.977 3495.791 654.224 3512.912 671.37"/><path d="M 3514.448 646.427 3578.467 791.5 3667.361 644.854 3514.448 646.427"/><use xlink:href="#T0dBhPi_M7lULa4Yf4fD_pad-20" x="3365.486" y="767.321"/><path d="M 3018.396 615.215 3030.907 615.215 3030.907 577.778 3018.396 577.778 3018.396 615.215"/><use xlink:href="#T0dBhPi_M7lULa4Yf4fD_pad-21" x="3024.651" y="616.776"/><use xlink:href="#T0dBhPi_M7lULa4Yf4fD_pad-22" x="3024.651" y="577.778"/><path d="M 3035.589 615.215 3048.027 615.215 3048.027 577.778 3035.589 577.778 3035.589 615.215"/><use xlink:href="#T0dBhPi_M7lULa4Yf4fD_pad-23" x="3041.808" y="616.776"/><use xlink:href="#T0dBhPi_M7lULa4Yf4fD_pad-24" x="3041.808" y="577.778"/><path d="M 3076.122 615.215 3088.633 615.215 3088.633 577.778 3076.122 577.778 3076.122 615.215"/><use xlink:href="#T0dBhPi_M7lULa4Yf4fD_pad-21" x="3082.378" y="616.776"/><use xlink:href="#T0dBhPi_M7lULa4Yf4fD_pad-22" x="3082.378" y="577.778"/><path d="M 3168.163 613.664 3180.674 613.664 3180.674 576.227 3168.163 576.227 3168.163 613.664"/><use xlink:href="#T0dBhPi_M7lULa4Yf4fD_pad-21" x="3174.418" y="615.226"/><use xlink:href="#T0dBhPi_M7lULa4Yf4fD_pad-21" x="3174.418" y="576.216"/><use xlink:href="#T0dBhPi_M7lULa4Yf4fD_pad-25" x="3139.299" y="597.272"/><use xlink:href="#T0dBhPi_M7lULa4Yf4fD_pad-26" x="3138.495" y="580.126"/><use xlink:href="#T0dBhPi_M7lULa4Yf4fD_pad-19" x="3548.799" y="615.215"/><path d="M 3155.652 623.012 3193.112 623.012 3193.112 610.541 3155.652 610.541 3155.652 623.012"/><use xlink:href="#T0dBhPi_M7lULa4Yf4fD_pad-21" x="3157.225" y="616.776"/><use xlink:href="#T0dBhPi_M7lULa4Yf4fD_pad-23" x="3191.575" y="616.776"/><path d="M 3205.623 615.215 3218.061 615.215 3218.061 577.778 3205.623 577.778 3205.623 615.215"/><use xlink:href="#T0dBhPi_M7lULa4Yf4fD_pad-23" x="3211.842" y="616.776"/><use xlink:href="#T0dBhPi_M7lULa4Yf4fD_pad-24" x="3211.842" y="577.778"/><path d="M 3260.203 615.215 3272.714 615.215 3272.714 596.496 3260.203 596.496 3260.203 615.215"/><use xlink:href="#T0dBhPi_M7lULa4Yf4fD_pad-21" x="3266.459" y="616.776"/><path d="M 3211.842 623.012 3246.156 623.012 3246.156 590.249 3211.842 590.249 3211.842 623.012"/><path d="M 3300.736 615.215 3313.247 615.215 3313.247 601.17 3300.736 601.17 3300.736 615.215"/><use xlink:href="#T0dBhPi_M7lULa4Yf4fD_pad-21" x="3306.991" y="616.776"/><use xlink:href="#T0dBhPi_M7lULa4Yf4fD_pad-27" x="3243.814" y="606.631"/><path d="M 3506.693 613.664 3519.131 613.664 3519.131 576.227 3506.693 576.227 3506.693 613.664"/><use xlink:href="#T0dBhPi_M7lULa4Yf4fD_pad-23" x="3512.912" y="615.226"/><use xlink:href="#T0dBhPi_M7lULa4Yf4fD_pad-23" x="3512.912" y="576.216"/><path d="M 3494.182 623.012 3531.642 623.012 3531.642 610.541 3494.182 610.541 3494.182 623.012"/><use xlink:href="#T0dBhPi_M7lULa4Yf4fD_pad-21" x="3495.755" y="616.776"/><use xlink:href="#T0dBhPi_M7lULa4Yf4fD_pad-21" x="3530.069" y="616.776"/><path d="M 3374.046 615.215 3386.557 615.215 3386.557 577.778 3374.046 577.778 3374.046 615.215"/><use xlink:href="#T0dBhPi_M7lULa4Yf4fD_pad-21" x="3380.302" y="616.776"/><use xlink:href="#T0dBhPi_M7lULa4Yf4fD_pad-22" x="3380.302" y="577.778"/><path d="M 3356.926 615.215 3369.437 615.215 3369.437 577.778 3356.926 577.778 3356.926 615.215"/><use xlink:href="#T0dBhPi_M7lULa4Yf4fD_pad-21" x="3363.181" y="616.776"/><use xlink:href="#T0dBhPi_M7lULa4Yf4fD_pad-22" x="3363.181" y="577.778"/><path d="M 3316.393 615.215 3328.831 615.215 3328.831 577.778 3316.393 577.778 3316.393 615.215"/><use xlink:href="#T0dBhPi_M7lULa4Yf4fD_pad-23" x="3322.612" y="616.776"/><use xlink:href="#T0dBhPi_M7lULa4Yf4fD_pad-24" x="3322.612" y="577.778"/><path d="M 3263.349 599.62 3272.714 599.62 3272.714 590.249 3263.349 590.249 3263.349 599.62"/><use xlink:href="#T0dBhPi_M7lULa4Yf4fD_pad-28" x="3342.11" y="591.822"/><use xlink:href="#T0dBhPi_M7lULa4Yf4fD_pad-29" x="3585.49" y="597.272"/><use xlink:href="#T0dBhPi_M7lULa4Yf4fD_pad-30" x="3584.686" y="580.126"/><path d="M 3550.372 623.012 3587.832 623.012 3587.832 610.541 3550.372 610.541 3550.372 623.012"/><use xlink:href="#T0dBhPi_M7lULa4Yf4fD_pad-23" x="3551.908" y="616.776"/><use xlink:href="#T0dBhPi_M7lULa4Yf4fD_pad-21" x="3586.259" y="616.776"/><path d="M 3545.689 604.294 3583.149 604.294 3583.149 593.373 3545.689 593.373 3545.689 604.294"/><use xlink:href="#T0dBhPi_M7lULa4Yf4fD_pad-31" x="3547.226" y="600.395"/><path d="M 3545.689 584.025 3583.149 584.025 3583.149 573.104 3545.689 573.104 3545.689 584.025"/><path d="M 3041.808 623.012 3085.487 584.025 3083.951 571.531 3077.659 574.654 3041.808 605.867 3041.808 623.012"/><path d="M 3430.236 615.215 3442.747 615.215 3442.747 577.778 3430.236 577.778 3430.236 615.215"/><use xlink:href="#T0dBhPi_M7lULa4Yf4fD_pad-21" x="3436.492" y="616.776"/><use xlink:href="#T0dBhPi_M7lULa4Yf4fD_pad-22" x="3436.492" y="577.778"/><path d="M 3470.769 615.215 3483.28 615.215 3483.28 577.778 3470.769 577.778 3470.769 615.215"/><use xlink:href="#T0dBhPi_M7lULa4Yf4fD_pad-21" x="3477.025" y="616.776"/><use xlink:href="#T0dBhPi_M7lULa4Yf4fD_pad-22" x="3477.025" y="577.778"/><path d="M 3436.455 623.012 3480.134 584.025 3478.598 571.531 3472.379 574.654 3436.455 605.867 3436.455 623.012"/><path d="M 3104.217 623.012 3141.604 623.012 3141.604 610.541 3104.217 610.541 3104.217 623.012"/><use xlink:href="#T0dBhPi_M7lULa4Yf4fD_pad-23" x="3105.754" y="616.776"/><use xlink:href="#T0dBhPi_M7lULa4Yf4fD_pad-23" x="3140.068" y="616.776"/><path d="M 3099.535 604.294 3136.995 604.294 3136.995 593.373 3099.535 593.373 3099.535 604.294"/><use xlink:href="#T0dBhPi_M7lULa4Yf4fD_pad-31" x="3101.071" y="600.395"/><use xlink:href="#T0dBhPi_M7lULa4Yf4fD_pad-32" x="3545.689" y="578.564"/><path d="M 3099.535 584.025 3136.995 584.025 3136.995 573.104 3099.535 573.104 3099.535 584.025"/><use xlink:href="#T0dBhPi_M7lULa4Yf4fD_pad-32" x="3099.535" y="578.564"/><use xlink:href="#T0dBhPi_M7lULa4Yf4fD_pad-23" x="3135.385" y="579.34"/><use xlink:href="#T0dBhPi_M7lULa4Yf4fD_pad-22" x="3249.265" y="577.778"/><path d="M 3224.353 591.822 3244.619 573.104 3253.984 582.452 3241.473 594.946 3224.353 591.822"/><path d="M 3285.152 571.531 3296.053 571.531 3307.028 579.351 3311.71 590.249 3313.247 602.743 3300.736 604.294 3299.199 591.822 3285.152 571.531"/><path d="M 3260.203 602.743 3260.203 587.148 3271.104 573.104 3288.298 571.531 3302.345 580.901 3294.517 585.575 3288.298 582.452 3278.933 584.025 3260.203 602.743"/><path d="M 3324.148 623.012 3342.878 605.867 3360.072 621.461 3366.291 612.091 3346.024 591.822 3338.196 591.822 3324.148 605.867 3324.148 623.012"/><path d="M 3094.852 613.664 3107.29 613.664 3107.29 601.17 3094.852 601.17 3094.852 613.664"/><path d="M 3135.385 594.946 3146.287 594.946 3146.287 580.901 3135.385 580.901 3135.385 594.946"/><path d="M 3380.338 624.585 3417.725 624.585 3417.725 612.091 3380.338 612.091 3380.338 624.585"/><use xlink:href="#T0dBhPi_M7lULa4Yf4fD_pad-24" x="3381.875" y="618.338"/><use xlink:href="#T0dBhPi_M7lULa4Yf4fD_pad-24" x="3416.189" y="618.338"/><path d="M 3378.729 604.294 3416.189 604.294 3416.189 591.822 3378.729 591.822 3378.729 604.294"/><use xlink:href="#T0dBhPi_M7lULa4Yf4fD_pad-21" x="3380.302" y="598.058"/><use xlink:href="#T0dBhPi_M7lULa4Yf4fD_pad-23" x="3414.652" y="598.058"/><path d="M 3380.338 584.025 3417.725 584.025 3417.725 571.531 3380.338 571.531 3380.338 584.025"/><use xlink:href="#T0dBhPi_M7lULa4Yf4fD_pad-24" x="3381.875" y="577.778"/><use xlink:href="#T0dBhPi_M7lULa4Yf4fD_pad-24" x="3416.189" y="577.778"/><use xlink:href="#T0dBhPi_M7lULa4Yf4fD_pad-21" x="3581.576" y="579.34"/><path d="M 3541.007 613.664 3553.444 613.664 3553.444 601.17 3541.007 601.17 3541.007 613.664"/><path d="M 3581.539 594.946 3592.514 594.946 3592.514 580.901 3581.539 580.901 3581.539 594.946"/><path d="M 3290.624 1288.362 3317.141 1288.362 3321.814 1257.164 3340.544 1249.36 3365.504 1269.65 3385.771 1249.36 3365.504 1224.405 3373.311 1207.237 3404.501 1202.554 3404.501 1174.478 3373.311 1171.357 3365.504 1152.645 3384.214 1127.673 3365.504 1108.961 3340.544 1127.673 3329.621 1123.008 3314.026 1160.449 3324.949 1169.796 3332.736 1180.721 3332.736 1193.208 3329.621 1204.115 3320.256 1211.919 3309.334 1216.601 3296.854 1216.601 3285.931 1210.358 3279.701 1200.994 3276.586 1188.525 3279.701 1176.039 3287.509 1165.114 3295.296 1160.449 3279.701 1123.008 3268.779 1127.673 3243.819 1108.961 3225.109 1127.673 3243.819 1154.206 3236.012 1171.357 3204.822 1174.478 3204.822 1202.554 3237.589 1205.676 3243.819 1224.405 3223.551 1249.36 3243.819 1268.089 3268.779 1249.36 3287.509 1255.603 3290.624 1288.362"/><path d="M 3657.672 1028.402 3567.672 1028.402 3567.672 836.402 3657.672 836.402 3657.672 1028.402 M 3917.98 836.402 4007.98 836.402 4007.98 1028.402 3917.98 1028.402 3917.98 836.402 M 3675.472 836.402 3765.472 836.402 3765.472 1028.402 3675.472 1028.402 3675.472 836.402 M 2673.42 1028.402 2583.42 1028.402 2583.42 836.402 2673.42 836.402 2673.42 1028.402 M 2944.541 836.402 3034.541 836.402 3034.541 1028.402 2944.541 1028.402 2944.541 836.402 M 2691.22 836.402 2781.22 836.402 2781.22 1028.402 2691.22 1028.402 2691.22 836.402 M 1799.021 1027.383 1709.021 1027.383 1709.021 835.383 1799.021 835.383 1799.021 1027.383 M 1952.381 836.402 2042.381 836.402 2042.381 1028.402 1952.381 1028.402 1952.381 836.402 M 1600.888 836.402 1690.888 836.402 1690.888 1028.402 1600.888 1028.402 1600.888 836.402 M 1062.701 1027.383 972.701 1027.383 972.701 835.383 1062.701 835.383 1062.701 1027.383 M 719.98 836.402 809.98 836.402 809.98 1028.402 719.98 1028.402 719.98 836.402 M 1081.9 836.419 1171.9 836.419 1171.9 1028.419 1081.9 1028.419 1081.9 836.419" fill="none" stroke-width="9.843"/><path d="M 3565.035 820.456 3567.92 821.915 3572.231 826.193 3572.231 796.082 M 3590.116 826.193 3585.805 824.767 3582.92 820.456 3581.494 813.293 3581.494 808.982 3582.92 801.819 3585.805 797.508 3590.116 796.082 3592.968 796.082 3597.279 797.508 3600.131 801.819 3601.59 808.982 3601.59 813.293 3600.131 820.456 3597.279 824.767 3592.968 826.193 3590.116 826.193 M 3600.131 820.456 3582.92 801.819 M 3619.476 826.193 3615.165 824.767 3612.28 820.456 3610.854 813.293 3610.854 808.982 3612.28 801.819 3615.165 797.508 3619.476 796.082 3622.328 796.082 3626.639 797.508 3629.491 801.819 3630.95 808.982 3630.95 813.293 3629.491 820.456 3626.639 824.767 3622.328 826.193 3619.476 826.193 M 3629.491 820.456 3612.28 801.819 M 3660.309 826.226 3660.309 796.082 3640.213 826.226 3640.213 796.082 M 3944.702 820.456 3947.588 821.915 3951.899 826.193 3951.899 796.082 M 3961.162 826.226 3961.162 796.082 M 3981.258 826.226 3961.162 806.13 M 3968.325 813.326 3981.258 796.082 M 3687.515 820.456 3690.4 821.915 3694.711 826.193 3694.711 796.082 M 3712.597 826.193 3708.286 824.767 3705.4 820.456 3703.974 813.293 3703.974 808.982 3705.4 801.819 3708.286 797.508 3712.597 796.082 3715.448 796.082 3719.759 797.508 3722.611 801.819 3724.07 808.982 3724.07 813.293 3722.611 820.456 3719.759 824.767 3715.448 826.193 3712.597 826.193 M 3722.611 820.456 3705.4 801.819 M 3733.334 826.226 3733.334 796.082 M 3753.43 826.226 3733.334 806.13 M 3740.497 813.326 3753.43 796.082 M 2580.783 820.456 2583.668 821.915 2587.979 826.193 2587.979 796.082 M 2605.864 826.193 2601.553 824.767 2598.668 820.456 2597.242 813.293 2597.242 808.982 2598.668 801.819 2601.553 797.508 2605.864 796.082 2608.716 796.082 2613.027 797.508 2615.879 801.819 2617.338 808.982 2617.338 813.293 2615.879 820.456 2613.027 824.767 2608.716 826.193 2605.864 826.193 M 2615.879 820.456 2598.668 801.819 M 2635.224 826.193 2630.913 824.767 2628.028 820.456 2626.602 813.293 2626.602 808.982 2628.028 801.819 2630.913 797.508 2635.224 796.082 2638.076 796.082 2642.387 797.508 2645.239 801.819 2646.698 808.982 2646.698 813.293 2645.239 820.456 2642.387 824.767 2638.076 826.193 2635.224 826.193 M 2645.239 820.456 2628.028 801.819 M 2676.057 826.226 2676.057 796.082 2655.961 826.226 2655.961 796.082 M 2971.263 820.456 2974.148 821.915 2978.459 826.193 2978.459 796.082 M 2987.723 826.226 2987.723 796.082 M 3007.819 826.226 2987.723 806.13 M 2994.885 813.326 3007.819 796.082 M 2703.263 820.456 2706.148 821.915 2710.459 826.193 2710.459 796.082 M 2728.345 826.193 2724.034 824.767 2721.148 820.456 2719.723 813.293 2719.723 808.982 2721.148 801.819 2724.034 797.508 2728.345 796.082 2731.196 796.082 2735.507 797.508 2738.359 801.819 2739.819 808.982 2739.819 813.293 2738.359 820.456 2735.507 824.767 2731.196 826.193 2728.345 826.193 M 2738.359 820.456 2721.148 801.819 M 2749.082 826.226 2749.082 796.082 M 2769.178 826.226 2749.082 806.13 M 2756.245 813.326 2769.178 796.082 M 1706.384 1065.547 1709.269 1067.006 1713.58 1071.284 1713.58 1041.173 M 1731.465 1071.284 1727.154 1069.858 1724.269 1065.547 1722.843 1058.384 1722.843 1054.073 1724.269 1046.91 1727.154 1042.599 1731.465 1041.173 1734.317 1041.173 1738.628 1042.599 1741.48 1046.91 1742.939 1054.073 1742.939 1058.384 1741.48 1065.547 1738.628 1069.858 1734.317 1071.284 1731.465 1071.284 M 1741.48 1065.547 1724.269 1046.91 M 1760.825 1071.284 1756.514 1069.858 1753.629 1065.547 1752.203 1058.384 1752.203 1054.073 1753.629 1046.91 1756.514 1042.599 1760.825 1041.173 1763.677 1041.173 1767.988 1042.599 1770.84 1046.91 1772.299 1054.073 1772.299 1058.384 1770.84 1065.547 1767.988 1069.858 1763.677 1071.284 1760.825 1071.284 M 1770.84 1065.547 1753.629 1046.91 M 1801.658 1071.317 1801.658 1041.173 1781.562 1071.317 1781.562 1041.173 M 1914.217 914.124 1912.758 917.009 1908.48 921.32 1938.591 921.32 M 1908.447 930.584 1938.591 930.583 M 1908.447 950.679 1928.543 930.583 M 1921.347 937.746 1938.591 950.679 M 1612.931 1066.565 1615.816 1068.024 1620.127 1072.302 1620.127 1042.191 M 1638.013 1072.302 1633.702 1070.876 1630.816 1066.565 1629.39 1059.402 1629.39 1055.091 1630.816 1047.928 1633.702 1043.617 1638.013 1042.191 1640.864 1042.191 1645.175 1043.617 1648.027 1047.928 1649.486 1055.091 1649.486 1059.402 1648.027 1066.565 1645.175 1070.876 1640.864 1072.302 1638.013 1072.302 M 1648.027 1066.565 1630.816 1047.928 M 1658.75 1072.335 1658.75 1042.191 M 1678.846 1072.335 1658.75 1052.239 M 1665.913 1059.436 1678.846 1042.191 M 970.063 819.438 972.948 820.897 977.26 825.175 977.26 795.064 M 995.145 825.175 990.834 823.749 987.949 819.438 986.523 812.275 986.523 807.964 987.949 800.801 990.834 796.49 995.145 795.064 997.997 795.064 1002.308 796.49 1005.16 800.801 1006.619 807.964 1006.619 812.275 1005.16 819.438 1002.308 823.749 997.997 825.175 995.145 825.175 M 1005.16 819.438 987.949 800.801 M 1024.505 825.175 1020.194 823.749 1017.309 819.438 1015.883 812.275 1015.883 807.964 1017.309 800.801 1020.194 796.49 1024.505 795.064 1027.357 795.064 1031.668 796.49 1034.519 800.801 1035.979 807.964 1035.979 812.275 1034.519 819.438 1031.668 823.749 1027.357 825.175 1024.505 825.175 M 1034.519 819.438 1017.309 800.801 M 1065.338 825.208 1065.338 795.064 1045.242 825.208 1045.242 795.064 M 746.702 820.456 749.588 821.915 753.899 826.193 753.899 796.082 M 763.162 826.226 763.162 796.082 M 783.258 826.226 763.162 806.13 M 770.325 813.326 783.258 796.082 M 1093.943 820.473 1096.828 821.932 1101.139 826.21 1101.139 796.099 M 1119.024 826.21 1114.713 824.784 1111.828 820.473 1110.402 813.31 1110.402 808.999 1111.828 801.836 1114.713 797.525 1119.024 796.099 1121.876 796.099 1126.187 797.525 1129.039 801.836 1130.498 808.999 1130.498 813.31 1129.039 820.473 1126.187 824.784 1121.876 826.21 1119.024 826.21 M 1129.039 820.473 1111.828 801.836 M 1139.762 826.243 1139.762 796.099 M 1159.858 826.243 1139.762 806.147 M 1146.925 813.344 1159.858 796.099" fill="none" stroke-width="4.632"/><path d="M 1496.139 747.927 1496.139 750.779 1498.991 756.549 1501.843 759.401 1507.613 762.253 1519.087 762.253 1524.791 759.401 1527.643 756.549 1530.561 750.779 1530.561 745.075 1527.643 739.305 1521.939 730.749 1493.221 702.031 1533.413 702.031 M 1502.986 1138.392 1536.148 1138.392 M 1519.534 1064.228 1519.534 1012.562 M 1493.734 1038.362 1545.4 1038.362 M 1520.513 908.283 1520.513 968.505 1491.795 928.379 1534.838 928.379 M 1498.991 868.507 1530.495 868.507 1513.317 845.559 1521.939 845.559 1527.643 842.707 1530.495 839.855 1533.413 831.233 1533.413 825.53 1530.495 816.907 1524.791 811.137 1516.169 808.285 1507.547 808.285 1498.991 811.137 1496.139 814.056 1493.221 819.759 M 1502.995 644.531 1508.765 647.449 1517.387 656.005 1517.387 595.783 M 1849.781 1144.802 1849.781 1147.654 1852.633 1153.424 1855.485 1156.276 1861.255 1159.128 1872.729 1159.128 1878.433 1156.276 1881.285 1153.424 1884.203 1147.654 1884.203 1141.95 1881.285 1136.18 1875.581 1127.624 1846.863 1098.906 1887.055 1098.906 M 2837.01 1159.128 2868.513 1159.128 2851.335 1136.18 2859.957 1136.18 2865.661 1133.328 2868.513 1130.476 2871.431 1121.854 2871.431 1116.15 2868.513 1107.528 2862.809 1101.758 2854.187 1098.906 2845.565 1098.906 2837.01 1101.758 2834.158 1104.676 2831.239 1110.38 M 3838.082 1098.906 3838.082 1159.128 3809.364 1119.002 3852.408 1119.002" fill="none" stroke-width="9.264"/><path d="M 2061.833 526.856 2061.833 1249.516 1717.216 768.008 2233.743 768.008" fill="none" stroke-width="111.163"/><path d="M 873.049 1147.654 878.819 1150.572 887.441 1159.128 887.441 1098.906" fill="none" stroke-width="9.264"/><path d="M 2383.37 1250.312 2383.37 526.856 M 2142.218 1250.312 2624.522 1250.312" fill="none" stroke-width="111.163"/><path d="M 2152.303 862.83 2179.098 862.83 M 2158.051 862.83 2154.204 859.027 2152.303 855.181 2152.303 849.477 2154.204 845.63 2158.051 841.827 2163.799 839.882 2167.601 839.882 2173.35 841.827 2177.152 845.63 2179.098 849.477 2179.098 855.18 2177.152 859.027 2173.35 862.83 M 2138.906 875.181 2179.098 875.181 M 2152.303 887.533 2192.495 887.533 M 2158.051 887.533 2154.248 891.379 2152.303 895.182 2152.303 900.93 2154.248 904.777 2158.051 908.579 2163.799 910.525 2167.646 910.525 2173.35 908.579 2177.196 904.777 2179.098 900.93 2179.098 895.182 2177.196 891.379 2173.35 887.533 M 2138.906 922.876 2179.098 922.876 M 2159.952 922.876 2154.204 928.624 2152.303 932.471 2152.303 938.219 2154.204 942.021 2159.952 943.923 2179.098 943.923 M 2152.303 979.222 2179.098 979.222 M 2158.051 979.222 2154.204 975.419 2152.303 971.573 2152.303 965.869 2154.204 962.022 2158.051 958.22 2163.799 956.274 2167.602 956.274 2173.35 958.22 2177.152 962.022 2179.098 965.869 2179.098 971.573 2177.152 975.419 2173.35 979.222 M 2175.251 993.475 2177.196 991.573 2179.098 993.475 2177.196 995.42 2175.251 993.475 M 2144.654 1030.719 2140.851 1028.818 2138.95 1023.07 2138.95 1019.268 2140.851 1013.52 2146.599 1009.673 2156.15 1007.772 2165.7 1007.772 2173.35 1009.673 2177.196 1013.52 2179.098 1019.268 2179.098 1021.169 2177.196 1026.873 2173.35 1030.719 2167.601 1032.621 2165.7 1032.621 2159.952 1030.719 2156.15 1026.873 2154.248 1021.169 2154.248 1019.268 2156.15 1013.52 2159.952 1009.673 2165.7 1007.772" fill="none" stroke-width="6.176"/><path d="M 2479.807 534.864 2486.462 521.4 2499.925 508.091 2513.234 501.282 2533.352 494.628 2566.934 494.628 2586.897 501.282 2600.361 508.091 2613.67 521.4 2620.479 534.864 2620.479 561.637 2613.67 574.945 2600.361 588.409 2586.897 595.064 2566.934 601.718 2533.352 601.718 2513.234 595.064 2499.925 588.409 2486.462 574.945 2479.807 561.637 2479.807 534.864 M 2479.807 685.184 2486.462 671.72 2499.925 658.412 2513.234 651.602 2533.352 644.948 2566.934 644.948 2586.897 651.602 2600.361 658.412 2613.67 671.72 2620.479 685.184 2620.479 711.957 2613.67 725.266 2600.361 738.729 2586.897 745.384 2566.934 752.038 2533.352 752.038 2513.234 745.384 2499.925 738.729 2486.462 725.266 2479.807 711.957 2479.807 685.184 M 2513.234 895.704 2499.925 889.049 2486.462 875.586 2479.807 862.277 2479.807 835.504 2486.462 822.041 2499.925 808.732 2513.234 801.922 2533.352 795.268 2566.934 795.268 2586.897 801.922 2600.361 808.732 2613.67 822.041 2620.479 835.504 2620.479 862.277 2613.67 875.586 2600.361 889.049 2586.897 895.704 2566.934 895.704 2566.934 862.277 M 2479.807 938.934 2620.479 938.934 2620.479 1019.251 M 2479.807 1149.453 2479.807 1062.481 2620.479 1062.481 2620.479 1149.453 M 2546.816 1062.481 2546.816 1116.026" fill="none" stroke-width="21.615"/><path d="M 2987.702 523.537 2989.603 521.635 2991.549 523.537 2989.603 525.482 2987.702 523.537 M 2989.603 510.139 2989.603 483.345 M 3003.9 510.139 3003.9 483.345 M 3003.9 502.49 3009.648 508.238 3013.495 510.139 3019.199 510.139 3023.046 508.238 3024.947 502.49 3024.947 483.345 M 3058.345 504.391 3056.444 508.238 3050.696 510.139 3044.948 510.139 3039.199 508.238 3037.298 504.391 3039.199 500.589 3043.046 498.643 3052.597 496.742 3056.444 494.841 3058.345 490.994 3058.345 489.093 3056.444 485.29 3050.696 483.345 3044.948 483.345 3039.199 485.29 3037.298 489.093 M 3076.444 523.537 3076.444 490.994 3078.346 485.29 3082.192 483.345 3085.995 483.345 M 3070.696 510.139 3084.094 510.139 M 3098.346 510.139 3098.346 483.345 M 3098.346 498.643 3100.292 504.391 3104.094 508.238 3107.941 510.139 3113.689 510.139 M 3126.04 510.139 3126.04 490.994 3127.942 485.29 3131.789 483.345 3137.537 483.345 3141.339 485.29 3147.087 490.994 M 3147.087 510.139 3147.087 483.345 M 3159.439 510.139 3159.439 483.345 M 3159.439 502.49 3165.187 508.238 3169.033 510.139 3174.737 510.139 3178.584 508.238 3180.485 502.49 3180.485 483.345 M 3180.485 502.49 3186.233 508.238 3190.08 510.139 3195.784 510.139 3199.631 508.238 3201.576 502.49 3201.576 483.345 M 3213.927 498.643 3236.875 498.643 3236.875 502.49 3234.974 506.337 3233.073 508.238 3229.226 510.139 3223.478 510.139 3219.675 508.238 3215.829 504.391 3213.927 498.643 3213.927 494.841 3215.829 489.093 3219.675 485.29 3223.478 483.345 3229.226 483.345 3233.073 485.29 3236.875 489.093 M 3249.227 510.139 3249.227 483.345 M 3249.227 502.49 3254.975 508.238 3258.821 510.139 3264.525 510.139 3268.372 508.238 3270.273 502.49 3270.273 483.345 M 3288.373 523.537 3288.373 490.994 3290.274 485.29 3294.121 483.345 3297.923 483.345 M 3282.625 510.139 3296.022 510.139 M 3331.321 504.391 3329.42 508.238 3323.672 510.139 3317.924 510.139 3312.176 508.238 3310.275 504.391 3312.176 500.589 3316.023 498.643 3325.573 496.742 3329.42 494.841 3331.321 490.994 3331.321 489.093 3329.42 485.29 3323.672 483.345 3317.924 483.345 3312.176 485.29 3310.275 489.093 M 3345.574 487.191 3343.673 485.246 3345.574 483.345 3347.52 485.246 3345.574 487.191 M 3382.819 510.139 3382.819 483.345 M 3382.819 504.391 3379.016 508.238 3375.17 510.139 3369.466 510.139 3365.619 508.238 3361.816 504.391 3359.871 498.643 3359.871 494.841 3361.816 489.093 3365.619 485.29 3369.466 483.345 3375.17 483.345 3379.016 485.29 3382.819 489.093 M 3395.17 510.139 3395.17 483.345 M 3395.17 498.643 3397.116 504.391 3400.918 508.238 3404.765 510.139 3410.513 510.139 M 3428.612 523.537 3428.612 490.994 3430.514 485.29 3434.361 483.345 3438.163 483.345 M 3422.864 510.139 3436.262 510.139 M 3450.514 523.537 3452.416 521.635 3454.361 523.537 3452.416 525.482 3450.514 523.537 M 3452.416 510.139 3452.416 483.345 M 3489.705 504.391 3485.858 508.238 3482.011 510.139 3476.307 510.139 3472.461 508.238 3468.658 504.391 3466.713 498.643 3466.713 494.841 3468.658 489.093 3472.461 485.29 3476.307 483.345 3482.011 483.345 3485.858 485.29 3489.705 489.093 M 3525.004 510.139 3525.004 483.345 M 3525.004 504.391 3521.202 508.238 3517.355 510.139 3511.651 510.139 3507.804 508.238 3504.002 504.391 3502.056 498.643 3502.056 494.841 3504.002 489.093 3507.804 485.29 3511.651 483.345 3517.355 483.345 3521.202 485.29 3525.004 489.093 M 3539.257 487.191 3537.355 485.246 3539.257 483.345 3541.202 485.246 3539.257 487.191 M 3576.546 504.391 3572.699 508.238 3568.852 510.139 3563.148 510.139 3559.302 508.238 3555.499 504.391 3553.554 498.643 3553.554 494.841 3555.499 489.093 3559.302 485.29 3563.148 483.345 3568.852 483.345 3572.699 485.29 3576.546 489.093 M 3611.889 504.391 3608.043 508.238 3604.196 510.139 3598.492 510.139 3594.645 508.238 3590.843 504.391 3588.897 498.643 3588.897 494.841 3590.843 489.093 3594.645 485.29 3598.492 483.345 3604.196 483.345 3608.043 485.29 3611.889 489.093" fill="none" stroke-width="6.176"/><path d="M 3169.956 1069.628 3168.53 1072.48 3165.645 1075.365 3162.793 1076.791 3157.056 1076.791 3154.171 1075.365 3151.319 1072.48 3149.86 1069.628 3148.434 1065.317 3148.434 1058.121 3149.86 1053.843 3151.319 1050.958 3154.171 1048.106 3157.056 1046.647 3162.793 1046.647 3165.645 1048.106 3168.53 1050.958 3169.956 1053.843 M 3200.741 1069.628 3199.316 1072.48 3196.43 1075.365 3193.579 1076.791 3187.842 1076.791 3184.956 1075.365 3182.105 1072.48 3180.645 1069.628 3179.22 1065.317 3179.22 1058.121 3180.645 1053.843 3182.105 1050.958 3184.956 1048.106 3187.842 1046.647 3193.579 1046.647 3196.43 1048.106 3199.316 1050.958 3200.741 1053.843 M 3239.166 1076.791 3239.166 1046.647 3252.099 1046.647 3256.41 1048.106 3257.836 1049.532 3259.262 1052.384 3259.262 1056.695 3257.836 1059.58 3256.41 1061.006 3252.099 1062.432 3256.41 1063.891 3257.836 1065.317 3259.262 1068.169 3259.262 1071.054 3257.836 1073.906 3256.41 1075.365 3252.099 1076.791 3239.166 1076.791 M 3239.166 1062.432 3252.099 1062.432 M 3268.525 1076.791 3279.999 1062.432 3279.999 1046.647 M 3291.473 1076.791 3279.999 1062.432 M 3300.737 1061.702 3317.317 1061.702 M 3346.677 1072.48 3343.825 1075.365 3339.514 1076.791 3333.777 1076.791 3329.466 1075.365 3326.581 1072.48 3326.581 1069.628 3328.04 1066.743 3329.466 1065.317 3332.318 1063.891 3340.94 1061.006 3343.825 1059.58 3345.251 1058.121 3346.677 1055.269 3346.677 1050.958 3343.825 1048.106 3339.514 1046.647 3333.777 1046.647 3329.466 1048.106 3326.581 1050.958 M 3378.922 1046.647 3367.415 1076.791 3355.941 1046.647 M 3360.252 1056.695 3374.611 1056.695 M 3431.705 1046.647 3431.705 1076.758 3417.346 1056.695 3438.868 1056.695 M 3449.557 1049.532 3448.131 1048.073 3449.557 1046.647 3451.016 1048.073 3449.557 1049.532 M 3468.902 1076.758 3464.591 1075.332 3461.706 1071.021 3460.28 1063.858 3460.28 1059.547 3461.706 1052.384 3464.591 1048.073 3468.902 1046.647 3471.754 1046.647 3476.065 1048.073 3478.917 1052.384 3480.376 1059.547 3480.376 1063.858 3478.917 1071.021 3476.065 1075.332 3471.754 1076.758 3468.902 1076.758 M 3478.917 1071.021 3461.706 1052.384" fill="none" stroke-width="4.632"/></g><g id="XYKVCTIlLFFP8jWfcOxo_top_soldermask"><use xlink:href="#T7RlA3lLL671uEm-V4Gm_pad-49" x="1275.984" y="635.827"/><use xlink:href="#T7RlA3lLL671uEm-V4Gm_pad-49" x="1401.181" y="735.827"/><use xlink:href="#T7RlA3lLL671uEm-V4Gm_pad-49" x="1275.984" y="835.827"/><use xlink:href="#T7RlA3lLL671uEm-V4Gm_pad-49" x="1401.181" y="935.827"/><use xlink:href="#T7RlA3lLL671uEm-V4Gm_pad-49" x="1275.984" y="1035.827"/><use xlink:href="#T7RlA3lLL671uEm-V4Gm_pad-49" x="1401.181" y="1135.827"/><use xlink:href="#T7RlA3lLL671uEm-V4Gm_pad-47" x="3838.583" y="786.327"/><use xlink:href="#T7RlA3lLL671uEm-V4Gm_pad-47" x="3838.583" y="886.327"/><use xlink:href="#T7RlA3lLL671uEm-V4Gm_pad-47" x="3838.583" y="986.327"/><use xlink:href="#T7RlA3lLL671uEm-V4Gm_pad-45" x="3612.672" y="987.52"/><use xlink:href="#T7RlA3lLL671uEm-V4Gm_pad-45" x="3612.672" y="877.283"/><use xlink:href="#T7RlA3lLL671uEm-V4Gm_pad-45" x="3962.98" y="877.283"/><use xlink:href="#T7RlA3lLL671uEm-V4Gm_pad-45" x="3962.98" y="987.52"/><use xlink:href="#T7RlA3lLL671uEm-V4Gm_pad-45" x="3720.472" y="877.283"/><use xlink:href="#T7RlA3lLL671uEm-V4Gm_pad-45" x="3720.472" y="987.52"/><use xlink:href="#T7RlA3lLL671uEm-V4Gm_pad-47" x="2854.331" y="786.327"/><use xlink:href="#T7RlA3lLL671uEm-V4Gm_pad-47" x="2854.331" y="886.327"/><use xlink:href="#T7RlA3lLL671uEm-V4Gm_pad-47" x="2854.331" y="986.327"/><use xlink:href="#T7RlA3lLL671uEm-V4Gm_pad-45" x="2628.42" y="987.52"/><use xlink:href="#T7RlA3lLL671uEm-V4Gm_pad-45" x="2628.42" y="877.283"/><use xlink:href="#T7RlA3lLL671uEm-V4Gm_pad-45" x="2989.541" y="877.283"/><use xlink:href="#T7RlA3lLL671uEm-V4Gm_pad-45" x="2989.541" y="987.52"/><use xlink:href="#T7RlA3lLL671uEm-V4Gm_pad-45" x="2736.22" y="877.283"/><use xlink:href="#T7RlA3lLL671uEm-V4Gm_pad-45" x="2736.22" y="987.52"/><use xlink:href="#T7RlA3lLL671uEm-V4Gm_pad-47" x="1870.079" y="786.327"/><use xlink:href="#T7RlA3lLL671uEm-V4Gm_pad-47" x="1870.079" y="886.327"/><use xlink:href="#T7RlA3lLL671uEm-V4Gm_pad-47" x="1870.079" y="986.327"/><use xlink:href="#T7RlA3lLL671uEm-V4Gm_pad-45" x="1754.021" y="986.501"/><use xlink:href="#T7RlA3lLL671uEm-V4Gm_pad-45" x="1754.021" y="876.265"/><use xlink:href="#T7RlA3lLL671uEm-V4Gm_pad-45" x="1997.381" y="877.283"/><use xlink:href="#T7RlA3lLL671uEm-V4Gm_pad-45" x="1997.381" y="987.52"/><use xlink:href="#T7RlA3lLL671uEm-V4Gm_pad-45" x="1645.888" y="877.283"/><use xlink:href="#T7RlA3lLL671uEm-V4Gm_pad-45" x="1645.888" y="987.52"/><use xlink:href="#T7RlA3lLL671uEm-V4Gm_pad-47" x="885.827" y="786.327"/><use xlink:href="#T7RlA3lLL671uEm-V4Gm_pad-47" x="885.827" y="886.327"/><use xlink:href="#T7RlA3lLL671uEm-V4Gm_pad-47" x="885.827" y="986.327"/><use xlink:href="#T7RlA3lLL671uEm-V4Gm_pad-45" x="1017.701" y="986.501"/><use xlink:href="#T7RlA3lLL671uEm-V4Gm_pad-45" x="1017.701" y="876.265"/><use xlink:href="#T7RlA3lLL671uEm-V4Gm_pad-45" x="764.98" y="877.283"/><use xlink:href="#T7RlA3lLL671uEm-V4Gm_pad-45" x="764.98" y="987.52"/><use xlink:href="#T7RlA3lLL671uEm-V4Gm_pad-45" x="1126.9" y="877.301"/><use xlink:href="#T7RlA3lLL671uEm-V4Gm_pad-45" x="1126.9" y="987.537"/><use xlink:href="#T7RlA3lLL671uEm-V4Gm_pad-38" x="511.811" y="511.811"/><use xlink:href="#T7RlA3lLL671uEm-V4Gm_pad-38" x="511.811" y="1259.843"/><use xlink:href="#T7RlA3lLL671uEm-V4Gm_pad-38" x="4212.598" y="1259.843"/><use xlink:href="#T7RlA3lLL671uEm-V4Gm_pad-38" x="4212.598" y="511.811"/></g><g id="XYKVCTIlLFFP8jWfcOxo_top_copper"><path d="M 3962.98 987.52 3962.98 1208.021 3959.861 1211.14 M 2989.541 987.52 2989.541 1211.14 M 1997.381 987.52 1997.381 1211.14 M 764.98 987.52 764.98 1023.94 824.261 1083.221 896.021 1083.221 942.821 1130.021 M 3962.98 877.283 3962.98 814.9 3934.9 786.82 3839.076 786.82 3838.583 786.327 3766.915 786.327 3735.22 818.021 3735.22 862.535 3720.472 877.283 3612.672 877.283 3133.043 877.283 2939.621 683.861 1825.781 683.861 1800.82 658.9 1807.06 658.9 M 1535.621 936.581 1401.936 936.581 1401.181 935.827 M 2854.331 786.327 2951.606 786.327 2989.541 824.261 2989.541 877.283 M 2854.331 786.327 2777.874 786.327 2743.06 821.14 2743.06 870.444 2736.22 877.283 2628.42 877.283 2580.804 877.283 2412.341 708.82 1688.501 708.82 M 1404.581 836.74 1276.898 836.74 1275.984 835.827 M 1870.079 786.327 1950.087 786.327 1994.261 830.501 1994.261 874.164 1997.381 877.283 M 1870.079 786.327 1791.955 786.327 1760.261 818.021 1760.261 870.025 1754.021 876.265 1646.907 876.265 1645.888 877.283 1645.888 825.328 1557.461 736.9 1402.255 736.9 1401.181 735.827 M 885.827 786.327 812.276 786.327 768.101 830.501 768.101 874.163 764.98 877.283 M 885.827 786.327 927.762 786.327 1017.701 876.265 1125.865 876.265 1126.9 877.301 M 1275.984 635.827 1275.984 656.458 1130.021 802.421 1130.021 874.18 1126.9 877.301" fill="none" stroke-width="12"/><path d="M 1275.984 1035.827 1275.984 1173.024" fill="none" stroke-width="22"/><use xlink:href="#sKhkGDAMIhlVLaMdwbql_pad-36" x="3959.861" y="1211.14"/><use xlink:href="#sKhkGDAMIhlVLaMdwbql_pad-36" x="2989.541" y="1211.14"/><use xlink:href="#sKhkGDAMIhlVLaMdwbql_pad-36" x="1997.381" y="1211.14"/><use xlink:href="#sKhkGDAMIhlVLaMdwbql_pad-36" x="942.821" y="1130.021"/><use xlink:href="#sKhkGDAMIhlVLaMdwbql_pad-36" x="1807.06" y="658.9"/><use xlink:href="#sKhkGDAMIhlVLaMdwbql_pad-36" x="1535.621" y="936.581"/><use xlink:href="#sKhkGDAMIhlVLaMdwbql_pad-36" x="1688.501" y="708.82"/><use xlink:href="#sKhkGDAMIhlVLaMdwbql_pad-36" x="1404.581" y="836.74"/><use xlink:href="#sKhkGDAMIhlVLaMdwbql_pad-36" x="1275.984" y="1173.024"/><use xlink:href="#sKhkGDAMIhlVLaMdwbql_pad-36" x="1275.984" y="1173.024"/><use xlink:href="#sKhkGDAMIhlVLaMdwbql_pad-36" x="743.141" y="1211.141"/><use xlink:href="#sKhkGDAMIhlVLaMdwbql_pad-36" x="1732.181" y="1211.14"/><use xlink:href="#sKhkGDAMIhlVLaMdwbql_pad-36" x="2711.861" y="1211.14"/><use xlink:href="#sKhkGDAMIhlVLaMdwbql_pad-36" x="3697.781" y="1211.14"/><path d="M 644.939 1313.025 4079.474 1313.025 M 644.939 1288.156 4079.474 1288.156 M 644.939 1263.287 4079.474 1263.287 M 644.939 1238.419 1957.248 1238.419 M 2037.533 1238.419 2949.41 1238.419 M 3029.695 1238.419 3919.718 1238.419 M 4000.003 1238.419 4079.474 1238.419 M 644.939 1213.55 1250.688 1213.55 M 1301.261 1213.55 1948.456 1213.55 M 2046.324 1213.55 2940.618 1213.55 M 3038.486 1213.55 3910.926 1213.55 M 4008.795 1213.55 4079.474 1213.55 M 644.939 1188.681 1229.696 1188.681 M 1322.253 1188.681 1954.162 1188.681 M 2040.583 1188.681 2946.324 1188.681 M 3032.745 1188.681 3916.668 1188.681 M 4003.053 1188.681 4079.474 1188.681 M 644.939 1163.812 908.389 1163.812 M 977.263 1163.812 1227.902 1163.812 M 1492.775 1163.812 1962.379 1163.812 M 2032.365 1163.812 2954.541 1163.812 M 3024.527 1163.812 3927.971 1163.812 M 3997.958 1163.812 4079.474 1163.812 M 644.939 1138.944 894.681 1138.944 M 990.935 1138.944 1235.976 1138.944 M 1492.775 1138.944 1962.379 1138.944 M 2032.365 1138.944 2954.541 1138.944 M 3024.527 1138.944 3927.971 1138.944 M 3997.958 1138.944 4079.474 1138.944 M 644.939 1114.075 811.573 1114.075 M 988.997 1114.075 1235.976 1114.075 M 1492.775 1114.075 1962.379 1114.075 M 2032.365 1114.075 2954.541 1114.075 M 3024.527 1114.075 3927.971 1114.075 M 3997.958 1114.075 4079.474 1114.075 M 644.939 1089.206 781.789 1089.206 M 967.574 1089.206 1235.976 1089.206 M 1492.775 1089.206 1962.379 1089.206 M 2032.365 1089.206 2954.541 1089.206 M 3024.527 1089.206 3927.971 1089.206 M 3997.958 1089.206 4079.474 1089.206 M 644.939 1064.337 756.922 1064.337 M 925.589 1064.337 1184.41 1064.337 M 1367.575 1064.337 1962.379 1064.337 M 2032.365 1064.337 2954.541 1064.337 M 3024.527 1064.337 3927.971 1064.337 M 3997.958 1064.337 4079.474 1064.337 M 644.939 1039.469 700.548 1039.469 M 928.281 1039.469 953.28 1039.469 M 1367.575 1039.469 1581.468 1039.469 M 1912.548 1039.469 1932.954 1039.469 M 2061.79 1039.469 2563.978 1039.469 M 2896.78 1039.469 2925.116 1039.469 M 3053.952 1039.469 3548.245 1039.469 M 3881.047 1039.469 3898.546 1039.469 M 4027.418 1039.469 4079.474 1039.469 M 644.939 1014.6 700.548 1014.6 M 1367.575 1014.6 1581.468 1014.6 M 2061.79 1014.6 2563.978 1014.6 M 3053.952 1014.6 3548.245 1014.6 M 4027.418 1014.6 4079.474 1014.6 M 644.939 989.731 700.548 989.731 M 1367.575 989.731 1581.468 989.731 M 2061.79 989.731 2563.978 989.731 M 3053.952 989.731 3548.245 989.731 M 4027.418 989.731 4079.474 989.731 M 644.939 964.862 700.548 964.862 M 2061.79 964.862 2563.978 964.862 M 3053.952 964.862 3548.245 964.862 M 4027.418 964.862 4079.474 964.862 M 644.939 939.993 700.548 939.993 M 936.032 939.993 953.28 939.993 M 1920.263 939.993 1932.954 939.993 M 2061.79 939.993 2563.978 939.993 M 2904.531 939.993 2925.116 939.993 M 3053.952 939.993 3548.245 939.993 M 4027.418 939.993 4079.474 939.993 M 644.939 915.125 700.548 915.125 M 2061.79 915.125 2563.978 915.125 M 3053.952 915.125 3548.245 915.125 M 4027.418 915.125 4079.474 915.125 M 644.939 890.256 700.548 890.256 M 1492.775 890.256 1529.185 890.256 M 1542.069 890.256 1581.468 890.256 M 2061.79 890.256 2545.318 890.256 M 3053.952 890.256 3097.575 890.256 M 4027.418 890.256 4079.474 890.256 M 644.939 865.387 700.548 865.387 M 1443.685 865.387 1581.468 865.387 M 2061.79 865.387 2520.45 865.387 M 3053.952 865.387 3072.708 865.387 M 4027.418 865.387 4079.474 865.387 M 644.939 840.518 700.548 840.518 M 1453.41 840.518 1581.468 840.518 M 2061.79 840.518 2495.582 840.518 M 2905.033 840.518 2925.116 840.518 M 3144.739 840.518 3548.245 840.518 M 4027.418 840.518 4079.474 840.518 M 644.939 815.65 736.719 815.65 M 1005.539 815.65 1095.022 815.65 M 1448.53 815.65 1587.748 815.65 M 1679.409 815.65 1725.364 815.65 M 2025.655 815.65 2470.715 815.65 M 3119.872 815.65 3700.322 815.65 M 3997.958 815.65 4079.474 815.65 M 644.939 790.781 759.362 790.781 M 980.672 790.781 1097.176 790.781 M 1367.575 790.781 1395.05 790.781 M 1414.09 790.781 1562.88 790.781 M 1659.78 790.781 1739.036 790.781 M 2002.976 790.781 2445.847 790.781 M 3095.004 790.781 3713.994 790.781 M 3987.3 790.781 4079.474 790.781 M 644.939 765.912 784.23 765.912 M 955.804 765.912 1118.096 765.912 M 1634.912 765.912 1763.904 765.912 M 1978.108 765.912 2420.979 765.912 M 3070.136 765.912 3738.862 765.912 M 3962.432 765.912 4079.474 765.912 M 644.939 741.043 834.647 741.043 M 937.001 741.043 1142.964 741.043 M 1610.044 741.043 1652.483 741.043 M 3045.268 741.043 3787.377 741.043 M 3889.767 741.043 4079.474 741.043 M 644.939 716.175 1167.831 716.175 M 1585.177 716.175 1640.103 716.175 M 3020.401 716.175 4079.474 716.175 M 644.939 691.306 1192.699 691.306 M 1492.775 691.306 1642.938 691.306 M 2995.533 691.306 4079.474 691.306 M 644.939 666.437 1184.41 666.437 M 1367.575 666.437 1666.909 666.437 M 1710.125 666.437 1758.7 666.437 M 2970.665 666.437 4079.474 666.437 M 644.939 641.568 1184.41 641.568 M 1367.575 641.568 1761.428 641.568 M 1852.693 641.568 4079.474 641.568 M 644.939 616.699 1184.41 616.699 M 1367.575 616.699 1785.039 616.699 M 1829.081 616.699 4079.474 616.699 M 644.939 591.831 1184.41 591.831 M 1367.575 591.831 4079.474 591.831 M 644.939 566.962 4079.474 566.962 M 644.939 542.093 4079.474 542.093 M 644.939 517.224 4079.474 517.224 M 644.939 492.356 4079.474 492.356 M 644.939 467.487 4079.474 467.487 M 644.939 442.618 4079.474 442.618 M 1196.08 687.319 1199.202 687.319 1105.314 781.319 1102.317 785.444 1100.002 789.987 1098.426 794.836 1097.629 799.872 1097.529 819.323 1079.63 819.312 1079.626 818.277 1005.669 818.277 948.857 761.613 945.072 756.14 939.62 747.244 932.844 739.31 924.91 732.534 916.014 727.082 906.374 723.089 896.228 720.653 885.827 719.835 875.425 720.653 865.28 723.089 855.64 727.082 846.744 732.534 838.81 739.31 832.034 747.244 827.867 753.845 809.726 753.935 804.69 754.732 799.841 756.308 795.298 758.623 791.174 761.619 745.126 807.526 741.814 811.403 739.15 815.75 738.079 818.076 735.042 819.295 703.055 819.295 703.055 1045.508 740.698 1045.508 801.285 1106.196 805.162 1109.508 809.51 1112.172 814.22 1114.123 819.178 1115.313 824.261 1115.713 882.573 1115.713 896.313 1129.464 896.901 1137.294 898.604 1144.388 901.396 1151.128 905.208 1157.348 909.946 1162.896 915.493 1167.634 921.714 1171.446 928.454 1174.237 935.548 1175.941 942.821 1176.513 950.094 1175.941 957.188 1174.237 963.928 1171.446 970.148 1167.634 975.696 1162.896 980.434 1157.348 984.246 1151.128 987.037 1144.388 988.741 1137.294 989.313 1130.021 988.741 1122.748 987.037 1115.654 984.246 1108.914 980.434 1102.693 975.696 1097.146 970.148 1092.408 963.928 1088.596 957.188 1085.804 950.094 1084.101 942.294 1083.549 917.123 1058.514 912.998 1055.517 908.455 1053.202 903.606 1051.626 901.349 1050.982 911.272 1047.757 920.569 1043.021 929.01 1036.888 936.388 1029.51 942.521 1021.069 947.257 1011.772 950.482 1001.849 952.114 991.544 952.114 981.11 950.482 970.804 947.257 960.881 942.521 951.585 936.388 943.144 929.624 936.333 936.388 929.51 942.521 921.069 947.257 911.772 950.482 901.849 952.114 891.544 952.114 881.11 950.482 870.804 947.257 860.881 942.521 851.585 936.388 843.144 929.624 836.333 937.266 841.781 955.763 860.279 955.776 1044.489 1064.971 1044.489 1064.975 1045.525 1186.888 1045.525 1186.894 1087.319 1238.459 1087.319 1238.371 1145.696 1234.559 1151.917 1231.768 1158.657 1230.065 1165.751 1229.492 1173.024 1230.065 1180.297 1231.768 1187.39 1234.559 1194.131 1238.371 1200.351 1243.109 1205.899 1248.657 1210.637 1254.877 1214.448 1261.617 1217.24 1268.711 1218.943 1275.984 1219.516 1283.257 1218.943 1290.351 1217.24 1297.091 1214.448 1303.312 1210.637 1308.859 1205.899 1313.597 1200.351 1317.409 1194.131 1320.22 1187.322 1490.272 1187.319 1490.272 1084.335 1365.072 1084.335 1365.075 987.31 1490.272 987.319 1490.272 969.054 1502.376 969.074 1508.293 974.194 1514.514 978.006 1521.254 980.798 1528.348 982.501 1535.621 983.073 1542.894 982.501 1549.988 980.798 1556.728 978.006 1562.948 974.194 1568.496 969.456 1573.234 963.909 1577.046 957.688 1579.837 950.948 1581.54 943.854 1582.113 936.581 1581.54 929.308 1579.837 922.215 1577.046 915.474 1573.234 909.254 1568.496 903.706 1562.948 898.968 1556.728 895.157 1549.988 892.365 1542.894 890.662 1535.621 890.089 1528.348 890.662 1521.254 892.365 1514.514 895.157 1508.293 898.968 1502.388 904.094 1490.299 904.089 1490.272 884.335 1365.072 884.335 1365.075 869.197 1371.309 869.232 1377.254 874.353 1383.474 878.165 1390.215 880.957 1397.308 882.66 1404.581 883.232 1411.854 882.66 1418.948 880.957 1425.688 878.165 1431.909 874.353 1437.456 869.615 1442.194 864.068 1446.006 857.847 1448.798 851.107 1450.501 844.013 1451.073 836.74 1450.501 829.467 1448.798 822.373 1446.006 815.633 1442.194 809.413 1437.456 803.865 1431.909 799.127 1425.688 795.315 1418.948 792.524 1411.854 790.82 1404.581 790.248 1397.308 790.82 1390.215 792.524 1383.474 795.315 1377.254 799.127 1371.348 804.253 1365.073 804.248 1365.075 787.31 1490.272 787.319 1490.272 769.413 1544.033 769.392 1593.886 819.276 1583.963 819.295 1583.963 1045.508 1707.814 1045.508 1707.814 1044.496 1815.946 1044.489 1815.946 1024.932 1819.518 1029.51 1826.896 1036.888 1835.337 1043.021 1844.633 1047.757 1854.556 1050.982 1864.862 1052.614 1875.296 1052.614 1885.601 1050.982 1895.524 1047.757 1904.821 1043.021 1913.262 1036.888 1920.64 1029.51 1926.773 1021.069 1931.509 1011.772 1934.734 1001.849 1935.454 998.229 1935.455 1045.508 1964.916 1045.508 1964.888 1177.885 1959.768 1183.813 1955.956 1190.033 1953.164 1196.774 1951.461 1203.867 1950.888 1211.14 1951.461 1218.413 1953.164 1225.507 1955.956 1232.247 1959.768 1238.468 1964.506 1244.015 1970.053 1248.753 1976.274 1252.565 1983.014 1255.357 1990.108 1257.06 1997.381 1257.633 2004.654 1257.06 2011.747 1255.357 2018.488 1252.565 2024.708 1248.753 2030.255 1244.015 2034.993 1238.468 2038.805 1232.247 2041.597 1225.507 2043.3 1218.413 2043.873 1211.14 2043.3 1203.867 2041.597 1196.774 2038.805 1190.033 2034.993 1183.813 2029.868 1177.907 2029.873 1045.535 2059.306 1045.508 2059.306 819.295 2024.749 819.295 2021.965 813.524 2018.968 809.399 1973.062 763.351 1969.185 760.04 1964.838 757.376 1960.127 755.425 1955.17 754.235 1950.077 753.835 1928.09 753.835 1923.872 747.244 1918.937 741.302 2398.901 741.312 2559.702 901.991 2563.827 904.988 2566.062 906.238 2566.495 911.159 2566.495 1045.508 2798.146 1045.508 2798.146 1021.889 2803.77 1029.51 2811.148 1036.888 2819.589 1043.021 2828.885 1047.757 2838.808 1050.982 2849.114 1052.614 2859.548 1052.614 2869.853 1050.982 2879.776 1047.757 2889.073 1043.021 2897.514 1036.888 2904.892 1029.51 2911.025 1021.069 2915.761 1011.772 2918.986 1001.849 2920.618 991.544 2920.618 981.11 2918.986 970.804 2915.761 960.881 2911.025 951.585 2904.892 943.144 2898.128 936.333 2904.892 929.51 2911.025 921.069 2915.761 911.772 2918.986 901.849 2920.618 891.544 2920.618 881.11 2918.986 870.804 2915.761 860.881 2911.025 851.585 2904.892 843.144 2898.128 836.333 2904.892 829.51 2911.025 821.069 2912.29 818.809 2938.12 818.819 2927.616 819.295 2927.616 1045.508 2957.077 1045.508 2957.049 1177.885 2951.928 1183.813 2948.116 1190.033 2945.324 1196.774 2943.621 1203.867 2943.049 1211.14 2943.621 1218.413 2945.324 1225.507 2948.116 1232.247 2951.928 1238.468 2956.666 1244.015 2962.213 1248.753 2968.434 1252.565 2975.174 1255.357 2982.268 1257.06 2989.541 1257.633 2996.814 1257.06 3003.908 1255.357 3010.648 1252.565 3016.868 1248.753 3022.416 1244.015 3027.154 1238.468 3030.965 1232.247 3033.757 1225.507 3035.46 1218.413 3036.033 1211.14 3035.46 1203.867 3033.757 1196.774 3030.965 1190.033 3027.154 1183.813 3022.028 1177.907 3022.033 1045.535 3051.466 1045.508 3051.466 841.65 3111.941 901.991 3116.066 904.988 3120.609 907.302 3125.458 908.878 3130.494 909.676 3197.348 909.776 3550.771 909.776 3550.747 1045.508 3782.398 1045.508 3782.398 1021.889 3788.022 1029.51 3795.399 1036.888 3803.841 1043.021 3813.137 1047.757 3823.06 1050.982 3833.366 1052.614 3843.8 1052.614 3854.105 1050.982 3864.028 1047.757 3873.325 1043.021 3881.766 1036.888 3889.144 1029.51 3895.277 1021.069 3900.013 1011.772 3901.051 1008.96 3901.055 1045.508 3930.516 1045.508 3930.488 1175.086 3924.508 1180.946 3920.22 1186.848 3916.908 1193.349 3914.653 1200.287 3913.512 1207.493 3913.512 1214.788 3914.653 1221.994 3916.908 1228.932 3920.22 1235.432 3924.508 1241.335 3929.667 1246.493 3935.569 1250.781 3942.069 1254.094 3949.008 1256.348 3956.213 1257.489 3963.509 1257.489 3970.714 1256.348 3977.653 1254.094 3984.153 1250.781 3990.055 1246.493 3995.214 1241.335 3999.502 1235.432 4002.814 1228.932 4005.068 1221.994 4006.21 1214.788 4006.21 1207.493 4005.068 1200.287 4002.814 1193.349 3999.502 1186.848 3995.47 1181.271 3995.472 1045.502 4024.906 1045.508 4024.906 819.295 3995.445 819.295 3995.372 812.351 3994.575 807.315 3992.999 802.466 3990.684 797.923 3987.688 793.798 3957.876 763.845 3953.999 760.533 3949.651 757.869 3944.941 755.918 3939.983 754.728 3934.9 754.328 3896.899 754.328 3892.376 747.244 3885.6 739.31 3877.666 732.534 3868.769 727.082 3859.13 723.089 3848.984 720.653 3838.583 719.835 3828.181 720.653 3818.035 723.089 3808.396 727.082 3799.5 732.534 3791.566 739.31 3784.789 747.244 3780.623 753.845 3764.365 753.935 3759.33 754.732 3754.48 756.308 3749.938 758.623 3745.813 761.619 3712.245 795.046 3708.934 798.923 3706.27 803.27 3704.319 807.98 3703.128 812.938 3702.728 819.277 3550.747 819.295 3550.747 844.809 3146.5 844.791 2960.723 659.154 2956.598 656.157 2952.055 653.842 2947.206 652.266 2942.17 651.469 2875.316 651.369 1852.94 651.369 1851.277 644.533 1848.485 637.793 1844.673 631.573 1839.935 626.025 1834.388 621.287 1828.167 617.475 1821.427 614.684 1814.333 612.981 1807.06 612.408 1799.787 612.981 1792.694 614.684 1785.953 617.475 1779.733 621.287 1774.185 626.025 1769.447 631.573 1765.636 637.793 1762.844 644.533 1761.141 651.627 1760.568 658.9 1761.141 666.173 1762.844 673.267 1763.974 676.331 1721.75 676.328 1715.829 671.207 1709.608 667.395 1702.868 664.604 1695.774 662.9 1688.501 662.328 1681.228 662.9 1674.134 664.604 1667.394 667.395 1661.174 671.207 1655.626 675.945 1650.888 681.493 1647.077 687.713 1644.285 694.453 1642.582 701.547 1642.009 708.82 1642.582 716.093 1644.285 723.187 1647.077 729.927 1650.888 736.148 1655.626 741.695 1661.174 746.433 1667.394 750.245 1674.134 753.037 1681.228 754.74 1688.501 755.312 1695.774 754.74 1702.868 753.037 1709.608 750.245 1715.829 746.433 1721.734 741.308 1821.165 741.312 1816.285 747.244 1812.119 753.845 1789.406 753.935 1784.37 754.732 1779.521 756.308 1774.978 758.623 1770.853 761.62 1737.286 795.046 1733.974 798.923 1731.31 803.27 1729.359 807.98 1728.169 812.938 1727.769 818.272 1692.096 818.277 1692.096 819.317 1677.85 819.295 1675.907 812.894 1673.593 808.351 1670.596 804.226 1623.394 756.883 1578.563 712.193 1574.438 709.196 1569.895 706.881 1565.046 705.306 1560.01 704.508 1490.25 704.408 1490.272 684.335 1365.072 684.335 1365.075 584.335 1186.894 584.335 1186.894 687.319 1196.08 687.319 M 1913.876 836.32 1920.64 829.51 1926.773 821.069 1928.038 818.809 1936.644 818.819 1935.455 819.295 1935.455 874.234 1933.317 865.78 1929.324 856.14 1923.872 847.244 1917.096 839.31 1913.876 836.333 M 1913.876 936.32 1920.64 929.51 1926.773 921.069 1931.509 911.772 1934.734 901.849 1935.454 898.229 1935.455 974.207 1933.317 965.78 1929.324 956.14 1923.872 947.244 1917.096 939.31 1913.876 936.333 M 1238.486 1145.551 1234.559 1151.917 1231.768 1158.657 1230.065 1165.751 1229.492 1173.024 1230.065 1180.297 1231.768 1187.39 1234.559 1194.131 1238.371 1200.351 1243.109 1205.899 1248.657 1210.637 1254.877 1214.448 1261.617 1217.24 1268.711 1218.943 1275.984 1219.516 1283.257 1218.943 1290.351 1217.24 1297.091 1214.448 1303.312 1210.637 1308.859 1205.899 1313.597 1200.351 1317.409 1194.131 1320.22 1187.322 M 642.445 433.76 4082.016 433.76 4081.988 1337.921 642.394 1337.894 642.421 433.732" fill="none" stroke-width="25"/><path d="M 1401.181 1187.283 1401.181 1084.37 M 1401.181 1135.827 1490.236 1135.827 M 3612.672 1045.472 3612.672 987.52 M 3550.783 987.52 3612.672 987.52 M 3720.472 1045.472 3720.472 987.52 M 2628.42 1045.472 2628.42 987.52 M 2566.531 987.52 2628.42 987.52 M 2736.22 1045.472 2736.22 987.52 M 1754.021 1044.453 1754.021 986.501 M 1645.888 1045.472 1645.888 987.52 M 1583.999 987.52 1645.888 987.52 M 1017.701 1044.454 1017.701 986.501 M 955.812 986.501 1017.701 986.501 M 1126.9 1045.489 1126.9 987.537" fill="none" stroke-width="20"/><use xlink:href="#sKhkGDAMIhlVLaMdwbql_pad-18" x="1275.984" y="635.827"/><use xlink:href="#sKhkGDAMIhlVLaMdwbql_pad-18" x="1401.181" y="735.827"/><use xlink:href="#sKhkGDAMIhlVLaMdwbql_pad-18" x="1275.984" y="835.827"/><use xlink:href="#sKhkGDAMIhlVLaMdwbql_pad-18" x="1401.181" y="935.827"/><use xlink:href="#sKhkGDAMIhlVLaMdwbql_pad-18" x="1275.984" y="1035.827"/><use xlink:href="#sKhkGDAMIhlVLaMdwbql_pad-18" x="1401.181" y="1135.827"/><use xlink:href="#sKhkGDAMIhlVLaMdwbql_pad-33" x="3838.583" y="786.327"/><use xlink:href="#sKhkGDAMIhlVLaMdwbql_pad-33" x="3838.583" y="886.327"/><use xlink:href="#sKhkGDAMIhlVLaMdwbql_pad-33" x="3838.583" y="986.327"/><use xlink:href="#sKhkGDAMIhlVLaMdwbql_pad-34" x="3612.672" y="987.52"/><use xlink:href="#sKhkGDAMIhlVLaMdwbql_pad-34" x="3612.672" y="877.283"/><use xlink:href="#sKhkGDAMIhlVLaMdwbql_pad-34" x="3962.98" y="877.283"/><use xlink:href="#sKhkGDAMIhlVLaMdwbql_pad-34" x="3962.98" y="987.52"/><use xlink:href="#sKhkGDAMIhlVLaMdwbql_pad-34" x="3720.472" y="877.283"/><use xlink:href="#sKhkGDAMIhlVLaMdwbql_pad-34" x="3720.472" y="987.52"/><use xlink:href="#sKhkGDAMIhlVLaMdwbql_pad-33" x="2854.331" y="786.327"/><use xlink:href="#sKhkGDAMIhlVLaMdwbql_pad-33" x="2854.331" y="886.327"/><use xlink:href="#sKhkGDAMIhlVLaMdwbql_pad-33" x="2854.331" y="986.327"/><use xlink:href="#sKhkGDAMIhlVLaMdwbql_pad-34" x="2628.42" y="987.52"/><use xlink:href="#sKhkGDAMIhlVLaMdwbql_pad-34" x="2628.42" y="877.283"/><use xlink:href="#sKhkGDAMIhlVLaMdwbql_pad-34" x="2989.541" y="877.283"/><use xlink:href="#sKhkGDAMIhlVLaMdwbql_pad-34" x="2989.541" y="987.52"/><use xlink:href="#sKhkGDAMIhlVLaMdwbql_pad-34" x="2736.22" y="877.283"/><use xlink:href="#sKhkGDAMIhlVLaMdwbql_pad-34" x="2736.22" y="987.52"/><use xlink:href="#sKhkGDAMIhlVLaMdwbql_pad-33" x="1870.079" y="786.327"/><use xlink:href="#sKhkGDAMIhlVLaMdwbql_pad-33" x="1870.079" y="886.327"/><use xlink:href="#sKhkGDAMIhlVLaMdwbql_pad-33" x="1870.079" y="986.327"/><use xlink:href="#sKhkGDAMIhlVLaMdwbql_pad-34" x="1754.021" y="986.501"/><use xlink:href="#sKhkGDAMIhlVLaMdwbql_pad-34" x="1754.021" y="876.265"/><use xlink:href="#sKhkGDAMIhlVLaMdwbql_pad-34" x="1997.381" y="877.283"/><use xlink:href="#sKhkGDAMIhlVLaMdwbql_pad-34" x="1997.381" y="987.52"/><use xlink:href="#sKhkGDAMIhlVLaMdwbql_pad-34" x="1645.888" y="877.283"/><use xlink:href="#sKhkGDAMIhlVLaMdwbql_pad-34" x="1645.888" y="987.52"/><use xlink:href="#sKhkGDAMIhlVLaMdwbql_pad-33" x="885.827" y="786.327"/><use xlink:href="#sKhkGDAMIhlVLaMdwbql_pad-33" x="885.827" y="886.327"/><use xlink:href="#sKhkGDAMIhlVLaMdwbql_pad-33" x="885.827" y="986.327"/><use xlink:href="#sKhkGDAMIhlVLaMdwbql_pad-34" x="1017.701" y="986.501"/><use xlink:href="#sKhkGDAMIhlVLaMdwbql_pad-34" x="1017.701" y="876.265"/><use xlink:href="#sKhkGDAMIhlVLaMdwbql_pad-34" x="764.98" y="877.283"/><use xlink:href="#sKhkGDAMIhlVLaMdwbql_pad-34" x="764.98" y="987.52"/><use xlink:href="#sKhkGDAMIhlVLaMdwbql_pad-34" x="1126.9" y="877.301"/><use xlink:href="#sKhkGDAMIhlVLaMdwbql_pad-34" x="1126.9" y="987.537"/></g><g id="XYKVCTIlLFFP8jWfcOxo_top_drill1"><use xlink:href="#ZF7oz1qLcF3-_PGjh277_pad-1" x="743.1" y="1211.1"/><use xlink:href="#ZF7oz1qLcF3-_PGjh277_pad-1" x="942.8" y="1130"/><use xlink:href="#ZF7oz1qLcF3-_PGjh277_pad-1" x="1276" y="1173"/><use xlink:href="#ZF7oz1qLcF3-_PGjh277_pad-1" x="1535.6" y="936.6"/><use xlink:href="#ZF7oz1qLcF3-_PGjh277_pad-1" x="1404.6" y="836.7"/><use xlink:href="#ZF7oz1qLcF3-_PGjh277_pad-1" x="1688.5" y="708.8"/><use xlink:href="#ZF7oz1qLcF3-_PGjh277_pad-1" x="1807.1" y="658.9"/><use xlink:href="#ZF7oz1qLcF3-_PGjh277_pad-1" x="1732.2" y="1211.1"/><use xlink:href="#ZF7oz1qLcF3-_PGjh277_pad-1" x="1997.4" y="1211.1"/><use xlink:href="#ZF7oz1qLcF3-_PGjh277_pad-1" x="2711.9" y="1211.1"/><use xlink:href="#ZF7oz1qLcF3-_PGjh277_pad-1" x="2989.5" y="1211.1"/><use xlink:href="#ZF7oz1qLcF3-_PGjh277_pad-1" x="3697.8" y="1211.1"/><use xlink:href="#ZF7oz1qLcF3-_PGjh277_pad-1" x="3959.9" y="1211.1"/><use xlink:href="#ZF7oz1qLcF3-_PGjh277_pad-2" x="3838.6" y="786.3"/><use xlink:href="#ZF7oz1qLcF3-_PGjh277_pad-2" x="3838.6" y="886.3"/><use xlink:href="#ZF7oz1qLcF3-_PGjh277_pad-2" x="3838.6" y="986.3"/><use xlink:href="#ZF7oz1qLcF3-_PGjh277_pad-2" x="2854.3" y="986.3"/><use xlink:href="#ZF7oz1qLcF3-_PGjh277_pad-2" x="2854.3" y="886.3"/><use xlink:href="#ZF7oz1qLcF3-_PGjh277_pad-2" x="2854.3" y="786.3"/><use xlink:href="#ZF7oz1qLcF3-_PGjh277_pad-2" x="1870.1" y="786.3"/><use xlink:href="#ZF7oz1qLcF3-_PGjh277_pad-2" x="1870.1" y="886.3"/><use xlink:href="#ZF7oz1qLcF3-_PGjh277_pad-2" x="1870.1" y="986.3"/><use xlink:href="#ZF7oz1qLcF3-_PGjh277_pad-2" x="885.8" y="986.3"/><use xlink:href="#ZF7oz1qLcF3-_PGjh277_pad-2" x="885.8" y="886.3"/><use xlink:href="#ZF7oz1qLcF3-_PGjh277_pad-2" x="885.8" y="786.3"/><use xlink:href="#ZF7oz1qLcF3-_PGjh277_pad-3" x="511.8" y="511.8"/><use xlink:href="#ZF7oz1qLcF3-_PGjh277_pad-3" x="511.8" y="1259.8"/><use xlink:href="#ZF7oz1qLcF3-_PGjh277_pad-3" x="4212.6" y="1259.8"/><use xlink:href="#ZF7oz1qLcF3-_PGjh277_pad-3" x="4212.6" y="511.8"/></g><clipPath id="XYKVCTIlLFFP8jWfcOxo_top_outline"><path d="M 393.701 393.701 4330.709 393.701 4330.709 1377.953 393.701 1377.953 393.701 393.701" fill="none" stroke-width="5.512"/></clipPath><mask id="XYKVCTIlLFFP8jWfcOxo_top_mech-mask"><g fill="#000" stroke="#000"><rect x="393.701" y="393.701" width="3937.008" height="984.252" fill="#fff"/><use xlink:href="#XYKVCTIlLFFP8jWfcOxo_top_drill1"/></g></mask><mask id="XYKVCTIlLFFP8jWfcOxo_top_cf-mask"><g fill="#fff" stroke="#fff"><use xlink:href="#XYKVCTIlLFFP8jWfcOxo_top_soldermask"/></g></mask><mask id="XYKVCTIlLFFP8jWfcOxo_top_sm-mask"><g fill="#000" stroke="#000"><rect x="393.701" y="393.701" width="3937.008" height="984.252" fill="#fff"/><use xlink:href="#XYKVCTIlLFFP8jWfcOxo_top_soldermask"/></g></mask></defs><g transform="translate(0,1771.654) scale(1,-1)"><g mask="url(#XYKVCTIlLFFP8jWfcOxo_top_mech-mask)" clip-path="url(#XYKVCTIlLFFP8jWfcOxo_top_outline)"><rect x="393.701" y="393.701" width="3937.008" height="984.252" fill="currentColor" class="XYKVCTIlLFFP8jWfcOxo_fr4"/><use xlink:href="#XYKVCTIlLFFP8jWfcOxo_top_copper" fill="currentColor" stroke="currentColor" class="XYKVCTIlLFFP8jWfcOxo_cu"/><use xlink:href="#XYKVCTIlLFFP8jWfcOxo_top_copper" fill="currentColor" stroke="currentColor" class="XYKVCTIlLFFP8jWfcOxo_cf" mask="url(#XYKVCTIlLFFP8jWfcOxo_top_cf-mask)"/><g mask="url(#XYKVCTIlLFFP8jWfcOxo_top_sm-mask)"><rect x="393.701" y="393.701" width="3937.008" height="984.252" fill="currentColor" class="XYKVCTIlLFFP8jWfcOxo_sm"/><use xlink:href="#XYKVCTIlLFFP8jWfcOxo_top_silkscreen" fill="currentColor" stroke="currentColor" class="XYKVCTIlLFFP8jWfcOxo_ss"/></g></g></g></svg>