G04 DipTrace 3.3.1.3*
G04 Bottom.gbr*
%MOIN*%
G04 #@! TF.FileFunction,Copper,L2,Bot*
G04 #@! TF.Part,Single*
G04 #@! TA.AperFunction,Conductor*
%ADD13C,0.022*%
%ADD14C,0.012*%
G04 #@! TA.AperFunction,CopperBalancing*
%ADD15C,0.025*%
%ADD16C,0.02*%
G04 #@! TA.AperFunction,ComponentPad*
%ADD33C,0.08*%
%ADD35R,0.062992X0.070866*%
G04 #@! TA.AperFunction,ViaPad*
%ADD36C,0.04*%
%FSLAX26Y26*%
G04*
G70*
G90*
G75*
G01*
G04 Bottom*
%LPD*%
X830709Y1212396D2*
D13*
X744396D1*
X1814961D2*
X1732181D1*
Y1211140D1*
X2799213Y1212396D2*
X2713117D1*
X2711861Y1211140D1*
X3783465Y1212396D2*
X3699037D1*
X3697781Y1211140D1*
X3959861D2*
D14*
X3894957D1*
X3893701Y1212396D1*
X2989541Y1211140D2*
X2910705D1*
X2909449Y1212396D1*
X1997381Y1211140D2*
X1926453D1*
X1925197Y1212396D1*
X942820Y1130021D2*
Y1214272D1*
X940945Y1212396D1*
X1807060Y658900D2*
Y665142D1*
X1535621Y936581D1*
X1688501Y708820D2*
Y743139D1*
X1594900Y836740D1*
X1404581D1*
X1275984Y1173024D2*
D13*
X1392101Y1289140D1*
X2062900D1*
X2649461D1*
X3373302D1*
X3772661Y889781D1*
X3835129D1*
X3838583Y886327D1*
X885827D2*
X992407D1*
X1279104Y1173024D1*
X1275984D1*
X1870079Y886327D2*
X1931526D1*
X2062900Y1017701D1*
Y1289140D1*
X2854331Y886327D2*
X2787075D1*
X2649461Y1023941D1*
Y1289140D1*
D36*
X3959861Y1211140D3*
X2989541D3*
X1997381D3*
X942820Y1130021D3*
X1807060Y658900D3*
X1535621Y936581D3*
X1688501Y708820D3*
X1404581Y836740D3*
X1275984Y1173024D3*
D3*
X743140Y1211140D3*
X1732181D3*
X2711861D3*
X3697781D3*
X644940Y1313025D2*
D15*
X1360458D1*
X3404936D2*
X4079474D1*
X644940Y1288156D2*
X1335591D1*
X3429803D2*
X4079474D1*
X644940Y1263287D2*
X770235D1*
X1001449D2*
X1310722D1*
X3454671D2*
X3722965D1*
X3954178D2*
X4079474D1*
X644940Y1238419D2*
X770235D1*
X1001449D2*
X1285854D1*
X1396892D2*
X1754466D1*
X2102878D2*
X2609479D1*
X2689441D2*
X2738734D1*
X3029694D2*
X3368501D1*
X3479539D2*
X3722965D1*
X4000003D2*
X4079474D1*
X644940Y1213550D2*
X770235D1*
X1001449D2*
X1250688D1*
X1372025D2*
X1754466D1*
X2102878D2*
X2609479D1*
X2689441D2*
X2738734D1*
X3038486D2*
X3393369D1*
X3504407D2*
X3722965D1*
X4008794D2*
X4079474D1*
X644940Y1188681D2*
X770235D1*
X1001449D2*
X1229696D1*
X1347157D2*
X1754466D1*
X2102878D2*
X2609479D1*
X2689441D2*
X2738734D1*
X3032744D2*
X3418236D1*
X3529274D2*
X3722965D1*
X4003052D2*
X4079474D1*
X644940Y1163812D2*
X770235D1*
X1001449D2*
X1214373D1*
X1324047D2*
X1754466D1*
X1985680D2*
X2022916D1*
X2102878D2*
X2609479D1*
X2689441D2*
X2738734D1*
X2969948D2*
X3443104D1*
X3554142D2*
X3722965D1*
X3954178D2*
X4079474D1*
X644940Y1138944D2*
X894681D1*
X990934D2*
X1189505D1*
X1310125D2*
X2022916D1*
X2102878D2*
X2609479D1*
X2689441D2*
X3467972D1*
X3579009D2*
X4079474D1*
X644940Y1114075D2*
X896655D1*
X988997D2*
X1164638D1*
X1275676D2*
X2022916D1*
X2102878D2*
X2609479D1*
X2689441D2*
X3492840D1*
X3603878D2*
X4079474D1*
X644940Y1089206D2*
X918042D1*
X967573D2*
X1139770D1*
X1250808D2*
X2022916D1*
X2102878D2*
X2609479D1*
X2689441D2*
X3517707D1*
X3628745D2*
X4079474D1*
X644940Y1064337D2*
X1114903D1*
X1225940D2*
X2022916D1*
X2102878D2*
X2609479D1*
X2689441D2*
X3542575D1*
X3653613D2*
X4079474D1*
X644940Y1039469D2*
X843366D1*
X928281D2*
X1090034D1*
X1201072D2*
X1827598D1*
X1912549D2*
X2022916D1*
X2102878D2*
X2609479D1*
X2689441D2*
X2811865D1*
X2896780D2*
X3567442D1*
X3678480D2*
X3796133D1*
X3881047D2*
X4079474D1*
X644940Y1014600D2*
X823129D1*
X948520D2*
X1065167D1*
X1176205D2*
X1807395D1*
X1932751D2*
X2004291D1*
X2102770D2*
X2610663D1*
X2714308D2*
X2791663D1*
X2917018D2*
X3592311D1*
X3703348D2*
X3775894D1*
X3901249D2*
X4079474D1*
X644940Y989731D2*
X816920D1*
X954727D2*
X1040299D1*
X1151337D2*
X1801188D1*
X1938995D2*
X1979424D1*
X2090462D2*
X2628138D1*
X2739176D2*
X2785419D1*
X2923226D2*
X3617178D1*
X3728217D2*
X3769686D1*
X3907493D2*
X4079474D1*
X644940Y964862D2*
X820400D1*
X951247D2*
X1015432D1*
X1126469D2*
X1496207D1*
X1575021D2*
X1804633D1*
X1935514D2*
X1954556D1*
X2065594D2*
X2653007D1*
X2764043D2*
X2788899D1*
X2919745D2*
X3642046D1*
X3753119D2*
X3773167D1*
X3904013D2*
X4079474D1*
X644940Y939993D2*
X835651D1*
X936031D2*
X990563D1*
X1101601D2*
X1486770D1*
X1584495D2*
X1819883D1*
X2040727D2*
X2677874D1*
X2788948D2*
X2804151D1*
X2904530D2*
X3666913D1*
X3888762D2*
X4079474D1*
X644940Y915125D2*
X823379D1*
X1076734D2*
X1491866D1*
X1605524D2*
X1807647D1*
X2015858D2*
X2702741D1*
X2916766D2*
X3691782D1*
X3900999D2*
X4079474D1*
X644940Y890256D2*
X816955D1*
X1051866D2*
X1529185D1*
X1630391D2*
X1801188D1*
X1990991D2*
X2727609D1*
X2923190D2*
X3716650D1*
X3907458D2*
X4079474D1*
X644940Y865387D2*
X820222D1*
X1026999D2*
X1365446D1*
X1655259D2*
X1804453D1*
X1966123D2*
X2752478D1*
X2919925D2*
X3741517D1*
X3904192D2*
X4079474D1*
X644940Y840518D2*
X835150D1*
X936534D2*
X1355757D1*
X1680126D2*
X1819381D1*
X1920765D2*
X2803648D1*
X2905033D2*
X3787879D1*
X3889264D2*
X4079474D1*
X644940Y815650D2*
X823667D1*
X948017D2*
X1360638D1*
X1704993D2*
X1807898D1*
X1932248D2*
X2792165D1*
X2916516D2*
X3776396D1*
X3900747D2*
X4079474D1*
X644940Y790781D2*
X816992D1*
X954656D2*
X1395050D1*
X1414089D2*
X1592413D1*
X1729862D2*
X1801223D1*
X1938923D2*
X2785491D1*
X2923190D2*
X3769722D1*
X3907421D2*
X4079474D1*
X644940Y765912D2*
X820042D1*
X951605D2*
X1617281D1*
X1754730D2*
X1804310D1*
X1935873D2*
X2788541D1*
X2920104D2*
X3772808D1*
X3904371D2*
X4079474D1*
X644940Y741043D2*
X834647D1*
X937000D2*
X1642148D1*
X1779597D2*
X1818878D1*
X1921268D2*
X2803146D1*
X2905535D2*
X3787377D1*
X3889766D2*
X4079474D1*
X644940Y716175D2*
X1640104D1*
X1804465D2*
X4079474D1*
X644940Y691306D2*
X1642938D1*
X1842896D2*
X4079474D1*
X644940Y666437D2*
X1666908D1*
X1710126D2*
X1757301D1*
X1855420D2*
X4079474D1*
X644940Y641568D2*
X1761428D1*
X1852693D2*
X4079474D1*
X644940Y616699D2*
X1785039D1*
X1829081D2*
X4079474D1*
X644940Y591831D2*
X4079474D1*
X644940Y566962D2*
X4079474D1*
X644940Y542093D2*
X4079474D1*
X644940Y517224D2*
X4079474D1*
X644940Y492356D2*
X4079474D1*
X644940Y467487D2*
X4079474D1*
X644940Y442618D2*
X4079474D1*
X3904870Y781110D2*
X3903238Y770804D1*
X3900013Y760882D1*
X3895277Y751585D1*
X3889143Y743143D1*
X3881766Y735766D1*
X3873324Y729633D1*
X3864028Y724896D1*
X3854105Y721672D1*
X3843799Y720039D1*
X3833366D1*
X3823060Y721672D1*
X3813138Y724896D1*
X3803841Y729633D1*
X3795399Y735766D1*
X3788022Y743143D1*
X3781888Y751585D1*
X3777152Y760882D1*
X3773928Y770804D1*
X3772295Y781110D1*
Y791543D1*
X3773928Y801849D1*
X3777152Y811772D1*
X3781888Y821068D1*
X3788022Y829510D1*
X3794786Y836320D1*
X3788022Y843143D1*
X3781888Y851585D1*
X3781500Y852278D1*
X3769719Y852404D1*
X3763909Y853324D1*
X3758314Y855143D1*
X3753072Y857814D1*
X3748312Y861272D1*
X3713672Y895748D1*
X3357751Y1251669D1*
X3012343Y1251648D1*
X3016867Y1248753D1*
X3022416Y1244016D1*
X3027154Y1238467D1*
X3030966Y1232248D1*
X3033757Y1225508D1*
X3035461Y1218413D1*
X3036033Y1211140D1*
X3035461Y1203867D1*
X3033757Y1196773D1*
X3030966Y1190033D1*
X3027154Y1183814D1*
X3022416Y1178265D1*
X3016867Y1173528D1*
X3010648Y1169715D1*
X3003908Y1166924D1*
X2996814Y1165220D1*
X2989541Y1164648D1*
X2982268Y1165220D1*
X2975173Y1166924D1*
X2968433Y1169715D1*
X2967427Y1170280D1*
X2967437Y1150471D1*
X2741224D1*
Y1251643D1*
X2686945Y1251648D1*
X2686953Y1039495D1*
X2800735Y925688D1*
X2807314Y933344D1*
X2810534Y936320D1*
X2803770Y943143D1*
X2797636Y951585D1*
X2792900Y960882D1*
X2789676Y970804D1*
X2788043Y981110D1*
Y991543D1*
X2789676Y1001849D1*
X2792900Y1011772D1*
X2797636Y1021068D1*
X2803770Y1029510D1*
X2811147Y1036887D1*
X2819589Y1043021D1*
X2828886Y1047757D1*
X2838808Y1050982D1*
X2849114Y1052614D1*
X2859547D1*
X2869853Y1050982D1*
X2879776Y1047757D1*
X2889072Y1043021D1*
X2897514Y1036887D1*
X2904891Y1029510D1*
X2911025Y1021068D1*
X2915761Y1011772D1*
X2918986Y1001849D1*
X2920618Y991543D1*
Y981110D1*
X2918986Y970804D1*
X2915761Y960882D1*
X2911025Y951585D1*
X2904891Y943143D1*
X2898127Y936333D1*
X2904891Y929510D1*
X2911025Y921068D1*
X2915761Y911772D1*
X2918986Y901849D1*
X2920618Y891543D1*
Y881110D1*
X2918986Y870804D1*
X2915761Y860882D1*
X2911025Y851585D1*
X2904891Y843143D1*
X2898127Y836333D1*
X2904891Y829510D1*
X2911025Y821068D1*
X2915761Y811772D1*
X2918986Y801849D1*
X2920618Y791543D1*
Y781110D1*
X2918986Y770804D1*
X2915761Y760882D1*
X2911025Y751585D1*
X2904891Y743143D1*
X2897514Y735766D1*
X2889072Y729633D1*
X2879776Y724896D1*
X2869853Y721672D1*
X2859547Y720039D1*
X2849114D1*
X2838808Y721672D1*
X2828886Y724896D1*
X2819589Y729633D1*
X2811147Y735766D1*
X2803770Y743143D1*
X2797636Y751585D1*
X2792900Y760882D1*
X2789676Y770804D1*
X2788043Y781110D1*
Y791543D1*
X2789676Y801849D1*
X2792900Y811772D1*
X2797636Y821068D1*
X2803770Y829510D1*
X2810534Y836320D1*
X2803770Y843143D1*
X2799484Y848820D1*
X2784133Y848950D1*
X2778323Y849870D1*
X2772727Y851689D1*
X2767486Y854360D1*
X2762726Y857818D1*
X2728085Y892294D1*
X2620951Y999592D1*
X2617493Y1004352D1*
X2614823Y1009593D1*
X2613004Y1015189D1*
X2612084Y1020999D1*
X2611969Y1069873D1*
Y1251626D1*
X2100396Y1251648D1*
X2100277Y1014759D1*
X2099357Y1008949D1*
X2097538Y1003353D1*
X2094867Y998112D1*
X2091409Y993352D1*
X2056933Y958711D1*
X1955875Y857818D1*
X1951115Y854360D1*
X1945874Y851689D1*
X1940278Y849870D1*
X1934467Y848950D1*
X1931514Y848835D1*
X1923871Y847244D1*
X1917096Y839310D1*
X1913875Y836333D1*
X1920639Y829510D1*
X1926773Y821068D1*
X1931509Y811772D1*
X1934734Y801849D1*
X1936366Y791543D1*
Y781110D1*
X1934734Y770804D1*
X1931509Y760882D1*
X1926773Y751585D1*
X1920639Y743143D1*
X1913262Y735766D1*
X1904820Y729633D1*
X1895524Y724896D1*
X1885601Y721672D1*
X1875295Y720039D1*
X1864862D1*
X1854556Y721672D1*
X1844634Y724896D1*
X1835337Y729633D1*
X1826895Y735766D1*
X1819518Y743143D1*
X1813385Y751585D1*
X1808648Y760882D1*
X1805424Y770804D1*
X1803791Y781110D1*
Y791543D1*
X1805424Y801849D1*
X1808648Y811772D1*
X1813385Y821068D1*
X1819518Y829510D1*
X1826282Y836320D1*
X1819518Y843143D1*
X1813385Y851585D1*
X1808648Y860882D1*
X1805424Y870804D1*
X1803791Y881110D1*
Y891543D1*
X1805424Y901849D1*
X1808648Y911772D1*
X1813385Y921068D1*
X1819518Y929510D1*
X1826282Y936320D1*
X1819518Y943143D1*
X1813385Y951585D1*
X1808648Y960882D1*
X1805424Y970804D1*
X1803791Y981110D1*
Y991543D1*
X1805424Y1001849D1*
X1808648Y1011772D1*
X1813385Y1021068D1*
X1819518Y1029510D1*
X1826895Y1036887D1*
X1835337Y1043021D1*
X1844634Y1047757D1*
X1854556Y1050982D1*
X1864862Y1052614D1*
X1875295D1*
X1885601Y1050982D1*
X1895524Y1047757D1*
X1904820Y1043021D1*
X1913262Y1036887D1*
X1920639Y1029510D1*
X1926773Y1021068D1*
X1931509Y1011772D1*
X1934734Y1001849D1*
X1936366Y991543D1*
Y981110D1*
X1934734Y970804D1*
X1931509Y960882D1*
X1926773Y951585D1*
X1920639Y943143D1*
X1913875Y936333D1*
X1920639Y929510D1*
X1921106Y928917D1*
X2025415Y1033238D1*
X2025408Y1174049D1*
X2018488Y1169715D1*
X2011748Y1166924D1*
X2004654Y1165220D1*
X1997381Y1164648D1*
X1990108Y1165220D1*
X1983192Y1166874D1*
X1983185Y1150471D1*
X1756972D1*
Y1251643D1*
X1407619Y1251648D1*
X1321904Y1165751D1*
X1320201Y1158656D1*
X1317409Y1151916D1*
X1313597Y1145697D1*
X1308860Y1140148D1*
X1303311Y1135411D1*
X1297092Y1131598D1*
X1290352Y1128807D1*
X1286961Y1127850D1*
X1016756Y857818D1*
X1011996Y854360D1*
X1006755Y851689D1*
X1001159Y849870D1*
X995348Y848950D1*
X946475Y848835D1*
X940769D1*
X936387Y843143D1*
X929623Y836333D1*
X936387Y829510D1*
X942521Y821068D1*
X947257Y811772D1*
X950482Y801849D1*
X952114Y791543D1*
Y781110D1*
X950482Y770804D1*
X947257Y760882D1*
X942521Y751585D1*
X936387Y743143D1*
X929010Y735766D1*
X920568Y729633D1*
X911272Y724896D1*
X901349Y721672D1*
X891043Y720039D1*
X880610D1*
X870304Y721672D1*
X860382Y724896D1*
X851085Y729633D1*
X842643Y735766D1*
X835266Y743143D1*
X829133Y751585D1*
X824396Y760882D1*
X821172Y770804D1*
X819539Y781110D1*
Y791543D1*
X821172Y801849D1*
X824396Y811772D1*
X829133Y821068D1*
X835266Y829510D1*
X842030Y836320D1*
X835266Y843143D1*
X829133Y851585D1*
X824396Y860882D1*
X821172Y870804D1*
X819539Y881110D1*
Y891543D1*
X821172Y901849D1*
X824396Y911772D1*
X829133Y921068D1*
X835266Y929510D1*
X842030Y936320D1*
X835266Y943143D1*
X829133Y951585D1*
X824396Y960882D1*
X821172Y970804D1*
X819539Y981110D1*
Y991543D1*
X821172Y1001849D1*
X824396Y1011772D1*
X829133Y1021068D1*
X835266Y1029510D1*
X842643Y1036887D1*
X851085Y1043021D1*
X860382Y1047757D1*
X870304Y1050982D1*
X880610Y1052614D1*
X891043D1*
X901349Y1050982D1*
X911272Y1047757D1*
X920568Y1043021D1*
X929010Y1036887D1*
X936387Y1029510D1*
X942521Y1021068D1*
X947257Y1011772D1*
X950482Y1001849D1*
X952114Y991543D1*
Y981110D1*
X950482Y970804D1*
X947257Y960882D1*
X942521Y951585D1*
X936387Y943143D1*
X929623Y936333D1*
X936387Y929510D1*
X940673Y923833D1*
X976865Y923819D1*
X1229635Y1176672D1*
X1230777Y1183877D1*
X1233031Y1190815D1*
X1236344Y1197316D1*
X1240631Y1203218D1*
X1245790Y1208377D1*
X1251692Y1212664D1*
X1258193Y1215976D1*
X1265131Y1218231D1*
X1268961Y1219022D1*
X1367752Y1317650D1*
X1372512Y1321108D1*
X1377753Y1323778D1*
X1383349Y1325597D1*
X1389159Y1326517D1*
X1438033Y1326633D1*
X3376244Y1326517D1*
X3382054Y1325597D1*
X3387650Y1323778D1*
X3392891Y1321108D1*
X3397651Y1317650D1*
X3432291Y1283173D1*
X3787096Y928369D1*
X3791566Y933344D1*
X3794786Y936320D1*
X3788022Y943143D1*
X3781888Y951585D1*
X3777152Y960882D1*
X3773928Y970804D1*
X3772295Y981110D1*
Y991543D1*
X3773928Y1001849D1*
X3777152Y1011772D1*
X3781888Y1021068D1*
X3788022Y1029510D1*
X3795399Y1036887D1*
X3803841Y1043021D1*
X3813138Y1047757D1*
X3823060Y1050982D1*
X3833366Y1052614D1*
X3843799D1*
X3854105Y1050982D1*
X3864028Y1047757D1*
X3873324Y1043021D1*
X3881766Y1036887D1*
X3889143Y1029510D1*
X3895277Y1021068D1*
X3900013Y1011772D1*
X3903238Y1001849D1*
X3904870Y991543D1*
Y981110D1*
X3903238Y970804D1*
X3900013Y960882D1*
X3895277Y951585D1*
X3889143Y943143D1*
X3882379Y936333D1*
X3889143Y929510D1*
X3895277Y921068D1*
X3900013Y911772D1*
X3903238Y901849D1*
X3904870Y891543D1*
Y881110D1*
X3903238Y870804D1*
X3900013Y860882D1*
X3895277Y851585D1*
X3889143Y843143D1*
X3882379Y836333D1*
X3889143Y829510D1*
X3895277Y821068D1*
X3900013Y811772D1*
X3903238Y801849D1*
X3904870Y791543D1*
Y781110D1*
X3844899Y1274322D2*
X3951689D1*
Y1256917D1*
X3959861Y1257633D1*
X3967134Y1257060D1*
X3974228Y1255357D1*
X3980969Y1252566D1*
X3987188Y1248753D1*
X3992736Y1244016D1*
X3997474Y1238467D1*
X4001286Y1232248D1*
X4004077Y1225508D1*
X4005781Y1218413D1*
X4006353Y1211140D1*
X4005781Y1203867D1*
X4004077Y1196773D1*
X4001286Y1190033D1*
X3997474Y1183814D1*
X3992736Y1178265D1*
X3987188Y1173528D1*
X3980969Y1169715D1*
X3974228Y1166924D1*
X3967134Y1165220D1*
X3959861Y1164648D1*
X3952588Y1165220D1*
X3951678Y1165402D1*
X3951689Y1150471D1*
X3725476D1*
Y1274322D1*
X3844899D1*
X892143D2*
X998933D1*
Y1150471D1*
X984543D1*
X987038Y1144387D1*
X988740Y1137294D1*
X989312Y1130021D1*
X988740Y1122748D1*
X987038Y1115654D1*
X984245Y1108913D1*
X980434Y1102693D1*
X975696Y1097146D1*
X970148Y1092408D1*
X963928Y1088596D1*
X957188Y1085804D1*
X950093Y1084101D1*
X942820Y1083529D1*
X935547Y1084101D1*
X928454Y1085804D1*
X921714Y1088596D1*
X915493Y1092408D1*
X909946Y1097146D1*
X905207Y1102693D1*
X901396Y1108913D1*
X898604Y1115654D1*
X896902Y1122748D1*
X896328Y1130021D1*
X896902Y1137294D1*
X898604Y1144387D1*
X901092Y1150467D1*
X772720Y1150471D1*
Y1274322D1*
X892143D1*
X1761020Y665231D2*
X1732500Y693752D1*
X1729927Y687713D1*
X1726114Y681493D1*
X1721377Y675945D1*
X1715828Y671207D1*
X1709609Y667395D1*
X1702869Y664604D1*
X1695774Y662900D1*
X1688501Y662328D1*
X1681228Y662900D1*
X1674134Y664604D1*
X1667394Y667395D1*
X1661175Y671207D1*
X1655626Y675945D1*
X1650888Y681493D1*
X1647076Y687713D1*
X1644285Y694453D1*
X1642581Y701547D1*
X1642009Y708820D1*
X1642581Y716093D1*
X1644285Y723188D1*
X1647076Y729928D1*
X1650341Y735329D1*
X1581462Y804227D1*
X1437835Y804248D1*
X1431908Y799127D1*
X1425689Y795315D1*
X1418949Y792524D1*
X1411854Y790820D1*
X1404581Y790248D1*
X1397308Y790820D1*
X1390214Y792524D1*
X1383474Y795315D1*
X1377255Y799127D1*
X1371706Y803865D1*
X1366969Y809413D1*
X1363156Y815633D1*
X1360365Y822373D1*
X1358661Y829467D1*
X1358089Y836740D1*
X1358661Y844013D1*
X1360365Y851108D1*
X1363156Y857848D1*
X1366969Y864067D1*
X1371706Y869615D1*
X1377255Y874353D1*
X1383474Y878165D1*
X1390214Y880957D1*
X1397308Y882660D1*
X1404581Y883232D1*
X1411854Y882660D1*
X1418949Y880957D1*
X1425689Y878165D1*
X1431908Y874353D1*
X1437815Y869227D1*
X1557054Y869232D1*
X1536156Y890096D1*
X1528348Y890661D1*
X1521253Y892365D1*
X1514513Y895156D1*
X1508294Y898969D1*
X1502745Y903706D1*
X1498008Y909255D1*
X1494196Y915474D1*
X1491404Y922214D1*
X1489701Y929308D1*
X1489129Y936581D1*
X1489701Y943854D1*
X1491404Y950949D1*
X1494196Y957689D1*
X1498008Y963908D1*
X1502745Y969457D1*
X1508294Y974194D1*
X1514513Y978007D1*
X1521253Y980798D1*
X1528348Y982501D1*
X1535621Y983073D1*
X1542894Y982501D1*
X1549988Y980798D1*
X1556728Y978007D1*
X1562948Y974194D1*
X1568496Y969457D1*
X1573234Y963908D1*
X1577046Y957689D1*
X1579837Y950949D1*
X1581541Y943854D1*
X1582092Y936054D1*
X1813173Y704980D1*
X1817913Y704108D1*
X1824852Y701853D1*
X1831353Y698541D1*
X1837255Y694253D1*
X1842413Y689094D1*
X1846701Y683193D1*
X1850013Y676692D1*
X1852268Y669753D1*
X1853409Y662549D1*
Y655252D1*
X1852268Y648047D1*
X1850013Y641109D1*
X1846701Y634608D1*
X1842413Y628706D1*
X1837255Y623547D1*
X1831353Y619260D1*
X1824852Y615948D1*
X1817913Y613693D1*
X1810709Y612551D1*
X1803412D1*
X1796207Y613693D1*
X1789269Y615948D1*
X1782768Y619260D1*
X1776866Y623547D1*
X1771707Y628706D1*
X1767420Y634608D1*
X1764108Y641109D1*
X1761853Y648047D1*
X1760711Y655252D1*
Y662549D1*
X1761029Y665224D1*
X1321925Y1165934D2*
X1320201Y1158656D1*
X1317409Y1151916D1*
X1313597Y1145697D1*
X1308860Y1140148D1*
X1303311Y1135411D1*
X1297092Y1131598D1*
X1290352Y1128807D1*
X1286961Y1127850D1*
X1229631Y1176572D2*
X1230777Y1183877D1*
X1233031Y1190815D1*
X1236344Y1197316D1*
X1240631Y1203218D1*
X1245790Y1208377D1*
X1251692Y1212664D1*
X1258193Y1215976D1*
X1265131Y1218231D1*
X1268895Y1218965D1*
X642445Y433760D2*
X4082016D1*
X4081988Y1337921D1*
X642394Y1337894D1*
X642421Y433732D1*
X3783465Y1274286D2*
D16*
Y1150507D1*
X3725512Y1212396D2*
X3783465D1*
X2799213D2*
Y1150507D1*
X2741260Y1212396D2*
X2799213D1*
X1814961D2*
Y1150507D1*
X1757008Y1212396D2*
X1814961D1*
X830709Y1274286D2*
Y1150507D1*
X772756Y1212396D2*
X830709D1*
D33*
X3838583Y786327D3*
Y886327D3*
Y986327D3*
D35*
X3893701Y1212396D3*
X3783465D3*
D33*
X2854331Y786327D3*
Y886327D3*
Y986327D3*
D35*
X2909449Y1212396D3*
X2799213D3*
D33*
X1870079Y786327D3*
Y886327D3*
Y986327D3*
D35*
X1925197Y1212396D3*
X1814961D3*
D33*
X885827Y786327D3*
Y886327D3*
Y986327D3*
D35*
X940945Y1212396D3*
X830709D3*
M02*
