M48
INCH
T01C0.0191
T02C0.035
T03C0.1181
%
T01
X+007431Y+012111
X+009428Y+011300
X+012760Y+011730
X+015356Y+009366
X+014046Y+008367
X+016885Y+007088
X+018071Y+006589
X+017322Y+012111
X+019974Y+012111
X+027119Y+012111
X+029895Y+012111
X+036978Y+012111
X+039599Y+012111
T02
X+038386Y+007863
X+038386Y+008863
X+038386Y+009863
X+028543Y+009863
X+028543Y+008863
X+028543Y+007863
X+018701Y+007863
X+018701Y+008863
X+018701Y+009863
X+008858Y+009863
X+008858Y+008863
X+008858Y+007863
T03
X+005118Y+005118
X+005118Y+012598
X+042126Y+012598
X+042126Y+005118
T00
M30
