G04 DipTrace 3.3.1.3*
G04 TopSilk.gbr*
%MOIN*%
G04 #@! TF.FileFunction,Legend,Top*
G04 #@! TF.Part,Single*
%ADD10C,0.009843*%
%ADD17O,0.04467X0.043737*%
%ADD19C,0.015584*%
%ADD20C,0.032777*%
%ADD21C,0.012511*%
%ADD22C,0.012511*%
%ADD23C,0.012438*%
%ADD24C,0.012438*%
%ADD25C,0.013974*%
%ADD26O,0.015584X0.014044*%
%ADD27O,0.026485X0.032763*%
%ADD28O,0.007829X0.006247*%
%ADD29C,0.014047*%
%ADD30O,0.015657X0.014044*%
%ADD31O,0.012438X0.014044*%
%ADD32O,0.012438X0.010921*%
%ADD51C,0.004632*%
%ADD52C,0.009264*%
%ADD53C,0.111163*%
%ADD54C,0.006176*%
%ADD55C,0.021615*%
%FSLAX26Y26*%
G04*
G70*
G90*
G75*
G01*
G04 TopSilk*
%LPD*%
D17*
X1435911Y1213958D3*
X1289556Y680238D2*
D10*
Y790524D1*
Y585940D2*
Y593673D1*
Y585940D2*
X1387610D1*
Y692131D1*
Y778696D2*
Y892816D1*
X1289556Y880274D2*
Y990559D1*
X1387610Y978666D2*
Y1092852D1*
X1289556Y1080374D2*
Y1185850D1*
X1387610Y1178832D2*
Y1185850D1*
X1289556D1*
D19*
X3102644Y615215D3*
G36*
X2935720Y644854D2*
X3020079Y788620D1*
X3085707Y644854D1*
X2935720D1*
G37*
G36*
X3099535Y782130D2*
X3158798D1*
X3166626Y780579D1*
X3177528Y775905D1*
X3185356Y771231D1*
X3193112Y764984D1*
X3197794Y758737D1*
X3202477Y749389D1*
X3204013Y741569D1*
X3205623Y730671D1*
X3204013Y721300D1*
X3199331Y710379D1*
X3193112Y704133D1*
X3185356Y697908D1*
X3175991Y693212D1*
X3168163Y690110D1*
X3216524Y644854D1*
X3099535D1*
Y782130D1*
G37*
G36*
X3197794D2*
X3341342D1*
X3321075Y743142D1*
X3292980Y738468D1*
X3283615Y646427D1*
X3257057D1*
X3247692Y738468D1*
X3219670Y743142D1*
X3197794Y782130D1*
G37*
G36*
X3355389Y724424D2*
X3375656D1*
X3395922Y644854D1*
X3336659D1*
X3355389Y724424D1*
G37*
G36*
X3512912Y671370D2*
X3444284Y708829D1*
X3512912Y744693D1*
X3503547Y755614D1*
X3494182Y761861D1*
X3481744Y768108D1*
X3469233Y771231D1*
X3455185D1*
X3442747Y768108D1*
X3430236Y763411D1*
X3419335Y755614D1*
X3409970Y744693D1*
X3403751Y733772D1*
X3400605Y721300D1*
X3399068Y708829D1*
X3400605Y694785D1*
X3403751Y682291D1*
X3411506Y669819D1*
X3420871Y660471D1*
X3431773Y652651D1*
X3444284Y647977D1*
X3455185Y644854D1*
X3469233D1*
X3481744Y647977D1*
X3495791Y654224D1*
X3512912Y671370D1*
G37*
G36*
X3514448Y646427D2*
X3578467Y791500D1*
X3667361Y644854D1*
X3514448Y646427D1*
G37*
D20*
X3365486Y767321D3*
G36*
X3018396Y615215D2*
X3030907D1*
Y577778D1*
X3018396D1*
Y615215D1*
G37*
D21*
X3024651Y616776D3*
D22*
Y577778D3*
G36*
X3035589Y615215D2*
X3048027D1*
Y577778D1*
X3035589D1*
Y615215D1*
G37*
D23*
X3041808Y616776D3*
D24*
Y577778D3*
G36*
X3076122Y615215D2*
X3088633D1*
Y577778D1*
X3076122D1*
Y615215D1*
G37*
D21*
X3082378Y616776D3*
D22*
Y577778D3*
G36*
X3168163Y613664D2*
X3180674D1*
Y576227D1*
X3168163D1*
Y613664D1*
G37*
D21*
X3174418Y615226D3*
Y576216D3*
D25*
X3139299Y597272D3*
D26*
X3138495Y580126D3*
D19*
X3548799Y615215D3*
G36*
X3155652Y623012D2*
X3193112D1*
Y610541D1*
X3155652D1*
Y623012D1*
G37*
D21*
X3157225Y616776D3*
D23*
X3191575D3*
G36*
X3205623Y615215D2*
X3218061D1*
Y577778D1*
X3205623D1*
Y615215D1*
G37*
D23*
X3211842Y616776D3*
D24*
Y577778D3*
G36*
X3260203Y615215D2*
X3272714D1*
Y596496D1*
X3260203D1*
Y615215D1*
G37*
D21*
X3266459Y616776D3*
G36*
X3211842Y623012D2*
X3246156D1*
Y590249D1*
X3211842D1*
Y623012D1*
G37*
G36*
X3300736Y615215D2*
X3313247D1*
Y601170D1*
X3300736D1*
Y615215D1*
G37*
D21*
X3306991Y616776D3*
D27*
X3243814Y606631D3*
G36*
X3506693Y613664D2*
X3519131D1*
Y576227D1*
X3506693D1*
Y613664D1*
G37*
D23*
X3512912Y615226D3*
Y576216D3*
G36*
X3494182Y623012D2*
X3531642D1*
Y610541D1*
X3494182D1*
Y623012D1*
G37*
D21*
X3495755Y616776D3*
X3530069D3*
G36*
X3374046Y615215D2*
X3386557D1*
Y577778D1*
X3374046D1*
Y615215D1*
G37*
D21*
X3380302Y616776D3*
D22*
Y577778D3*
G36*
X3356926Y615215D2*
X3369437D1*
Y577778D1*
X3356926D1*
Y615215D1*
G37*
D21*
X3363181Y616776D3*
D22*
Y577778D3*
G36*
X3316393Y615215D2*
X3328831D1*
Y577778D1*
X3316393D1*
Y615215D1*
G37*
D23*
X3322612Y616776D3*
D24*
Y577778D3*
G36*
X3263349Y599620D2*
X3272714D1*
Y590249D1*
X3263349D1*
Y599620D1*
G37*
D28*
X3342110Y591822D3*
D29*
X3585490Y597272D3*
D30*
X3584686Y580126D3*
G36*
X3550372Y623012D2*
X3587832D1*
Y610541D1*
X3550372D1*
Y623012D1*
G37*
D23*
X3551908Y616776D3*
D21*
X3586259D3*
G36*
X3545689Y604294D2*
X3583149D1*
Y593373D1*
X3545689D1*
Y604294D1*
G37*
D31*
X3547226Y600395D3*
G36*
X3545689Y584025D2*
X3583149D1*
Y573104D1*
X3545689D1*
Y584025D1*
G37*
G36*
X3041808Y623012D2*
X3085487Y584025D1*
X3083951Y571531D1*
X3077659Y574654D1*
X3041808Y605867D1*
Y623012D1*
G37*
G36*
X3430236Y615215D2*
X3442747D1*
Y577778D1*
X3430236D1*
Y615215D1*
G37*
D21*
X3436492Y616776D3*
D22*
Y577778D3*
G36*
X3470769Y615215D2*
X3483280D1*
Y577778D1*
X3470769D1*
Y615215D1*
G37*
D21*
X3477025Y616776D3*
D22*
Y577778D3*
G36*
X3436455Y623012D2*
X3480134Y584025D1*
X3478598Y571531D1*
X3472379Y574654D1*
X3436455Y605867D1*
Y623012D1*
G37*
G36*
X3104217D2*
X3141604D1*
Y610541D1*
X3104217D1*
Y623012D1*
G37*
D23*
X3105754Y616776D3*
X3140068D3*
G36*
X3099535Y604294D2*
X3136995D1*
Y593373D1*
X3099535D1*
Y604294D1*
G37*
D31*
X3101071Y600395D3*
D32*
X3545689Y578564D3*
G36*
X3099535Y584025D2*
X3136995D1*
Y573104D1*
X3099535D1*
Y584025D1*
G37*
D32*
Y578564D3*
D23*
X3135385Y579340D3*
D22*
X3249265Y577778D3*
G36*
X3224353Y591822D2*
X3244619Y573104D1*
X3253984Y582452D1*
X3241473Y594946D1*
X3224353Y591822D1*
G37*
G36*
X3285152Y571531D2*
X3296053D1*
X3307028Y579351D1*
X3311710Y590249D1*
X3313247Y602743D1*
X3300736Y604294D1*
X3299199Y591822D1*
X3285152Y571531D1*
G37*
G36*
X3260203Y602743D2*
Y587148D1*
X3271104Y573104D1*
X3288298Y571531D1*
X3302345Y580901D1*
X3294517Y585575D1*
X3288298Y582452D1*
X3278933Y584025D1*
X3260203Y602743D1*
G37*
G36*
X3324148Y623012D2*
X3342878Y605867D1*
X3360072Y621461D1*
X3366291Y612091D1*
X3346024Y591822D1*
X3338196D1*
X3324148Y605867D1*
Y623012D1*
G37*
G36*
X3094852Y613664D2*
X3107290D1*
Y601170D1*
X3094852D1*
Y613664D1*
G37*
G36*
X3135385Y594946D2*
X3146287D1*
Y580901D1*
X3135385D1*
Y594946D1*
G37*
G36*
X3380338Y624585D2*
X3417725D1*
Y612091D1*
X3380338D1*
Y624585D1*
G37*
D24*
X3381875Y618338D3*
X3416189D3*
G36*
X3378729Y604294D2*
X3416189D1*
Y591822D1*
X3378729D1*
Y604294D1*
G37*
D21*
X3380302Y598058D3*
D23*
X3414652D3*
G36*
X3380338Y584025D2*
X3417725D1*
Y571531D1*
X3380338D1*
Y584025D1*
G37*
D24*
X3381875Y577778D3*
X3416189D3*
D21*
X3581576Y579340D3*
G36*
X3541007Y613664D2*
X3553444D1*
Y601170D1*
X3541007D1*
Y613664D1*
G37*
G36*
X3581539Y594946D2*
X3592514D1*
Y580901D1*
X3581539D1*
Y594946D1*
G37*
G36*
X3290624Y1288362D2*
X3317141D1*
X3321814Y1257164D1*
X3340544Y1249360D1*
X3365504Y1269650D1*
X3385771Y1249360D1*
X3365504Y1224405D1*
X3373311Y1207237D1*
X3404501Y1202554D1*
Y1174478D1*
X3373311Y1171357D1*
X3365504Y1152645D1*
X3384214Y1127673D1*
X3365504Y1108961D1*
X3340544Y1127673D1*
X3329621Y1123008D1*
X3314026Y1160449D1*
X3324949Y1169796D1*
X3332736Y1180721D1*
Y1193208D1*
X3329621Y1204115D1*
X3320256Y1211919D1*
X3309334Y1216601D1*
X3296854D1*
X3285931Y1210358D1*
X3279701Y1200994D1*
X3276586Y1188525D1*
X3279701Y1176039D1*
X3287509Y1165114D1*
X3295296Y1160449D1*
X3279701Y1123008D1*
X3268779Y1127673D1*
X3243819Y1108961D1*
X3225109Y1127673D1*
X3243819Y1154206D1*
X3236012Y1171357D1*
X3204822Y1174478D1*
Y1202554D1*
X3237589Y1205676D1*
X3243819Y1224405D1*
X3223551Y1249360D1*
X3243819Y1268089D1*
X3268779Y1249360D1*
X3287509Y1255603D1*
X3290624Y1288362D1*
G37*
X3657672Y1028402D2*
D10*
X3567672D1*
Y836402D1*
X3657672D1*
Y1028402D1*
X3917980Y836402D2*
X4007980D1*
Y1028402D1*
X3917980D1*
Y836402D1*
X3675472D2*
X3765472D1*
Y1028402D1*
X3675472D1*
Y836402D1*
X2673420Y1028402D2*
X2583420D1*
Y836402D1*
X2673420D1*
Y1028402D1*
X2944541Y836402D2*
X3034541D1*
Y1028402D1*
X2944541D1*
Y836402D1*
X2691220D2*
X2781220D1*
Y1028402D1*
X2691220D1*
Y836402D1*
X1799021Y1027383D2*
X1709021D1*
Y835383D1*
X1799021D1*
Y1027383D1*
X1952381Y836402D2*
X2042381D1*
Y1028402D1*
X1952381D1*
Y836402D1*
X1600888D2*
X1690888D1*
Y1028402D1*
X1600888D1*
Y836402D1*
X1062701Y1027383D2*
X972701D1*
Y835383D1*
X1062701D1*
Y1027383D1*
X719980Y836402D2*
X809980D1*
Y1028402D1*
X719980D1*
Y836402D1*
X1081900Y836419D2*
X1171900D1*
Y1028419D1*
X1081900D1*
Y836419D1*
X3565035Y820456D2*
D51*
X3567920Y821915D1*
X3572231Y826193D1*
Y796082D1*
X3590116Y826193D2*
X3585805Y824767D1*
X3582920Y820456D1*
X3581494Y813293D1*
Y808982D1*
X3582920Y801819D1*
X3585805Y797508D1*
X3590116Y796082D1*
X3592968D1*
X3597279Y797508D1*
X3600131Y801819D1*
X3601590Y808982D1*
Y813293D1*
X3600131Y820456D1*
X3597279Y824767D1*
X3592968Y826193D1*
X3590116D1*
X3600131Y820456D2*
X3582920Y801819D1*
X3619476Y826193D2*
X3615165Y824767D1*
X3612280Y820456D1*
X3610854Y813293D1*
Y808982D1*
X3612280Y801819D1*
X3615165Y797508D1*
X3619476Y796082D1*
X3622328D1*
X3626639Y797508D1*
X3629491Y801819D1*
X3630950Y808982D1*
Y813293D1*
X3629491Y820456D1*
X3626639Y824767D1*
X3622328Y826193D1*
X3619476D1*
X3629491Y820456D2*
X3612280Y801819D1*
X3660309Y826226D2*
Y796082D1*
X3640213Y826226D1*
Y796082D1*
X3944702Y820456D2*
X3947588Y821915D1*
X3951899Y826193D1*
Y796082D1*
X3961162Y826226D2*
Y796082D1*
X3981258Y826226D2*
X3961162Y806130D1*
X3968325Y813326D2*
X3981258Y796082D1*
X3687515Y820456D2*
X3690400Y821915D1*
X3694711Y826193D1*
Y796082D1*
X3712597Y826193D2*
X3708286Y824767D1*
X3705400Y820456D1*
X3703974Y813293D1*
Y808982D1*
X3705400Y801819D1*
X3708286Y797508D1*
X3712597Y796082D1*
X3715448D1*
X3719759Y797508D1*
X3722611Y801819D1*
X3724070Y808982D1*
Y813293D1*
X3722611Y820456D1*
X3719759Y824767D1*
X3715448Y826193D1*
X3712597D1*
X3722611Y820456D2*
X3705400Y801819D1*
X3733334Y826226D2*
Y796082D1*
X3753430Y826226D2*
X3733334Y806130D1*
X3740497Y813326D2*
X3753430Y796082D1*
X2580783Y820456D2*
X2583668Y821915D1*
X2587979Y826193D1*
Y796082D1*
X2605864Y826193D2*
X2601553Y824767D1*
X2598668Y820456D1*
X2597242Y813293D1*
Y808982D1*
X2598668Y801819D1*
X2601553Y797508D1*
X2605864Y796082D1*
X2608716D1*
X2613027Y797508D1*
X2615879Y801819D1*
X2617338Y808982D1*
Y813293D1*
X2615879Y820456D1*
X2613027Y824767D1*
X2608716Y826193D1*
X2605864D1*
X2615879Y820456D2*
X2598668Y801819D1*
X2635224Y826193D2*
X2630913Y824767D1*
X2628028Y820456D1*
X2626602Y813293D1*
Y808982D1*
X2628028Y801819D1*
X2630913Y797508D1*
X2635224Y796082D1*
X2638076D1*
X2642387Y797508D1*
X2645239Y801819D1*
X2646698Y808982D1*
Y813293D1*
X2645239Y820456D1*
X2642387Y824767D1*
X2638076Y826193D1*
X2635224D1*
X2645239Y820456D2*
X2628028Y801819D1*
X2676057Y826226D2*
Y796082D1*
X2655961Y826226D1*
Y796082D1*
X2971263Y820456D2*
X2974148Y821915D1*
X2978459Y826193D1*
Y796082D1*
X2987723Y826226D2*
Y796082D1*
X3007819Y826226D2*
X2987723Y806130D1*
X2994885Y813326D2*
X3007819Y796082D1*
X2703263Y820456D2*
X2706148Y821915D1*
X2710459Y826193D1*
Y796082D1*
X2728345Y826193D2*
X2724034Y824767D1*
X2721148Y820456D1*
X2719723Y813293D1*
Y808982D1*
X2721148Y801819D1*
X2724034Y797508D1*
X2728345Y796082D1*
X2731196D1*
X2735507Y797508D1*
X2738359Y801819D1*
X2739819Y808982D1*
Y813293D1*
X2738359Y820456D1*
X2735507Y824767D1*
X2731196Y826193D1*
X2728345D1*
X2738359Y820456D2*
X2721148Y801819D1*
X2749082Y826226D2*
Y796082D1*
X2769178Y826226D2*
X2749082Y806130D1*
X2756245Y813326D2*
X2769178Y796082D1*
X1706384Y1065547D2*
X1709269Y1067006D1*
X1713580Y1071284D1*
Y1041173D1*
X1731465Y1071284D2*
X1727154Y1069858D1*
X1724269Y1065547D1*
X1722843Y1058384D1*
Y1054073D1*
X1724269Y1046910D1*
X1727154Y1042599D1*
X1731465Y1041173D1*
X1734317D1*
X1738628Y1042599D1*
X1741480Y1046910D1*
X1742939Y1054073D1*
Y1058384D1*
X1741480Y1065547D1*
X1738628Y1069858D1*
X1734317Y1071284D1*
X1731465D1*
X1741480Y1065547D2*
X1724269Y1046910D1*
X1760825Y1071284D2*
X1756514Y1069858D1*
X1753629Y1065547D1*
X1752203Y1058384D1*
Y1054073D1*
X1753629Y1046910D1*
X1756514Y1042599D1*
X1760825Y1041173D1*
X1763677D1*
X1767988Y1042599D1*
X1770840Y1046910D1*
X1772299Y1054073D1*
Y1058384D1*
X1770840Y1065547D1*
X1767988Y1069858D1*
X1763677Y1071284D1*
X1760825D1*
X1770840Y1065547D2*
X1753629Y1046910D1*
X1801658Y1071317D2*
Y1041173D1*
X1781562Y1071317D1*
Y1041173D1*
X1914217Y914124D2*
X1912758Y917009D1*
X1908480Y921320D1*
X1938591D1*
X1908447Y930584D2*
X1938591Y930583D1*
X1908447Y950679D2*
X1928543Y930583D1*
X1921347Y937746D2*
X1938591Y950679D1*
X1612931Y1066565D2*
X1615816Y1068024D1*
X1620127Y1072302D1*
Y1042191D1*
X1638013Y1072302D2*
X1633702Y1070876D1*
X1630816Y1066565D1*
X1629390Y1059402D1*
Y1055091D1*
X1630816Y1047928D1*
X1633702Y1043617D1*
X1638013Y1042191D1*
X1640864D1*
X1645175Y1043617D1*
X1648027Y1047928D1*
X1649486Y1055091D1*
Y1059402D1*
X1648027Y1066565D1*
X1645175Y1070876D1*
X1640864Y1072302D1*
X1638013D1*
X1648027Y1066565D2*
X1630816Y1047928D1*
X1658750Y1072335D2*
Y1042191D1*
X1678846Y1072335D2*
X1658750Y1052239D1*
X1665913Y1059436D2*
X1678846Y1042191D1*
X970063Y819438D2*
X972948Y820897D1*
X977260Y825175D1*
Y795064D1*
X995145Y825175D2*
X990834Y823749D1*
X987949Y819438D1*
X986523Y812275D1*
Y807964D1*
X987949Y800801D1*
X990834Y796490D1*
X995145Y795064D1*
X997997D1*
X1002308Y796490D1*
X1005160Y800801D1*
X1006619Y807964D1*
Y812275D1*
X1005160Y819438D1*
X1002308Y823749D1*
X997997Y825175D1*
X995145D1*
X1005160Y819438D2*
X987949Y800801D1*
X1024505Y825175D2*
X1020194Y823749D1*
X1017309Y819438D1*
X1015883Y812275D1*
Y807964D1*
X1017309Y800801D1*
X1020194Y796490D1*
X1024505Y795064D1*
X1027357D1*
X1031668Y796490D1*
X1034519Y800801D1*
X1035979Y807964D1*
Y812275D1*
X1034519Y819438D1*
X1031668Y823749D1*
X1027357Y825175D1*
X1024505D1*
X1034519Y819438D2*
X1017309Y800801D1*
X1065338Y825208D2*
Y795064D1*
X1045242Y825208D1*
Y795064D1*
X746702Y820456D2*
X749588Y821915D1*
X753899Y826193D1*
Y796082D1*
X763162Y826226D2*
Y796082D1*
X783258Y826226D2*
X763162Y806130D1*
X770325Y813326D2*
X783258Y796082D1*
X1093943Y820473D2*
X1096828Y821932D1*
X1101139Y826210D1*
Y796099D1*
X1119024Y826210D2*
X1114713Y824784D1*
X1111828Y820473D1*
X1110402Y813310D1*
Y808999D1*
X1111828Y801836D1*
X1114713Y797525D1*
X1119024Y796099D1*
X1121876D1*
X1126187Y797525D1*
X1129039Y801836D1*
X1130498Y808999D1*
Y813310D1*
X1129039Y820473D1*
X1126187Y824784D1*
X1121876Y826210D1*
X1119024D1*
X1129039Y820473D2*
X1111828Y801836D1*
X1139762Y826243D2*
Y796099D1*
X1159858Y826243D2*
X1139762Y806147D1*
X1146925Y813344D2*
X1159858Y796099D1*
X1496139Y747927D2*
D52*
Y750779D1*
X1498991Y756549D1*
X1501843Y759401D1*
X1507613Y762253D1*
X1519087D1*
X1524791Y759401D1*
X1527643Y756549D1*
X1530561Y750779D1*
Y745075D1*
X1527643Y739305D1*
X1521939Y730749D1*
X1493221Y702031D1*
X1533413D1*
X1502986Y1138392D2*
X1536148D1*
X1519534Y1064228D2*
Y1012562D1*
X1493734Y1038362D2*
X1545400D1*
X1520513Y908283D2*
Y968505D1*
X1491795Y928379D1*
X1534838D1*
X1498991Y868507D2*
X1530495D1*
X1513317Y845559D1*
X1521939D1*
X1527643Y842707D1*
X1530495Y839855D1*
X1533413Y831233D1*
Y825530D1*
X1530495Y816907D1*
X1524791Y811137D1*
X1516169Y808285D1*
X1507547D1*
X1498991Y811137D1*
X1496139Y814056D1*
X1493221Y819759D1*
X1502995Y644531D2*
X1508765Y647449D1*
X1517387Y656005D1*
Y595783D1*
X1849781Y1144802D2*
Y1147654D1*
X1852633Y1153424D1*
X1855485Y1156276D1*
X1861255Y1159128D1*
X1872729D1*
X1878433Y1156276D1*
X1881285Y1153424D1*
X1884203Y1147654D1*
Y1141950D1*
X1881285Y1136180D1*
X1875581Y1127624D1*
X1846863Y1098906D1*
X1887055D1*
X2837010Y1159128D2*
X2868513D1*
X2851335Y1136180D1*
X2859957D1*
X2865661Y1133328D1*
X2868513Y1130476D1*
X2871431Y1121854D1*
Y1116150D1*
X2868513Y1107528D1*
X2862809Y1101758D1*
X2854187Y1098906D1*
X2845565D1*
X2837010Y1101758D1*
X2834158Y1104676D1*
X2831239Y1110380D1*
X3838082Y1098906D2*
Y1159128D1*
X3809364Y1119002D1*
X3852408D1*
X2061833Y526856D2*
D53*
Y1249516D1*
X1717216Y768008D1*
X2233743D1*
X873049Y1147654D2*
D52*
X878819Y1150572D1*
X887441Y1159128D1*
Y1098906D1*
X2383370Y1250312D2*
D53*
Y526856D1*
X2142218Y1250312D2*
X2624522D1*
X2152303Y839882D2*
D54*
X2179098Y851378D1*
X2152303Y862830D1*
X2146599Y875181D2*
X2144654Y879028D1*
X2138950Y884776D1*
X2179098D1*
X2175251Y899029D2*
X2177196Y897127D1*
X2179098Y899029D1*
X2177196Y900974D1*
X2175251Y899029D1*
X2138950Y924822D2*
X2140851Y919074D1*
X2146599Y915227D1*
X2156150Y913325D1*
X2161898D1*
X2171448Y915227D1*
X2177196Y919074D1*
X2179098Y924822D1*
Y928624D1*
X2177196Y934372D1*
X2171448Y938175D1*
X2161898Y940120D1*
X2156150D1*
X2146599Y938175D1*
X2140851Y934372D1*
X2138950Y928624D1*
Y924822D1*
X2146599Y938175D2*
X2171448Y915227D1*
X2479807Y534864D2*
D55*
X2486462Y521400D1*
X2499925Y508091D1*
X2513234Y501282D1*
X2533352Y494628D1*
X2566934D1*
X2586897Y501282D1*
X2600361Y508091D1*
X2613670Y521400D1*
X2620479Y534864D1*
Y561637D1*
X2613670Y574945D1*
X2600361Y588409D1*
X2586897Y595064D1*
X2566934Y601718D1*
X2533352D1*
X2513234Y595064D1*
X2499925Y588409D1*
X2486462Y574945D1*
X2479807Y561637D1*
Y534864D1*
Y685184D2*
X2486462Y671720D1*
X2499925Y658412D1*
X2513234Y651602D1*
X2533352Y644948D1*
X2566934D1*
X2586897Y651602D1*
X2600361Y658412D1*
X2613670Y671720D1*
X2620479Y685184D1*
Y711957D1*
X2613670Y725266D1*
X2600361Y738729D1*
X2586897Y745384D1*
X2566934Y752038D1*
X2533352D1*
X2513234Y745384D1*
X2499925Y738729D1*
X2486462Y725266D1*
X2479807Y711957D1*
Y685184D1*
X2513234Y895704D2*
X2499925Y889049D1*
X2486462Y875586D1*
X2479807Y862277D1*
Y835504D1*
X2486462Y822041D1*
X2499925Y808732D1*
X2513234Y801922D1*
X2533352Y795268D1*
X2566934D1*
X2586897Y801922D1*
X2600361Y808732D1*
X2613670Y822041D1*
X2620479Y835504D1*
Y862277D1*
X2613670Y875586D1*
X2600361Y889049D1*
X2586897Y895704D1*
X2566934D1*
Y862277D1*
X2479807Y938934D2*
X2620479D1*
Y1019251D1*
X2479807Y1149453D2*
Y1062481D1*
X2620479D1*
Y1149453D1*
X2546816Y1062481D2*
Y1116026D1*
X2987702Y523537D2*
D54*
X2989603Y521635D1*
X2991549Y523537D1*
X2989603Y525482D1*
X2987702Y523537D1*
X2989603Y510139D2*
Y483345D1*
X3003900Y510139D2*
Y483345D1*
Y502490D2*
X3009648Y508238D1*
X3013495Y510139D1*
X3019199D1*
X3023046Y508238D1*
X3024947Y502490D1*
Y483345D1*
X3058345Y504391D2*
X3056444Y508238D1*
X3050696Y510139D1*
X3044948D1*
X3039199Y508238D1*
X3037298Y504391D1*
X3039199Y500589D1*
X3043046Y498643D1*
X3052597Y496742D1*
X3056444Y494841D1*
X3058345Y490994D1*
Y489093D1*
X3056444Y485290D1*
X3050696Y483345D1*
X3044948D1*
X3039199Y485290D1*
X3037298Y489093D1*
X3076444Y523537D2*
Y490994D1*
X3078346Y485290D1*
X3082192Y483345D1*
X3085995D1*
X3070696Y510139D2*
X3084094D1*
X3098346D2*
Y483345D1*
Y498643D2*
X3100292Y504391D1*
X3104094Y508238D1*
X3107941Y510139D1*
X3113689D1*
X3126040D2*
Y490994D1*
X3127942Y485290D1*
X3131789Y483345D1*
X3137537D1*
X3141339Y485290D1*
X3147087Y490994D1*
Y510139D2*
Y483345D1*
X3159439Y510139D2*
Y483345D1*
Y502490D2*
X3165187Y508238D1*
X3169033Y510139D1*
X3174737D1*
X3178584Y508238D1*
X3180485Y502490D1*
Y483345D1*
Y502490D2*
X3186233Y508238D1*
X3190080Y510139D1*
X3195784D1*
X3199631Y508238D1*
X3201576Y502490D1*
Y483345D1*
X3213927Y498643D2*
X3236875D1*
Y502490D1*
X3234974Y506337D1*
X3233073Y508238D1*
X3229226Y510139D1*
X3223478D1*
X3219675Y508238D1*
X3215829Y504391D1*
X3213927Y498643D1*
Y494841D1*
X3215829Y489093D1*
X3219675Y485290D1*
X3223478Y483345D1*
X3229226D1*
X3233073Y485290D1*
X3236875Y489093D1*
X3249227Y510139D2*
Y483345D1*
Y502490D2*
X3254975Y508238D1*
X3258821Y510139D1*
X3264525D1*
X3268372Y508238D1*
X3270273Y502490D1*
Y483345D1*
X3288373Y523537D2*
Y490994D1*
X3290274Y485290D1*
X3294121Y483345D1*
X3297923D1*
X3282625Y510139D2*
X3296022D1*
X3331321Y504391D2*
X3329420Y508238D1*
X3323672Y510139D1*
X3317924D1*
X3312176Y508238D1*
X3310275Y504391D1*
X3312176Y500589D1*
X3316023Y498643D1*
X3325573Y496742D1*
X3329420Y494841D1*
X3331321Y490994D1*
Y489093D1*
X3329420Y485290D1*
X3323672Y483345D1*
X3317924D1*
X3312176Y485290D1*
X3310275Y489093D1*
X3345574Y487191D2*
X3343673Y485246D1*
X3345574Y483345D1*
X3347520Y485246D1*
X3345574Y487191D1*
X3382819Y510139D2*
Y483345D1*
Y504391D2*
X3379016Y508238D1*
X3375170Y510139D1*
X3369466D1*
X3365619Y508238D1*
X3361816Y504391D1*
X3359871Y498643D1*
Y494841D1*
X3361816Y489093D1*
X3365619Y485290D1*
X3369466Y483345D1*
X3375170D1*
X3379016Y485290D1*
X3382819Y489093D1*
X3395170Y510139D2*
Y483345D1*
Y498643D2*
X3397116Y504391D1*
X3400918Y508238D1*
X3404765Y510139D1*
X3410513D1*
X3428612Y523537D2*
Y490994D1*
X3430514Y485290D1*
X3434361Y483345D1*
X3438163D1*
X3422864Y510139D2*
X3436262D1*
X3450514Y523537D2*
X3452416Y521635D1*
X3454361Y523537D1*
X3452416Y525482D1*
X3450514Y523537D1*
X3452416Y510139D2*
Y483345D1*
X3489705Y504391D2*
X3485858Y508238D1*
X3482011Y510139D1*
X3476307D1*
X3472461Y508238D1*
X3468658Y504391D1*
X3466713Y498643D1*
Y494841D1*
X3468658Y489093D1*
X3472461Y485290D1*
X3476307Y483345D1*
X3482011D1*
X3485858Y485290D1*
X3489705Y489093D1*
X3525004Y510139D2*
Y483345D1*
Y504391D2*
X3521202Y508238D1*
X3517355Y510139D1*
X3511651D1*
X3507804Y508238D1*
X3504002Y504391D1*
X3502056Y498643D1*
Y494841D1*
X3504002Y489093D1*
X3507804Y485290D1*
X3511651Y483345D1*
X3517355D1*
X3521202Y485290D1*
X3525004Y489093D1*
X3539257Y487191D2*
X3537355Y485246D1*
X3539257Y483345D1*
X3541202Y485246D1*
X3539257Y487191D1*
X3576546Y504391D2*
X3572699Y508238D1*
X3568852Y510139D1*
X3563148D1*
X3559302Y508238D1*
X3555499Y504391D1*
X3553554Y498643D1*
Y494841D1*
X3555499Y489093D1*
X3559302Y485290D1*
X3563148Y483345D1*
X3568852D1*
X3572699Y485290D1*
X3576546Y489093D1*
X3611889Y504391D2*
X3608043Y508238D1*
X3604196Y510139D1*
X3598492D1*
X3594645Y508238D1*
X3590843Y504391D1*
X3588897Y498643D1*
Y494841D1*
X3590843Y489093D1*
X3594645Y485290D1*
X3598492Y483345D1*
X3604196D1*
X3608043Y485290D1*
X3611889Y489093D1*
X3169956Y1069628D2*
D51*
X3168530Y1072480D1*
X3165645Y1075365D1*
X3162793Y1076791D1*
X3157056D1*
X3154171Y1075365D1*
X3151319Y1072480D1*
X3149860Y1069628D1*
X3148434Y1065317D1*
Y1058121D1*
X3149860Y1053843D1*
X3151319Y1050958D1*
X3154171Y1048106D1*
X3157056Y1046647D1*
X3162793D1*
X3165645Y1048106D1*
X3168530Y1050958D1*
X3169956Y1053843D1*
X3200741Y1069628D2*
X3199316Y1072480D1*
X3196430Y1075365D1*
X3193579Y1076791D1*
X3187842D1*
X3184956Y1075365D1*
X3182105Y1072480D1*
X3180645Y1069628D1*
X3179220Y1065317D1*
Y1058121D1*
X3180645Y1053843D1*
X3182105Y1050958D1*
X3184956Y1048106D1*
X3187842Y1046647D1*
X3193579D1*
X3196430Y1048106D1*
X3199316Y1050958D1*
X3200741Y1053843D1*
X3239166Y1076791D2*
Y1046647D1*
X3252099D1*
X3256410Y1048106D1*
X3257836Y1049532D1*
X3259262Y1052384D1*
Y1056695D1*
X3257836Y1059580D1*
X3256410Y1061006D1*
X3252099Y1062432D1*
X3256410Y1063891D1*
X3257836Y1065317D1*
X3259262Y1068169D1*
Y1071054D1*
X3257836Y1073906D1*
X3256410Y1075365D1*
X3252099Y1076791D1*
X3239166D1*
Y1062432D2*
X3252099D1*
X3268525Y1076791D2*
X3279999Y1062432D1*
Y1046647D1*
X3291473Y1076791D2*
X3279999Y1062432D1*
X3300737Y1061702D2*
X3317317D1*
X3346677Y1072480D2*
X3343825Y1075365D1*
X3339514Y1076791D1*
X3333777D1*
X3329466Y1075365D1*
X3326581Y1072480D1*
Y1069628D1*
X3328040Y1066743D1*
X3329466Y1065317D1*
X3332318Y1063891D1*
X3340940Y1061006D1*
X3343825Y1059580D1*
X3345251Y1058121D1*
X3346677Y1055269D1*
Y1050958D1*
X3343825Y1048106D1*
X3339514Y1046647D1*
X3333777D1*
X3329466Y1048106D1*
X3326581Y1050958D1*
X3378922Y1046647D2*
X3367415Y1076791D1*
X3355941Y1046647D1*
X3360252Y1056695D2*
X3374611D1*
X3431705Y1046647D2*
Y1076758D1*
X3417346Y1056695D1*
X3438868D1*
X3449557Y1049532D2*
X3448131Y1048073D1*
X3449557Y1046647D1*
X3451016Y1048073D1*
X3449557Y1049532D1*
X3468902Y1076758D2*
X3464591Y1075332D1*
X3461706Y1071021D1*
X3460280Y1063858D1*
Y1059547D1*
X3461706Y1052384D1*
X3464591Y1048073D1*
X3468902Y1046647D1*
X3471754D1*
X3476065Y1048073D1*
X3478917Y1052384D1*
X3480376Y1059547D1*
Y1063858D1*
X3478917Y1071021D1*
X3476065Y1075332D1*
X3471754Y1076758D1*
X3468902D1*
X3478917Y1071021D2*
X3461706Y1052384D1*
M02*
