<svg version="1.1" xmlns="http://www.w3.org/2000/svg" xmlns:xlink="http://www.w3.org/1999/xlink" stroke-linecap="round" stroke-linejoin="round" stroke-width="0" fill-rule="evenodd" width="3.8188969999999998in" height="0.8661420000000001in" viewBox="452.756 452.756 3818.897 866.142" id="IdefyfC9OFL53sn7WNTV"><defs><circle cx="0" cy="0" r="43.937" id="IdefyfC9OFL53sn7WNTV_pad-47"/><rect x="-35.433" y="-39.37" width="70.866" height="78.74" id="IdefyfC9OFL53sn7WNTV_pad-43"/><circle cx="0" cy="0" r="59.055" id="IdefyfC9OFL53sn7WNTV_pad-38"/></defs><g transform="translate(0,1771.654) scale(1,-1)" fill="currentColor" stroke="currentColor"><use xlink:href="#IdefyfC9OFL53sn7WNTV_pad-47" x="3838.583" y="786.327"/><use xlink:href="#IdefyfC9OFL53sn7WNTV_pad-47" x="3838.583" y="886.327"/><use xlink:href="#IdefyfC9OFL53sn7WNTV_pad-47" x="3838.583" y="986.327"/><use xlink:href="#IdefyfC9OFL53sn7WNTV_pad-43" x="3893.701" y="1212.396"/><use xlink:href="#IdefyfC9OFL53sn7WNTV_pad-43" x="3783.465" y="1212.396"/><use xlink:href="#IdefyfC9OFL53sn7WNTV_pad-47" x="2854.331" y="786.327"/><use xlink:href="#IdefyfC9OFL53sn7WNTV_pad-47" x="2854.331" y="886.327"/><use xlink:href="#IdefyfC9OFL53sn7WNTV_pad-47" x="2854.331" y="986.327"/><use xlink:href="#IdefyfC9OFL53sn7WNTV_pad-43" x="2909.449" y="1212.396"/><use xlink:href="#IdefyfC9OFL53sn7WNTV_pad-43" x="2799.213" y="1212.396"/><use xlink:href="#IdefyfC9OFL53sn7WNTV_pad-47" x="1870.079" y="786.327"/><use xlink:href="#IdefyfC9OFL53sn7WNTV_pad-47" x="1870.079" y="886.327"/><use xlink:href="#IdefyfC9OFL53sn7WNTV_pad-47" x="1870.079" y="986.327"/><use xlink:href="#IdefyfC9OFL53sn7WNTV_pad-43" x="1925.197" y="1212.396"/><use xlink:href="#IdefyfC9OFL53sn7WNTV_pad-43" x="1814.961" y="1212.396"/><use xlink:href="#IdefyfC9OFL53sn7WNTV_pad-47" x="885.827" y="786.327"/><use xlink:href="#IdefyfC9OFL53sn7WNTV_pad-47" x="885.827" y="886.327"/><use xlink:href="#IdefyfC9OFL53sn7WNTV_pad-47" x="885.827" y="986.327"/><use xlink:href="#IdefyfC9OFL53sn7WNTV_pad-43" x="940.945" y="1212.396"/><use xlink:href="#IdefyfC9OFL53sn7WNTV_pad-43" x="830.709" y="1212.396"/><use xlink:href="#IdefyfC9OFL53sn7WNTV_pad-38" x="511.811" y="511.811"/><use xlink:href="#IdefyfC9OFL53sn7WNTV_pad-38" x="511.811" y="1259.843"/><use xlink:href="#IdefyfC9OFL53sn7WNTV_pad-38" x="4212.598" y="1259.843"/><use xlink:href="#IdefyfC9OFL53sn7WNTV_pad-38" x="4212.598" y="511.811"/></g></svg>