<svg version="1.1" xmlns="http://www.w3.org/2000/svg" xmlns:xlink="http://www.w3.org/1999/xlink" stroke-linecap="round" stroke-linejoin="round" stroke-width="0" fill-rule="evenodd" width="3.1532240000000002in" height="0.542661in" viewBox="765.2805 718.4055 3153.224 542.661" id="PFo9prTCXWWPyhecKXlC"><g transform="translate(0,1979.4719999999998) scale(1,-1)" fill="currentColor" stroke="currentColor"><path d="M 3763.583 723.327 3913.583 723.327 3913.583 1048.327 3763.583 1048.327 3763.583 723.327 M 3722.958 1256.145 3722.958 1168.648 M 2779.331 723.327 2929.331 723.327 2929.331 1048.327 2779.331 1048.327 2779.331 723.327 M 2738.706 1256.145 2738.706 1168.648 M 1795.079 723.327 1945.079 723.327 1945.079 1048.327 1795.079 1048.327 1795.079 723.327 M 1754.454 1256.145 1754.454 1168.648 M 810.827 723.327 960.827 723.327 960.827 1048.327 810.827 1048.327 810.827 723.327 M 770.202 1256.145 770.202 1168.648" fill="none" stroke-width="9.843"/></g></svg>