<svg version="1.1" xmlns="http://www.w3.org/2000/svg" xmlns:xlink="http://www.w3.org/1999/xlink" stroke-linecap="round" stroke-linejoin="round" stroke-width="0" fill-rule="evenodd" width="3.464622in" height="0.9291889999999999in" viewBox="629.894 421.232 3464.622 929.189" id="HQ-JtW_YWlk3HUCJ0nWK"><defs><circle cx="0" cy="0" r="20" id="HQ-JtW_YWlk3HUCJ0nWK_pad-36"/><circle cx="0" cy="0" r="40" id="HQ-JtW_YWlk3HUCJ0nWK_pad-33"/><rect x="-31.496" y="-35.433" width="62.992" height="70.866" id="HQ-JtW_YWlk3HUCJ0nWK_pad-35"/></defs><g transform="translate(0,1771.653) scale(1,-1)" fill="currentColor" stroke="currentColor"><path d="M 830.709 1212.396 744.396 1212.396 M 1814.961 1212.396 1732.181 1212.396 1732.181 1211.14 M 2799.213 1212.396 2713.117 1212.396 2711.861 1211.14 M 3783.465 1212.396 3699.037 1212.396 3697.781 1211.14" fill="none" stroke-width="22"/><path d="M 3959.861 1211.14 3894.957 1211.14 3893.701 1212.396 M 2989.541 1211.14 2910.705 1211.14 2909.449 1212.396 M 1997.381 1211.14 1926.453 1211.14 1925.197 1212.396 M 942.821 1130.021 942.821 1214.272 940.945 1212.396 M 1807.06 658.9 1807.06 665.142 1535.621 936.581 M 1688.501 708.82 1688.501 743.139 1594.9 836.74 1404.581 836.74" fill="none" stroke-width="12"/><path d="M 1275.984 1173.024 1392.101 1289.14 2062.9 1289.14 2649.461 1289.14 3373.302 1289.14 3772.661 889.781 3835.129 889.781 3838.583 886.327 M 885.827 886.327 992.407 886.327 1279.104 1173.024 1275.984 1173.024 M 1870.079 886.327 1931.526 886.327 2062.9 1017.701 2062.9 1289.14 M 2854.331 886.327 2787.075 886.327 2649.461 1023.941 2649.461 1289.14" fill="none" stroke-width="22"/><use xlink:href="#HQ-JtW_YWlk3HUCJ0nWK_pad-36" x="3959.861" y="1211.14"/><use xlink:href="#HQ-JtW_YWlk3HUCJ0nWK_pad-36" x="2989.541" y="1211.14"/><use xlink:href="#HQ-JtW_YWlk3HUCJ0nWK_pad-36" x="1997.381" y="1211.14"/><use xlink:href="#HQ-JtW_YWlk3HUCJ0nWK_pad-36" x="942.821" y="1130.021"/><use xlink:href="#HQ-JtW_YWlk3HUCJ0nWK_pad-36" x="1807.06" y="658.9"/><use xlink:href="#HQ-JtW_YWlk3HUCJ0nWK_pad-36" x="1535.621" y="936.581"/><use xlink:href="#HQ-JtW_YWlk3HUCJ0nWK_pad-36" x="1688.501" y="708.82"/><use xlink:href="#HQ-JtW_YWlk3HUCJ0nWK_pad-36" x="1404.581" y="836.74"/><use xlink:href="#HQ-JtW_YWlk3HUCJ0nWK_pad-36" x="1275.984" y="1173.024"/><use xlink:href="#HQ-JtW_YWlk3HUCJ0nWK_pad-36" x="1275.984" y="1173.024"/><use xlink:href="#HQ-JtW_YWlk3HUCJ0nWK_pad-36" x="743.141" y="1211.141"/><use xlink:href="#HQ-JtW_YWlk3HUCJ0nWK_pad-36" x="1732.181" y="1211.14"/><use xlink:href="#HQ-JtW_YWlk3HUCJ0nWK_pad-36" x="2711.861" y="1211.14"/><use xlink:href="#HQ-JtW_YWlk3HUCJ0nWK_pad-36" x="3697.781" y="1211.14"/><path d="M 644.939 1313.025 1360.458 1313.025 M 3404.936 1313.025 4079.474 1313.025 M 644.939 1288.156 1335.59 1288.156 M 3429.803 1288.156 4079.474 1288.156 M 644.939 1263.287 770.235 1263.287 M 1001.449 1263.287 1310.722 1263.287 M 3454.671 1263.287 3722.965 1263.287 M 3954.179 1263.287 4079.474 1263.287 M 644.939 1238.419 770.235 1238.419 M 1001.449 1238.419 1285.855 1238.419 M 1396.892 1238.419 1754.466 1238.419 M 2102.878 1238.419 2609.479 1238.419 M 2689.441 1238.419 2738.733 1238.419 M 3029.695 1238.419 3368.501 1238.419 M 3479.539 1238.419 3722.965 1238.419 M 4000.003 1238.419 4079.474 1238.419 M 644.939 1213.55 770.235 1213.55 M 1001.449 1213.55 1250.688 1213.55 M 1372.025 1213.55 1754.466 1213.55 M 2102.878 1213.55 2609.479 1213.55 M 2689.441 1213.55 2738.733 1213.55 M 3038.486 1213.55 3393.369 1213.55 M 3504.406 1213.55 3722.965 1213.55 M 4008.795 1213.55 4079.474 1213.55 M 644.939 1188.681 770.235 1188.681 M 1001.449 1188.681 1229.696 1188.681 M 1347.157 1188.681 1754.466 1188.681 M 2102.878 1188.681 2609.479 1188.681 M 2689.441 1188.681 2738.733 1188.681 M 3032.745 1188.681 3418.236 1188.681 M 3529.274 1188.681 3722.965 1188.681 M 4003.053 1188.681 4079.474 1188.681 M 644.939 1163.812 770.235 1163.812 M 1001.449 1163.812 1214.373 1163.812 M 1324.047 1163.812 1754.466 1163.812 M 1985.68 1163.812 2022.916 1163.812 M 2102.878 1163.812 2609.479 1163.812 M 2689.441 1163.812 2738.733 1163.812 M 2969.947 1163.812 3443.104 1163.812 M 3554.142 1163.812 3722.965 1163.812 M 3954.179 1163.812 4079.474 1163.812 M 644.939 1138.944 894.681 1138.944 M 990.935 1138.944 1189.506 1138.944 M 1310.124 1138.944 2022.916 1138.944 M 2102.878 1138.944 2609.479 1138.944 M 2689.441 1138.944 3467.972 1138.944 M 3579.01 1138.944 4079.474 1138.944 M 644.939 1114.075 896.655 1114.075 M 988.997 1114.075 1164.638 1114.075 M 1275.676 1114.075 2022.916 1114.075 M 2102.878 1114.075 2609.479 1114.075 M 2689.441 1114.075 3492.84 1114.075 M 3603.877 1114.075 4079.474 1114.075 M 644.939 1089.206 918.042 1089.206 M 967.574 1089.206 1139.77 1089.206 M 1250.808 1089.206 2022.916 1089.206 M 2102.878 1089.206 2609.479 1089.206 M 2689.441 1089.206 3517.707 1089.206 M 3628.745 1089.206 4079.474 1089.206 M 644.939 1064.337 1114.902 1064.337 M 1225.94 1064.337 2022.916 1064.337 M 2102.878 1064.337 2609.479 1064.337 M 2689.441 1064.337 3542.575 1064.337 M 3653.613 1064.337 4079.474 1064.337 M 644.939 1039.469 843.367 1039.469 M 928.281 1039.469 1090.035 1039.469 M 1201.072 1039.469 1827.598 1039.469 M 1912.548 1039.469 2022.916 1039.469 M 2102.878 1039.469 2609.479 1039.469 M 2689.441 1039.469 2811.865 1039.469 M 2896.78 1039.469 3567.443 1039.469 M 3678.481 1039.469 3796.133 1039.469 M 3881.047 1039.469 4079.474 1039.469 M 644.939 1014.6 823.128 1014.6 M 948.519 1014.6 1065.167 1014.6 M 1176.205 1014.6 1807.395 1014.6 M 1932.751 1014.6 2004.292 1014.6 M 2102.77 1014.6 2610.663 1014.6 M 2714.308 1014.6 2791.663 1014.6 M 2917.018 1014.6 3592.311 1014.6 M 3703.348 1014.6 3775.894 1014.6 M 3901.25 1014.6 4079.474 1014.6 M 644.939 989.731 816.92 989.731 M 954.727 989.731 1040.299 989.731 M 1151.337 989.731 1801.187 989.731 M 1938.995 989.731 1979.424 989.731 M 2090.462 989.731 2628.138 989.731 M 2739.176 989.731 2785.419 989.731 M 2923.226 989.731 3617.178 989.731 M 3728.216 989.731 3769.686 989.731 M 3907.494 989.731 4079.474 989.731 M 644.939 964.862 820.401 964.862 M 951.247 964.862 1015.431 964.862 M 1126.469 964.862 1496.208 964.862 M 1575.021 964.862 1804.632 964.862 M 1935.514 964.862 1954.556 964.862 M 2065.594 964.862 2653.006 964.862 M 2764.044 964.862 2788.9 964.862 M 2919.745 964.862 3642.046 964.862 M 3753.12 964.862 3773.167 964.862 M 3904.013 964.862 4079.474 964.862 M 644.939 939.993 835.652 939.993 M 936.032 939.993 990.564 939.993 M 1101.601 939.993 1486.77 939.993 M 1584.495 939.993 1819.883 939.993 M 2040.726 939.993 2677.874 939.993 M 2788.948 939.993 2804.15 939.993 M 2904.531 939.993 3666.914 939.993 M 3888.762 939.993 4079.474 939.993 M 644.939 915.125 823.379 915.125 M 1076.734 915.125 1491.866 915.125 M 1605.523 915.125 1807.647 915.125 M 2015.859 915.125 2702.742 915.125 M 2916.767 915.125 3691.782 915.125 M 3900.999 915.125 4079.474 915.125 M 644.939 890.256 816.956 890.256 M 1051.866 890.256 1529.185 890.256 M 1630.391 890.256 1801.187 890.256 M 1990.991 890.256 2727.609 890.256 M 2923.19 890.256 3716.649 890.256 M 3907.458 890.256 4079.474 890.256 M 644.939 865.387 820.221 865.387 M 1026.998 865.387 1365.446 865.387 M 1655.258 865.387 1804.453 865.387 M 1966.123 865.387 2752.477 865.387 M 2919.925 865.387 3741.517 865.387 M 3904.192 865.387 4079.474 865.387 M 644.939 840.518 835.149 840.518 M 936.534 840.518 1355.757 840.518 M 1680.126 840.518 1819.381 840.518 M 1920.766 840.518 2803.648 840.518 M 2905.033 840.518 3787.879 840.518 M 3889.264 840.518 4079.474 840.518 M 644.939 815.65 823.666 815.65 M 948.017 815.65 1360.637 815.65 M 1704.994 815.65 1807.898 815.65 M 1932.249 815.65 2792.165 815.65 M 2916.516 815.65 3776.397 815.65 M 3900.747 815.65 4079.474 815.65 M 644.939 790.781 816.992 790.781 M 954.656 790.781 1395.05 790.781 M 1414.09 790.781 1592.413 790.781 M 1729.862 790.781 1801.223 790.781 M 1938.923 790.781 2785.491 790.781 M 2923.19 790.781 3769.722 790.781 M 3907.422 790.781 4079.474 790.781 M 644.939 765.912 820.042 765.912 M 951.605 765.912 1617.281 765.912 M 1754.729 765.912 1804.309 765.912 M 1935.873 765.912 2788.541 765.912 M 2920.104 765.912 3772.808 765.912 M 3904.372 765.912 4079.474 765.912 M 644.939 741.043 834.647 741.043 M 937.001 741.043 1642.149 741.043 M 1779.597 741.043 1818.878 741.043 M 1921.268 741.043 2803.146 741.043 M 2905.535 741.043 3787.377 741.043 M 3889.767 741.043 4079.474 741.043 M 644.939 716.175 1640.103 716.175 M 1804.465 716.175 4079.474 716.175 M 644.939 691.306 1642.938 691.306 M 1842.897 691.306 4079.474 691.306 M 644.939 666.437 1666.909 666.437 M 1710.125 666.437 1757.301 666.437 M 1855.42 666.437 4079.474 666.437 M 644.939 641.568 1761.428 641.568 M 1852.693 641.568 4079.474 641.568 M 644.939 616.699 1785.039 616.699 M 1829.081 616.699 4079.474 616.699 M 644.939 591.831 4079.474 591.831 M 644.939 566.962 4079.474 566.962 M 644.939 542.093 4079.474 542.093 M 644.939 517.224 4079.474 517.224 M 644.939 492.356 4079.474 492.356 M 644.939 467.487 4079.474 467.487 M 644.939 442.618 4079.474 442.618 M 3904.87 781.11 3903.238 770.804 3900.013 760.881 3895.277 751.585 3889.144 743.144 3881.766 735.766 3873.325 729.633 3864.028 724.896 3854.105 721.672 3843.8 720.04 3833.366 720.04 3823.06 721.672 3813.137 724.896 3803.841 729.633 3795.399 735.766 3788.022 743.144 3781.889 751.585 3777.152 760.881 3773.928 770.804 3772.296 781.11 3772.296 791.544 3773.928 801.849 3777.152 811.772 3781.889 821.069 3788.022 829.51 3794.785 836.32 3788.022 843.144 3781.889 851.585 3781.5 852.279 3769.72 852.404 3763.909 853.324 3758.314 855.142 3753.072 857.813 3748.312 861.271 3713.672 895.748 3357.751 1251.669 3012.343 1251.648 3016.868 1248.753 3022.416 1244.015 3027.154 1238.468 3030.965 1232.247 3033.757 1225.507 3035.46 1218.413 3036.033 1211.14 3035.46 1203.867 3033.757 1196.774 3030.965 1190.033 3027.154 1183.813 3022.416 1178.266 3016.868 1173.527 3010.648 1169.716 3003.908 1166.924 2996.814 1165.221 2989.541 1164.648 2982.268 1165.221 2975.174 1166.924 2968.434 1169.716 2967.426 1170.28 2967.437 1150.471 2741.224 1150.471 2741.224 1251.643 2686.945 1251.648 2686.953 1039.494 2800.735 925.688 2807.314 933.344 2810.534 936.32 2803.77 943.144 2797.637 951.585 2792.9 960.881 2789.676 970.804 2788.044 981.11 2788.044 991.544 2789.676 1001.849 2792.9 1011.772 2797.637 1021.069 2803.77 1029.51 2811.148 1036.888 2819.589 1043.021 2828.885 1047.757 2838.808 1050.982 2849.114 1052.614 2859.548 1052.614 2869.853 1050.982 2879.776 1047.757 2889.073 1043.021 2897.514 1036.888 2904.892 1029.51 2911.025 1021.069 2915.761 1011.772 2918.986 1001.849 2920.618 991.544 2920.618 981.11 2918.986 970.804 2915.761 960.881 2911.025 951.585 2904.892 943.144 2898.128 936.333 2904.892 929.51 2911.025 921.069 2915.761 911.772 2918.986 901.849 2920.618 891.544 2920.618 881.11 2918.986 870.804 2915.761 860.881 2911.025 851.585 2904.892 843.144 2898.128 836.333 2904.892 829.51 2911.025 821.069 2915.761 811.772 2918.986 801.849 2920.618 791.544 2920.618 781.11 2918.986 770.804 2915.761 760.881 2911.025 751.585 2904.892 743.144 2897.514 735.766 2889.073 729.633 2879.776 724.896 2869.853 721.672 2859.548 720.04 2849.114 720.04 2838.808 721.672 2828.885 724.896 2819.589 729.633 2811.148 735.766 2803.77 743.144 2797.637 751.585 2792.9 760.881 2789.676 770.804 2788.044 781.11 2788.044 791.544 2789.676 801.849 2792.9 811.772 2797.637 821.069 2803.77 829.51 2810.534 836.32 2803.77 843.144 2799.484 848.821 2784.133 848.95 2778.322 849.871 2772.727 851.689 2767.485 854.359 2762.726 857.817 2728.085 892.294 2620.951 999.592 2617.493 1004.351 2614.822 1009.593 2613.004 1015.189 2612.084 1020.999 2611.968 1069.873 2611.968 1251.626 2100.397 1251.648 2100.277 1014.759 2099.357 1008.948 2097.539 1003.353 2094.868 998.111 2091.41 993.352 2056.933 958.711 1955.875 857.818 1951.116 854.359 1945.874 851.689 1940.279 849.871 1934.468 848.95 1931.515 848.835 1923.872 847.244 1917.096 839.31 1913.876 836.333 1920.64 829.51 1926.773 821.069 1931.509 811.772 1934.734 801.849 1936.366 791.544 1936.366 781.11 1934.734 770.804 1931.509 760.881 1926.773 751.585 1920.64 743.144 1913.262 735.766 1904.821 729.633 1895.524 724.896 1885.601 721.672 1875.296 720.04 1864.862 720.04 1854.556 721.672 1844.633 724.896 1835.337 729.633 1826.896 735.766 1819.518 743.144 1813.385 751.585 1808.648 760.881 1805.424 770.804 1803.792 781.11 1803.792 791.544 1805.424 801.849 1808.648 811.772 1813.385 821.069 1819.518 829.51 1826.282 836.32 1819.518 843.144 1813.385 851.585 1808.648 860.881 1805.424 870.804 1803.792 881.11 1803.792 891.544 1805.424 901.849 1808.648 911.772 1813.385 921.069 1819.518 929.51 1826.282 936.32 1819.518 943.144 1813.385 951.585 1808.648 960.881 1805.424 970.804 1803.792 981.11 1803.792 991.544 1805.424 1001.849 1808.648 1011.772 1813.385 1021.069 1819.518 1029.51 1826.896 1036.888 1835.337 1043.021 1844.633 1047.757 1854.556 1050.982 1864.862 1052.614 1875.296 1052.614 1885.601 1050.982 1895.524 1047.757 1904.821 1043.021 1913.262 1036.888 1920.64 1029.51 1926.773 1021.069 1931.509 1011.772 1934.734 1001.849 1936.366 991.544 1936.366 981.11 1934.734 970.804 1931.509 960.881 1926.773 951.585 1920.64 943.144 1913.876 936.333 1920.64 929.51 1921.107 928.917 2025.415 1033.237 2025.408 1174.048 2018.488 1169.716 2011.747 1166.924 2004.654 1165.221 1997.381 1164.648 1990.108 1165.221 1983.192 1166.873 1983.185 1150.471 1756.973 1150.471 1756.973 1251.643 1407.619 1251.648 1321.904 1165.751 1320.201 1158.657 1317.409 1151.917 1313.597 1145.696 1308.859 1140.149 1303.312 1135.411 1297.091 1131.599 1290.351 1128.807 1286.961 1127.851 1016.756 857.818 1011.996 854.359 1006.754 851.689 1001.159 849.871 995.348 848.95 946.475 848.835 940.769 848.835 936.388 843.144 929.624 836.333 936.388 829.51 942.521 821.069 947.257 811.772 950.482 801.849 952.114 791.544 952.114 781.11 950.482 770.804 947.257 760.881 942.521 751.585 936.388 743.144 929.01 735.766 920.569 729.633 911.272 724.896 901.349 721.672 891.044 720.04 880.61 720.04 870.304 721.672 860.381 724.896 851.085 729.633 842.644 735.766 835.266 743.144 829.133 751.585 824.396 760.881 821.172 770.804 819.54 781.11 819.54 791.544 821.172 801.849 824.396 811.772 829.133 821.069 835.266 829.51 842.03 836.32 835.266 843.144 829.133 851.585 824.396 860.881 821.172 870.804 819.54 881.11 819.54 891.544 821.172 901.849 824.396 911.772 829.133 921.069 835.266 929.51 842.03 936.32 835.266 943.144 829.133 951.585 824.396 960.881 821.172 970.804 819.54 981.11 819.54 991.544 821.172 1001.849 824.396 1011.772 829.133 1021.069 835.266 1029.51 842.644 1036.888 851.085 1043.021 860.381 1047.757 870.304 1050.982 880.61 1052.614 891.044 1052.614 901.349 1050.982 911.272 1047.757 920.569 1043.021 929.01 1036.888 936.388 1029.51 942.521 1021.069 947.257 1011.772 950.482 1001.849 952.114 991.544 952.114 981.11 950.482 970.804 947.257 960.881 942.521 951.585 936.388 943.144 929.624 936.333 936.388 929.51 940.674 923.833 976.865 923.819 1229.635 1176.671 1230.777 1183.877 1233.031 1190.815 1236.343 1197.316 1240.631 1203.218 1245.79 1208.377 1251.692 1212.665 1258.192 1215.977 1265.131 1218.231 1268.96 1219.022 1367.752 1317.65 1372.511 1321.108 1377.753 1323.779 1383.349 1325.597 1389.159 1326.517 1438.033 1326.633 3376.243 1326.517 3382.054 1325.597 3387.65 1323.779 3392.891 1321.108 3397.651 1317.65 3432.292 1283.173 3787.095 928.369 3791.566 933.344 3794.785 936.32 3788.022 943.144 3781.889 951.585 3777.152 960.881 3773.928 970.804 3772.296 981.11 3772.296 991.544 3773.928 1001.849 3777.152 1011.772 3781.889 1021.069 3788.022 1029.51 3795.399 1036.888 3803.841 1043.021 3813.137 1047.757 3823.06 1050.982 3833.366 1052.614 3843.8 1052.614 3854.105 1050.982 3864.028 1047.757 3873.325 1043.021 3881.766 1036.888 3889.144 1029.51 3895.277 1021.069 3900.013 1011.772 3903.238 1001.849 3904.87 991.544 3904.87 981.11 3903.238 970.804 3900.013 960.881 3895.277 951.585 3889.144 943.144 3882.38 936.333 3889.144 929.51 3895.277 921.069 3900.013 911.772 3903.238 901.849 3904.87 891.544 3904.87 881.11 3903.238 870.804 3900.013 860.881 3895.277 851.585 3889.144 843.144 3882.38 836.333 3889.144 829.51 3895.277 821.069 3900.013 811.772 3903.238 801.849 3904.87 791.544 3904.87 781.11 M 3844.899 1274.322 3951.689 1274.322 3951.689 1256.918 3959.861 1257.633 3967.134 1257.06 3974.228 1255.357 3980.968 1252.565 3987.188 1248.753 3992.736 1244.015 3997.474 1238.468 4001.286 1232.247 4004.078 1225.507 4005.781 1218.413 4006.353 1211.14 4005.781 1203.867 4004.078 1196.774 4001.286 1190.033 3997.474 1183.813 3992.736 1178.266 3987.188 1173.527 3980.968 1169.716 3974.228 1166.924 3967.134 1165.221 3959.861 1164.648 3952.588 1165.221 3951.679 1165.402 3951.689 1150.471 3725.476 1150.471 3725.476 1274.321 3844.899 1274.322 M 892.143 1274.321 998.933 1274.321 998.933 1150.471 984.544 1150.471 987.037 1144.388 988.741 1137.294 989.313 1130.021 988.741 1122.748 987.037 1115.654 984.246 1108.914 980.434 1102.693 975.696 1097.146 970.148 1092.408 963.928 1088.596 957.188 1085.804 950.094 1084.101 942.821 1083.529 935.548 1084.101 928.454 1085.804 921.714 1088.596 915.493 1092.408 909.946 1097.146 905.208 1102.693 901.396 1108.914 898.604 1115.654 896.901 1122.748 896.329 1130.021 896.901 1137.294 898.604 1144.388 901.092 1150.467 772.721 1150.471 772.721 1274.321 892.143 1274.321 M 1761.02 665.231 1732.5 693.752 1729.926 687.713 1726.114 681.493 1721.376 675.945 1715.829 671.207 1709.608 667.395 1702.868 664.604 1695.774 662.9 1688.501 662.328 1681.228 662.9 1674.134 664.604 1667.394 667.395 1661.174 671.207 1655.626 675.945 1650.888 681.493 1647.077 687.713 1644.285 694.453 1642.582 701.547 1642.009 708.82 1642.582 716.093 1644.285 723.187 1647.077 729.927 1650.342 735.329 1581.462 804.228 1437.835 804.248 1431.909 799.127 1425.688 795.315 1418.948 792.524 1411.854 790.82 1404.581 790.248 1397.308 790.82 1390.215 792.524 1383.474 795.315 1377.254 799.127 1371.706 803.865 1366.968 809.413 1363.157 815.633 1360.365 822.373 1358.662 829.467 1358.089 836.74 1358.662 844.013 1360.365 851.107 1363.157 857.847 1366.968 864.068 1371.706 869.615 1377.254 874.353 1383.474 878.165 1390.215 880.957 1397.308 882.66 1404.581 883.232 1411.854 882.66 1418.948 880.957 1425.688 878.165 1431.909 874.353 1437.814 869.228 1557.053 869.232 1536.156 890.095 1528.348 890.662 1521.254 892.365 1514.514 895.157 1508.293 898.968 1502.746 903.706 1498.008 909.254 1494.196 915.474 1491.404 922.215 1489.701 929.308 1489.129 936.581 1489.701 943.854 1491.404 950.948 1494.196 957.688 1498.008 963.909 1502.746 969.456 1508.293 974.194 1514.514 978.006 1521.254 980.798 1528.348 982.501 1535.621 983.073 1542.894 982.501 1549.988 980.798 1556.728 978.006 1562.948 974.194 1568.496 969.456 1573.234 963.909 1577.046 957.688 1579.837 950.948 1581.54 943.854 1582.092 936.054 1813.173 704.98 1817.914 704.108 1824.852 701.853 1831.352 698.541 1837.255 694.253 1842.413 689.094 1846.701 683.192 1850.013 676.692 1852.268 669.754 1853.409 662.548 1853.409 655.253 1852.268 648.047 1850.013 641.108 1846.701 634.608 1842.413 628.706 1837.255 623.547 1831.352 619.259 1824.852 615.947 1817.914 613.693 1810.708 612.551 1803.413 612.551 1796.207 613.693 1789.269 615.947 1782.768 619.259 1776.866 623.547 1771.707 628.706 1767.419 634.608 1764.107 641.108 1761.853 648.047 1760.712 655.253 1760.712 662.548 1761.028 665.224 M 1321.926 1165.935 1320.201 1158.657 1317.409 1151.917 1313.597 1145.696 1308.859 1140.149 1303.312 1135.411 1297.091 1131.599 1290.351 1128.807 1286.961 1127.851 M 1229.632 1176.572 1230.777 1183.877 1233.031 1190.815 1236.343 1197.316 1240.631 1203.218 1245.79 1208.377 1251.692 1212.665 1258.192 1215.977 1265.131 1218.231 1268.895 1218.965 M 642.445 433.76 4082.016 433.76 4081.988 1337.921 642.394 1337.894 642.421 433.732" fill="none" stroke-width="25"/><path d="M 3783.465 1274.286 3783.465 1150.507 M 3725.512 1212.396 3783.465 1212.396 M 2799.213 1212.396 2799.213 1150.507 M 2741.26 1212.396 2799.213 1212.396 M 1814.961 1212.396 1814.961 1150.507 M 1757.008 1212.396 1814.961 1212.396 M 830.709 1274.286 830.709 1150.507 M 772.756 1212.396 830.709 1212.396" fill="none" stroke-width="20"/><use xlink:href="#HQ-JtW_YWlk3HUCJ0nWK_pad-33" x="3838.583" y="786.327"/><use xlink:href="#HQ-JtW_YWlk3HUCJ0nWK_pad-33" x="3838.583" y="886.327"/><use xlink:href="#HQ-JtW_YWlk3HUCJ0nWK_pad-33" x="3838.583" y="986.327"/><use xlink:href="#HQ-JtW_YWlk3HUCJ0nWK_pad-35" x="3893.701" y="1212.396"/><use xlink:href="#HQ-JtW_YWlk3HUCJ0nWK_pad-35" x="3783.465" y="1212.396"/><use xlink:href="#HQ-JtW_YWlk3HUCJ0nWK_pad-33" x="2854.331" y="786.327"/><use xlink:href="#HQ-JtW_YWlk3HUCJ0nWK_pad-33" x="2854.331" y="886.327"/><use xlink:href="#HQ-JtW_YWlk3HUCJ0nWK_pad-33" x="2854.331" y="986.327"/><use xlink:href="#HQ-JtW_YWlk3HUCJ0nWK_pad-35" x="2909.449" y="1212.396"/><use xlink:href="#HQ-JtW_YWlk3HUCJ0nWK_pad-35" x="2799.213" y="1212.396"/><use xlink:href="#HQ-JtW_YWlk3HUCJ0nWK_pad-33" x="1870.079" y="786.327"/><use xlink:href="#HQ-JtW_YWlk3HUCJ0nWK_pad-33" x="1870.079" y="886.327"/><use xlink:href="#HQ-JtW_YWlk3HUCJ0nWK_pad-33" x="1870.079" y="986.327"/><use xlink:href="#HQ-JtW_YWlk3HUCJ0nWK_pad-35" x="1925.197" y="1212.396"/><use xlink:href="#HQ-JtW_YWlk3HUCJ0nWK_pad-35" x="1814.961" y="1212.396"/><use xlink:href="#HQ-JtW_YWlk3HUCJ0nWK_pad-33" x="885.827" y="786.327"/><use xlink:href="#HQ-JtW_YWlk3HUCJ0nWK_pad-33" x="885.827" y="886.327"/><use xlink:href="#HQ-JtW_YWlk3HUCJ0nWK_pad-33" x="885.827" y="986.327"/><use xlink:href="#HQ-JtW_YWlk3HUCJ0nWK_pad-35" x="940.945" y="1212.396"/><use xlink:href="#HQ-JtW_YWlk3HUCJ0nWK_pad-35" x="830.709" y="1212.396"/></g></svg>