<svg version="1.1" xmlns="http://www.w3.org/2000/svg" xmlns:xlink="http://www.w3.org/1999/xlink" stroke-linecap="round" stroke-linejoin="round" stroke-width="0" fill-rule="evenodd" width="3.8189in" height="0.8661in" viewBox="452.75 452.75 3818.9 866.1" id="ZF7oz1qLcF3-_PGjh277"><defs><circle cx="0" cy="0" r="9.55" id="ZF7oz1qLcF3-_PGjh277_pad-1"/><circle cx="0" cy="0" r="17.5" id="ZF7oz1qLcF3-_PGjh277_pad-2"/><circle cx="0" cy="0" r="59.05" id="ZF7oz1qLcF3-_PGjh277_pad-3"/></defs><g transform="translate(0,1771.6) scale(1,-1)" fill="currentColor" stroke="currentColor"><use xlink:href="#ZF7oz1qLcF3-_PGjh277_pad-1" x="743.1" y="1211.1"/><use xlink:href="#ZF7oz1qLcF3-_PGjh277_pad-1" x="942.8" y="1130"/><use xlink:href="#ZF7oz1qLcF3-_PGjh277_pad-1" x="1276" y="1173"/><use xlink:href="#ZF7oz1qLcF3-_PGjh277_pad-1" x="1535.6" y="936.6"/><use xlink:href="#ZF7oz1qLcF3-_PGjh277_pad-1" x="1404.6" y="836.7"/><use xlink:href="#ZF7oz1qLcF3-_PGjh277_pad-1" x="1688.5" y="708.8"/><use xlink:href="#ZF7oz1qLcF3-_PGjh277_pad-1" x="1807.1" y="658.9"/><use xlink:href="#ZF7oz1qLcF3-_PGjh277_pad-1" x="1732.2" y="1211.1"/><use xlink:href="#ZF7oz1qLcF3-_PGjh277_pad-1" x="1997.4" y="1211.1"/><use xlink:href="#ZF7oz1qLcF3-_PGjh277_pad-1" x="2711.9" y="1211.1"/><use xlink:href="#ZF7oz1qLcF3-_PGjh277_pad-1" x="2989.5" y="1211.1"/><use xlink:href="#ZF7oz1qLcF3-_PGjh277_pad-1" x="3697.8" y="1211.1"/><use xlink:href="#ZF7oz1qLcF3-_PGjh277_pad-1" x="3959.9" y="1211.1"/><use xlink:href="#ZF7oz1qLcF3-_PGjh277_pad-2" x="3838.6" y="786.3"/><use xlink:href="#ZF7oz1qLcF3-_PGjh277_pad-2" x="3838.6" y="886.3"/><use xlink:href="#ZF7oz1qLcF3-_PGjh277_pad-2" x="3838.6" y="986.3"/><use xlink:href="#ZF7oz1qLcF3-_PGjh277_pad-2" x="2854.3" y="986.3"/><use xlink:href="#ZF7oz1qLcF3-_PGjh277_pad-2" x="2854.3" y="886.3"/><use xlink:href="#ZF7oz1qLcF3-_PGjh277_pad-2" x="2854.3" y="786.3"/><use xlink:href="#ZF7oz1qLcF3-_PGjh277_pad-2" x="1870.1" y="786.3"/><use xlink:href="#ZF7oz1qLcF3-_PGjh277_pad-2" x="1870.1" y="886.3"/><use xlink:href="#ZF7oz1qLcF3-_PGjh277_pad-2" x="1870.1" y="986.3"/><use xlink:href="#ZF7oz1qLcF3-_PGjh277_pad-2" x="885.8" y="986.3"/><use xlink:href="#ZF7oz1qLcF3-_PGjh277_pad-2" x="885.8" y="886.3"/><use xlink:href="#ZF7oz1qLcF3-_PGjh277_pad-2" x="885.8" y="786.3"/><use xlink:href="#ZF7oz1qLcF3-_PGjh277_pad-3" x="511.8" y="511.8"/><use xlink:href="#ZF7oz1qLcF3-_PGjh277_pad-3" x="511.8" y="1259.8"/><use xlink:href="#ZF7oz1qLcF3-_PGjh277_pad-3" x="4212.6" y="1259.8"/><use xlink:href="#ZF7oz1qLcF3-_PGjh277_pad-3" x="4212.6" y="511.8"/></g></svg>