<svg version="1.1" xmlns="http://www.w3.org/2000/svg" xmlns:xlink="http://www.w3.org/1999/xlink" stroke-linecap="round" stroke-linejoin="round" stroke-width="0" fill-rule="evenodd" width="3.464622in" height="0.9291889999999999in" viewBox="629.894 421.232 3464.622 929.189" id="sKhkGDAMIhlVLaMdwbql"><defs><circle cx="0" cy="0" r="20" id="sKhkGDAMIhlVLaMdwbql_pad-36"/><rect x="-62.5985" y="-25" width="125.197" height="50" id="sKhkGDAMIhlVLaMdwbql_pad-18"/><circle cx="0" cy="0" r="40" id="sKhkGDAMIhlVLaMdwbql_pad-33"/><rect x="-35.433" y="-31.496" width="70.866" height="62.992" id="sKhkGDAMIhlVLaMdwbql_pad-34"/></defs><g transform="translate(0,1771.653) scale(1,-1)" fill="currentColor" stroke="currentColor"><path d="M 3962.98 987.52 3962.98 1208.021 3959.861 1211.14 M 2989.541 987.52 2989.541 1211.14 M 1997.381 987.52 1997.381 1211.14 M 764.98 987.52 764.98 1023.94 824.261 1083.221 896.021 1083.221 942.821 1130.021 M 3962.98 877.283 3962.98 814.9 3934.9 786.82 3839.076 786.82 3838.583 786.327 3766.915 786.327 3735.22 818.021 3735.22 862.535 3720.472 877.283 3612.672 877.283 3133.043 877.283 2939.621 683.861 1825.781 683.861 1800.82 658.9 1807.06 658.9 M 1535.621 936.581 1401.936 936.581 1401.181 935.827 M 2854.331 786.327 2951.606 786.327 2989.541 824.261 2989.541 877.283 M 2854.331 786.327 2777.874 786.327 2743.06 821.14 2743.06 870.444 2736.22 877.283 2628.42 877.283 2580.804 877.283 2412.341 708.82 1688.501 708.82 M 1404.581 836.74 1276.898 836.74 1275.984 835.827 M 1870.079 786.327 1950.087 786.327 1994.261 830.501 1994.261 874.164 1997.381 877.283 M 1870.079 786.327 1791.955 786.327 1760.261 818.021 1760.261 870.025 1754.021 876.265 1646.907 876.265 1645.888 877.283 1645.888 825.328 1557.461 736.9 1402.255 736.9 1401.181 735.827 M 885.827 786.327 812.276 786.327 768.101 830.501 768.101 874.163 764.98 877.283 M 885.827 786.327 927.762 786.327 1017.701 876.265 1125.865 876.265 1126.9 877.301 M 1275.984 635.827 1275.984 656.458 1130.021 802.421 1130.021 874.18 1126.9 877.301" fill="none" stroke-width="12"/><path d="M 1275.984 1035.827 1275.984 1173.024" fill="none" stroke-width="22"/><use xlink:href="#sKhkGDAMIhlVLaMdwbql_pad-36" x="3959.861" y="1211.14"/><use xlink:href="#sKhkGDAMIhlVLaMdwbql_pad-36" x="2989.541" y="1211.14"/><use xlink:href="#sKhkGDAMIhlVLaMdwbql_pad-36" x="1997.381" y="1211.14"/><use xlink:href="#sKhkGDAMIhlVLaMdwbql_pad-36" x="942.821" y="1130.021"/><use xlink:href="#sKhkGDAMIhlVLaMdwbql_pad-36" x="1807.06" y="658.9"/><use xlink:href="#sKhkGDAMIhlVLaMdwbql_pad-36" x="1535.621" y="936.581"/><use xlink:href="#sKhkGDAMIhlVLaMdwbql_pad-36" x="1688.501" y="708.82"/><use xlink:href="#sKhkGDAMIhlVLaMdwbql_pad-36" x="1404.581" y="836.74"/><use xlink:href="#sKhkGDAMIhlVLaMdwbql_pad-36" x="1275.984" y="1173.024"/><use xlink:href="#sKhkGDAMIhlVLaMdwbql_pad-36" x="1275.984" y="1173.024"/><use xlink:href="#sKhkGDAMIhlVLaMdwbql_pad-36" x="743.141" y="1211.141"/><use xlink:href="#sKhkGDAMIhlVLaMdwbql_pad-36" x="1732.181" y="1211.14"/><use xlink:href="#sKhkGDAMIhlVLaMdwbql_pad-36" x="2711.861" y="1211.14"/><use xlink:href="#sKhkGDAMIhlVLaMdwbql_pad-36" x="3697.781" y="1211.14"/><path d="M 644.939 1313.025 4079.474 1313.025 M 644.939 1288.156 4079.474 1288.156 M 644.939 1263.287 4079.474 1263.287 M 644.939 1238.419 1957.248 1238.419 M 2037.533 1238.419 2949.41 1238.419 M 3029.695 1238.419 3919.718 1238.419 M 4000.003 1238.419 4079.474 1238.419 M 644.939 1213.55 1250.688 1213.55 M 1301.261 1213.55 1948.456 1213.55 M 2046.324 1213.55 2940.618 1213.55 M 3038.486 1213.55 3910.926 1213.55 M 4008.795 1213.55 4079.474 1213.55 M 644.939 1188.681 1229.696 1188.681 M 1322.253 1188.681 1954.162 1188.681 M 2040.583 1188.681 2946.324 1188.681 M 3032.745 1188.681 3916.668 1188.681 M 4003.053 1188.681 4079.474 1188.681 M 644.939 1163.812 908.389 1163.812 M 977.263 1163.812 1227.902 1163.812 M 1492.775 1163.812 1962.379 1163.812 M 2032.365 1163.812 2954.541 1163.812 M 3024.527 1163.812 3927.971 1163.812 M 3997.958 1163.812 4079.474 1163.812 M 644.939 1138.944 894.681 1138.944 M 990.935 1138.944 1235.976 1138.944 M 1492.775 1138.944 1962.379 1138.944 M 2032.365 1138.944 2954.541 1138.944 M 3024.527 1138.944 3927.971 1138.944 M 3997.958 1138.944 4079.474 1138.944 M 644.939 1114.075 811.573 1114.075 M 988.997 1114.075 1235.976 1114.075 M 1492.775 1114.075 1962.379 1114.075 M 2032.365 1114.075 2954.541 1114.075 M 3024.527 1114.075 3927.971 1114.075 M 3997.958 1114.075 4079.474 1114.075 M 644.939 1089.206 781.789 1089.206 M 967.574 1089.206 1235.976 1089.206 M 1492.775 1089.206 1962.379 1089.206 M 2032.365 1089.206 2954.541 1089.206 M 3024.527 1089.206 3927.971 1089.206 M 3997.958 1089.206 4079.474 1089.206 M 644.939 1064.337 756.922 1064.337 M 925.589 1064.337 1184.41 1064.337 M 1367.575 1064.337 1962.379 1064.337 M 2032.365 1064.337 2954.541 1064.337 M 3024.527 1064.337 3927.971 1064.337 M 3997.958 1064.337 4079.474 1064.337 M 644.939 1039.469 700.548 1039.469 M 928.281 1039.469 953.28 1039.469 M 1367.575 1039.469 1581.468 1039.469 M 1912.548 1039.469 1932.954 1039.469 M 2061.79 1039.469 2563.978 1039.469 M 2896.78 1039.469 2925.116 1039.469 M 3053.952 1039.469 3548.245 1039.469 M 3881.047 1039.469 3898.546 1039.469 M 4027.418 1039.469 4079.474 1039.469 M 644.939 1014.6 700.548 1014.6 M 1367.575 1014.6 1581.468 1014.6 M 2061.79 1014.6 2563.978 1014.6 M 3053.952 1014.6 3548.245 1014.6 M 4027.418 1014.6 4079.474 1014.6 M 644.939 989.731 700.548 989.731 M 1367.575 989.731 1581.468 989.731 M 2061.79 989.731 2563.978 989.731 M 3053.952 989.731 3548.245 989.731 M 4027.418 989.731 4079.474 989.731 M 644.939 964.862 700.548 964.862 M 2061.79 964.862 2563.978 964.862 M 3053.952 964.862 3548.245 964.862 M 4027.418 964.862 4079.474 964.862 M 644.939 939.993 700.548 939.993 M 936.032 939.993 953.28 939.993 M 1920.263 939.993 1932.954 939.993 M 2061.79 939.993 2563.978 939.993 M 2904.531 939.993 2925.116 939.993 M 3053.952 939.993 3548.245 939.993 M 4027.418 939.993 4079.474 939.993 M 644.939 915.125 700.548 915.125 M 2061.79 915.125 2563.978 915.125 M 3053.952 915.125 3548.245 915.125 M 4027.418 915.125 4079.474 915.125 M 644.939 890.256 700.548 890.256 M 1492.775 890.256 1529.185 890.256 M 1542.069 890.256 1581.468 890.256 M 2061.79 890.256 2545.318 890.256 M 3053.952 890.256 3097.575 890.256 M 4027.418 890.256 4079.474 890.256 M 644.939 865.387 700.548 865.387 M 1443.685 865.387 1581.468 865.387 M 2061.79 865.387 2520.45 865.387 M 3053.952 865.387 3072.708 865.387 M 4027.418 865.387 4079.474 865.387 M 644.939 840.518 700.548 840.518 M 1453.41 840.518 1581.468 840.518 M 2061.79 840.518 2495.582 840.518 M 2905.033 840.518 2925.116 840.518 M 3144.739 840.518 3548.245 840.518 M 4027.418 840.518 4079.474 840.518 M 644.939 815.65 736.719 815.65 M 1005.539 815.65 1095.022 815.65 M 1448.53 815.65 1587.748 815.65 M 1679.409 815.65 1725.364 815.65 M 2025.655 815.65 2470.715 815.65 M 3119.872 815.65 3700.322 815.65 M 3997.958 815.65 4079.474 815.65 M 644.939 790.781 759.362 790.781 M 980.672 790.781 1097.176 790.781 M 1367.575 790.781 1395.05 790.781 M 1414.09 790.781 1562.88 790.781 M 1659.78 790.781 1739.036 790.781 M 2002.976 790.781 2445.847 790.781 M 3095.004 790.781 3713.994 790.781 M 3987.3 790.781 4079.474 790.781 M 644.939 765.912 784.23 765.912 M 955.804 765.912 1118.096 765.912 M 1634.912 765.912 1763.904 765.912 M 1978.108 765.912 2420.979 765.912 M 3070.136 765.912 3738.862 765.912 M 3962.432 765.912 4079.474 765.912 M 644.939 741.043 834.647 741.043 M 937.001 741.043 1142.964 741.043 M 1610.044 741.043 1652.483 741.043 M 3045.268 741.043 3787.377 741.043 M 3889.767 741.043 4079.474 741.043 M 644.939 716.175 1167.831 716.175 M 1585.177 716.175 1640.103 716.175 M 3020.401 716.175 4079.474 716.175 M 644.939 691.306 1192.699 691.306 M 1492.775 691.306 1642.938 691.306 M 2995.533 691.306 4079.474 691.306 M 644.939 666.437 1184.41 666.437 M 1367.575 666.437 1666.909 666.437 M 1710.125 666.437 1758.7 666.437 M 2970.665 666.437 4079.474 666.437 M 644.939 641.568 1184.41 641.568 M 1367.575 641.568 1761.428 641.568 M 1852.693 641.568 4079.474 641.568 M 644.939 616.699 1184.41 616.699 M 1367.575 616.699 1785.039 616.699 M 1829.081 616.699 4079.474 616.699 M 644.939 591.831 1184.41 591.831 M 1367.575 591.831 4079.474 591.831 M 644.939 566.962 4079.474 566.962 M 644.939 542.093 4079.474 542.093 M 644.939 517.224 4079.474 517.224 M 644.939 492.356 4079.474 492.356 M 644.939 467.487 4079.474 467.487 M 644.939 442.618 4079.474 442.618 M 1196.08 687.319 1199.202 687.319 1105.314 781.319 1102.317 785.444 1100.002 789.987 1098.426 794.836 1097.629 799.872 1097.529 819.323 1079.63 819.312 1079.626 818.277 1005.669 818.277 948.857 761.613 945.072 756.14 939.62 747.244 932.844 739.31 924.91 732.534 916.014 727.082 906.374 723.089 896.228 720.653 885.827 719.835 875.425 720.653 865.28 723.089 855.64 727.082 846.744 732.534 838.81 739.31 832.034 747.244 827.867 753.845 809.726 753.935 804.69 754.732 799.841 756.308 795.298 758.623 791.174 761.619 745.126 807.526 741.814 811.403 739.15 815.75 738.079 818.076 735.042 819.295 703.055 819.295 703.055 1045.508 740.698 1045.508 801.285 1106.196 805.162 1109.508 809.51 1112.172 814.22 1114.123 819.178 1115.313 824.261 1115.713 882.573 1115.713 896.313 1129.464 896.901 1137.294 898.604 1144.388 901.396 1151.128 905.208 1157.348 909.946 1162.896 915.493 1167.634 921.714 1171.446 928.454 1174.237 935.548 1175.941 942.821 1176.513 950.094 1175.941 957.188 1174.237 963.928 1171.446 970.148 1167.634 975.696 1162.896 980.434 1157.348 984.246 1151.128 987.037 1144.388 988.741 1137.294 989.313 1130.021 988.741 1122.748 987.037 1115.654 984.246 1108.914 980.434 1102.693 975.696 1097.146 970.148 1092.408 963.928 1088.596 957.188 1085.804 950.094 1084.101 942.294 1083.549 917.123 1058.514 912.998 1055.517 908.455 1053.202 903.606 1051.626 901.349 1050.982 911.272 1047.757 920.569 1043.021 929.01 1036.888 936.388 1029.51 942.521 1021.069 947.257 1011.772 950.482 1001.849 952.114 991.544 952.114 981.11 950.482 970.804 947.257 960.881 942.521 951.585 936.388 943.144 929.624 936.333 936.388 929.51 942.521 921.069 947.257 911.772 950.482 901.849 952.114 891.544 952.114 881.11 950.482 870.804 947.257 860.881 942.521 851.585 936.388 843.144 929.624 836.333 937.266 841.781 955.763 860.279 955.776 1044.489 1064.971 1044.489 1064.975 1045.525 1186.888 1045.525 1186.894 1087.319 1238.459 1087.319 1238.371 1145.696 1234.559 1151.917 1231.768 1158.657 1230.065 1165.751 1229.492 1173.024 1230.065 1180.297 1231.768 1187.39 1234.559 1194.131 1238.371 1200.351 1243.109 1205.899 1248.657 1210.637 1254.877 1214.448 1261.617 1217.24 1268.711 1218.943 1275.984 1219.516 1283.257 1218.943 1290.351 1217.24 1297.091 1214.448 1303.312 1210.637 1308.859 1205.899 1313.597 1200.351 1317.409 1194.131 1320.22 1187.322 1490.272 1187.319 1490.272 1084.335 1365.072 1084.335 1365.075 987.31 1490.272 987.319 1490.272 969.054 1502.376 969.074 1508.293 974.194 1514.514 978.006 1521.254 980.798 1528.348 982.501 1535.621 983.073 1542.894 982.501 1549.988 980.798 1556.728 978.006 1562.948 974.194 1568.496 969.456 1573.234 963.909 1577.046 957.688 1579.837 950.948 1581.54 943.854 1582.113 936.581 1581.54 929.308 1579.837 922.215 1577.046 915.474 1573.234 909.254 1568.496 903.706 1562.948 898.968 1556.728 895.157 1549.988 892.365 1542.894 890.662 1535.621 890.089 1528.348 890.662 1521.254 892.365 1514.514 895.157 1508.293 898.968 1502.388 904.094 1490.299 904.089 1490.272 884.335 1365.072 884.335 1365.075 869.197 1371.309 869.232 1377.254 874.353 1383.474 878.165 1390.215 880.957 1397.308 882.66 1404.581 883.232 1411.854 882.66 1418.948 880.957 1425.688 878.165 1431.909 874.353 1437.456 869.615 1442.194 864.068 1446.006 857.847 1448.798 851.107 1450.501 844.013 1451.073 836.74 1450.501 829.467 1448.798 822.373 1446.006 815.633 1442.194 809.413 1437.456 803.865 1431.909 799.127 1425.688 795.315 1418.948 792.524 1411.854 790.82 1404.581 790.248 1397.308 790.82 1390.215 792.524 1383.474 795.315 1377.254 799.127 1371.348 804.253 1365.073 804.248 1365.075 787.31 1490.272 787.319 1490.272 769.413 1544.033 769.392 1593.886 819.276 1583.963 819.295 1583.963 1045.508 1707.814 1045.508 1707.814 1044.496 1815.946 1044.489 1815.946 1024.932 1819.518 1029.51 1826.896 1036.888 1835.337 1043.021 1844.633 1047.757 1854.556 1050.982 1864.862 1052.614 1875.296 1052.614 1885.601 1050.982 1895.524 1047.757 1904.821 1043.021 1913.262 1036.888 1920.64 1029.51 1926.773 1021.069 1931.509 1011.772 1934.734 1001.849 1935.454 998.229 1935.455 1045.508 1964.916 1045.508 1964.888 1177.885 1959.768 1183.813 1955.956 1190.033 1953.164 1196.774 1951.461 1203.867 1950.888 1211.14 1951.461 1218.413 1953.164 1225.507 1955.956 1232.247 1959.768 1238.468 1964.506 1244.015 1970.053 1248.753 1976.274 1252.565 1983.014 1255.357 1990.108 1257.06 1997.381 1257.633 2004.654 1257.06 2011.747 1255.357 2018.488 1252.565 2024.708 1248.753 2030.255 1244.015 2034.993 1238.468 2038.805 1232.247 2041.597 1225.507 2043.3 1218.413 2043.873 1211.14 2043.3 1203.867 2041.597 1196.774 2038.805 1190.033 2034.993 1183.813 2029.868 1177.907 2029.873 1045.535 2059.306 1045.508 2059.306 819.295 2024.749 819.295 2021.965 813.524 2018.968 809.399 1973.062 763.351 1969.185 760.04 1964.838 757.376 1960.127 755.425 1955.17 754.235 1950.077 753.835 1928.09 753.835 1923.872 747.244 1918.937 741.302 2398.901 741.312 2559.702 901.991 2563.827 904.988 2566.062 906.238 2566.495 911.159 2566.495 1045.508 2798.146 1045.508 2798.146 1021.889 2803.77 1029.51 2811.148 1036.888 2819.589 1043.021 2828.885 1047.757 2838.808 1050.982 2849.114 1052.614 2859.548 1052.614 2869.853 1050.982 2879.776 1047.757 2889.073 1043.021 2897.514 1036.888 2904.892 1029.51 2911.025 1021.069 2915.761 1011.772 2918.986 1001.849 2920.618 991.544 2920.618 981.11 2918.986 970.804 2915.761 960.881 2911.025 951.585 2904.892 943.144 2898.128 936.333 2904.892 929.51 2911.025 921.069 2915.761 911.772 2918.986 901.849 2920.618 891.544 2920.618 881.11 2918.986 870.804 2915.761 860.881 2911.025 851.585 2904.892 843.144 2898.128 836.333 2904.892 829.51 2911.025 821.069 2912.29 818.809 2938.12 818.819 2927.616 819.295 2927.616 1045.508 2957.077 1045.508 2957.049 1177.885 2951.928 1183.813 2948.116 1190.033 2945.324 1196.774 2943.621 1203.867 2943.049 1211.14 2943.621 1218.413 2945.324 1225.507 2948.116 1232.247 2951.928 1238.468 2956.666 1244.015 2962.213 1248.753 2968.434 1252.565 2975.174 1255.357 2982.268 1257.06 2989.541 1257.633 2996.814 1257.06 3003.908 1255.357 3010.648 1252.565 3016.868 1248.753 3022.416 1244.015 3027.154 1238.468 3030.965 1232.247 3033.757 1225.507 3035.46 1218.413 3036.033 1211.14 3035.46 1203.867 3033.757 1196.774 3030.965 1190.033 3027.154 1183.813 3022.028 1177.907 3022.033 1045.535 3051.466 1045.508 3051.466 841.65 3111.941 901.991 3116.066 904.988 3120.609 907.302 3125.458 908.878 3130.494 909.676 3197.348 909.776 3550.771 909.776 3550.747 1045.508 3782.398 1045.508 3782.398 1021.889 3788.022 1029.51 3795.399 1036.888 3803.841 1043.021 3813.137 1047.757 3823.06 1050.982 3833.366 1052.614 3843.8 1052.614 3854.105 1050.982 3864.028 1047.757 3873.325 1043.021 3881.766 1036.888 3889.144 1029.51 3895.277 1021.069 3900.013 1011.772 3901.051 1008.96 3901.055 1045.508 3930.516 1045.508 3930.488 1175.086 3924.508 1180.946 3920.22 1186.848 3916.908 1193.349 3914.653 1200.287 3913.512 1207.493 3913.512 1214.788 3914.653 1221.994 3916.908 1228.932 3920.22 1235.432 3924.508 1241.335 3929.667 1246.493 3935.569 1250.781 3942.069 1254.094 3949.008 1256.348 3956.213 1257.489 3963.509 1257.489 3970.714 1256.348 3977.653 1254.094 3984.153 1250.781 3990.055 1246.493 3995.214 1241.335 3999.502 1235.432 4002.814 1228.932 4005.068 1221.994 4006.21 1214.788 4006.21 1207.493 4005.068 1200.287 4002.814 1193.349 3999.502 1186.848 3995.47 1181.271 3995.472 1045.502 4024.906 1045.508 4024.906 819.295 3995.445 819.295 3995.372 812.351 3994.575 807.315 3992.999 802.466 3990.684 797.923 3987.688 793.798 3957.876 763.845 3953.999 760.533 3949.651 757.869 3944.941 755.918 3939.983 754.728 3934.9 754.328 3896.899 754.328 3892.376 747.244 3885.6 739.31 3877.666 732.534 3868.769 727.082 3859.13 723.089 3848.984 720.653 3838.583 719.835 3828.181 720.653 3818.035 723.089 3808.396 727.082 3799.5 732.534 3791.566 739.31 3784.789 747.244 3780.623 753.845 3764.365 753.935 3759.33 754.732 3754.48 756.308 3749.938 758.623 3745.813 761.619 3712.245 795.046 3708.934 798.923 3706.27 803.27 3704.319 807.98 3703.128 812.938 3702.728 819.277 3550.747 819.295 3550.747 844.809 3146.5 844.791 2960.723 659.154 2956.598 656.157 2952.055 653.842 2947.206 652.266 2942.17 651.469 2875.316 651.369 1852.94 651.369 1851.277 644.533 1848.485 637.793 1844.673 631.573 1839.935 626.025 1834.388 621.287 1828.167 617.475 1821.427 614.684 1814.333 612.981 1807.06 612.408 1799.787 612.981 1792.694 614.684 1785.953 617.475 1779.733 621.287 1774.185 626.025 1769.447 631.573 1765.636 637.793 1762.844 644.533 1761.141 651.627 1760.568 658.9 1761.141 666.173 1762.844 673.267 1763.974 676.331 1721.75 676.328 1715.829 671.207 1709.608 667.395 1702.868 664.604 1695.774 662.9 1688.501 662.328 1681.228 662.9 1674.134 664.604 1667.394 667.395 1661.174 671.207 1655.626 675.945 1650.888 681.493 1647.077 687.713 1644.285 694.453 1642.582 701.547 1642.009 708.82 1642.582 716.093 1644.285 723.187 1647.077 729.927 1650.888 736.148 1655.626 741.695 1661.174 746.433 1667.394 750.245 1674.134 753.037 1681.228 754.74 1688.501 755.312 1695.774 754.74 1702.868 753.037 1709.608 750.245 1715.829 746.433 1721.734 741.308 1821.165 741.312 1816.285 747.244 1812.119 753.845 1789.406 753.935 1784.37 754.732 1779.521 756.308 1774.978 758.623 1770.853 761.62 1737.286 795.046 1733.974 798.923 1731.31 803.27 1729.359 807.98 1728.169 812.938 1727.769 818.272 1692.096 818.277 1692.096 819.317 1677.85 819.295 1675.907 812.894 1673.593 808.351 1670.596 804.226 1623.394 756.883 1578.563 712.193 1574.438 709.196 1569.895 706.881 1565.046 705.306 1560.01 704.508 1490.25 704.408 1490.272 684.335 1365.072 684.335 1365.075 584.335 1186.894 584.335 1186.894 687.319 1196.08 687.319 M 1913.876 836.32 1920.64 829.51 1926.773 821.069 1928.038 818.809 1936.644 818.819 1935.455 819.295 1935.455 874.234 1933.317 865.78 1929.324 856.14 1923.872 847.244 1917.096 839.31 1913.876 836.333 M 1913.876 936.32 1920.64 929.51 1926.773 921.069 1931.509 911.772 1934.734 901.849 1935.454 898.229 1935.455 974.207 1933.317 965.78 1929.324 956.14 1923.872 947.244 1917.096 939.31 1913.876 936.333 M 1238.486 1145.551 1234.559 1151.917 1231.768 1158.657 1230.065 1165.751 1229.492 1173.024 1230.065 1180.297 1231.768 1187.39 1234.559 1194.131 1238.371 1200.351 1243.109 1205.899 1248.657 1210.637 1254.877 1214.448 1261.617 1217.24 1268.711 1218.943 1275.984 1219.516 1283.257 1218.943 1290.351 1217.24 1297.091 1214.448 1303.312 1210.637 1308.859 1205.899 1313.597 1200.351 1317.409 1194.131 1320.22 1187.322 M 642.445 433.76 4082.016 433.76 4081.988 1337.921 642.394 1337.894 642.421 433.732" fill="none" stroke-width="25"/><path d="M 1401.181 1187.283 1401.181 1084.37 M 1401.181 1135.827 1490.236 1135.827 M 3612.672 1045.472 3612.672 987.52 M 3550.783 987.52 3612.672 987.52 M 3720.472 1045.472 3720.472 987.52 M 2628.42 1045.472 2628.42 987.52 M 2566.531 987.52 2628.42 987.52 M 2736.22 1045.472 2736.22 987.52 M 1754.021 1044.453 1754.021 986.501 M 1645.888 1045.472 1645.888 987.52 M 1583.999 987.52 1645.888 987.52 M 1017.701 1044.454 1017.701 986.501 M 955.812 986.501 1017.701 986.501 M 1126.9 1045.489 1126.9 987.537" fill="none" stroke-width="20"/><use xlink:href="#sKhkGDAMIhlVLaMdwbql_pad-18" x="1275.984" y="635.827"/><use xlink:href="#sKhkGDAMIhlVLaMdwbql_pad-18" x="1401.181" y="735.827"/><use xlink:href="#sKhkGDAMIhlVLaMdwbql_pad-18" x="1275.984" y="835.827"/><use xlink:href="#sKhkGDAMIhlVLaMdwbql_pad-18" x="1401.181" y="935.827"/><use xlink:href="#sKhkGDAMIhlVLaMdwbql_pad-18" x="1275.984" y="1035.827"/><use xlink:href="#sKhkGDAMIhlVLaMdwbql_pad-18" x="1401.181" y="1135.827"/><use xlink:href="#sKhkGDAMIhlVLaMdwbql_pad-33" x="3838.583" y="786.327"/><use xlink:href="#sKhkGDAMIhlVLaMdwbql_pad-33" x="3838.583" y="886.327"/><use xlink:href="#sKhkGDAMIhlVLaMdwbql_pad-33" x="3838.583" y="986.327"/><use xlink:href="#sKhkGDAMIhlVLaMdwbql_pad-34" x="3612.672" y="987.52"/><use xlink:href="#sKhkGDAMIhlVLaMdwbql_pad-34" x="3612.672" y="877.283"/><use xlink:href="#sKhkGDAMIhlVLaMdwbql_pad-34" x="3962.98" y="877.283"/><use xlink:href="#sKhkGDAMIhlVLaMdwbql_pad-34" x="3962.98" y="987.52"/><use xlink:href="#sKhkGDAMIhlVLaMdwbql_pad-34" x="3720.472" y="877.283"/><use xlink:href="#sKhkGDAMIhlVLaMdwbql_pad-34" x="3720.472" y="987.52"/><use xlink:href="#sKhkGDAMIhlVLaMdwbql_pad-33" x="2854.331" y="786.327"/><use xlink:href="#sKhkGDAMIhlVLaMdwbql_pad-33" x="2854.331" y="886.327"/><use xlink:href="#sKhkGDAMIhlVLaMdwbql_pad-33" x="2854.331" y="986.327"/><use xlink:href="#sKhkGDAMIhlVLaMdwbql_pad-34" x="2628.42" y="987.52"/><use xlink:href="#sKhkGDAMIhlVLaMdwbql_pad-34" x="2628.42" y="877.283"/><use xlink:href="#sKhkGDAMIhlVLaMdwbql_pad-34" x="2989.541" y="877.283"/><use xlink:href="#sKhkGDAMIhlVLaMdwbql_pad-34" x="2989.541" y="987.52"/><use xlink:href="#sKhkGDAMIhlVLaMdwbql_pad-34" x="2736.22" y="877.283"/><use xlink:href="#sKhkGDAMIhlVLaMdwbql_pad-34" x="2736.22" y="987.52"/><use xlink:href="#sKhkGDAMIhlVLaMdwbql_pad-33" x="1870.079" y="786.327"/><use xlink:href="#sKhkGDAMIhlVLaMdwbql_pad-33" x="1870.079" y="886.327"/><use xlink:href="#sKhkGDAMIhlVLaMdwbql_pad-33" x="1870.079" y="986.327"/><use xlink:href="#sKhkGDAMIhlVLaMdwbql_pad-34" x="1754.021" y="986.501"/><use xlink:href="#sKhkGDAMIhlVLaMdwbql_pad-34" x="1754.021" y="876.265"/><use xlink:href="#sKhkGDAMIhlVLaMdwbql_pad-34" x="1997.381" y="877.283"/><use xlink:href="#sKhkGDAMIhlVLaMdwbql_pad-34" x="1997.381" y="987.52"/><use xlink:href="#sKhkGDAMIhlVLaMdwbql_pad-34" x="1645.888" y="877.283"/><use xlink:href="#sKhkGDAMIhlVLaMdwbql_pad-34" x="1645.888" y="987.52"/><use xlink:href="#sKhkGDAMIhlVLaMdwbql_pad-33" x="885.827" y="786.327"/><use xlink:href="#sKhkGDAMIhlVLaMdwbql_pad-33" x="885.827" y="886.327"/><use xlink:href="#sKhkGDAMIhlVLaMdwbql_pad-33" x="885.827" y="986.327"/><use xlink:href="#sKhkGDAMIhlVLaMdwbql_pad-34" x="1017.701" y="986.501"/><use xlink:href="#sKhkGDAMIhlVLaMdwbql_pad-34" x="1017.701" y="876.265"/><use xlink:href="#sKhkGDAMIhlVLaMdwbql_pad-34" x="764.98" y="877.283"/><use xlink:href="#sKhkGDAMIhlVLaMdwbql_pad-34" x="764.98" y="987.52"/><use xlink:href="#sKhkGDAMIhlVLaMdwbql_pad-34" x="1126.9" y="877.301"/><use xlink:href="#sKhkGDAMIhlVLaMdwbql_pad-34" x="1126.9" y="987.537"/></g></svg>