<svg version="1.1" xmlns="http://www.w3.org/2000/svg" xmlns:xlink="http://www.w3.org/1999/xlink" stroke-linecap="round" stroke-linejoin="round" stroke-width="0" fill-rule="evenodd" width="3.8188969999999998in" height="0.8661420000000001in" viewBox="452.756 452.756 3818.897 866.142" id="T7RlA3lLL671uEm-V4Gm"><defs><rect x="-66.5355" y="-28.937" width="133.071" height="57.874" id="T7RlA3lLL671uEm-V4Gm_pad-49"/><circle cx="0" cy="0" r="43.937" id="T7RlA3lLL671uEm-V4Gm_pad-47"/><rect x="-39.37" y="-35.433" width="78.74" height="70.866" id="T7RlA3lLL671uEm-V4Gm_pad-45"/><circle cx="0" cy="0" r="59.055" id="T7RlA3lLL671uEm-V4Gm_pad-38"/></defs><g transform="translate(0,1771.654) scale(1,-1)" fill="currentColor" stroke="currentColor"><use xlink:href="#T7RlA3lLL671uEm-V4Gm_pad-49" x="1275.984" y="635.827"/><use xlink:href="#T7RlA3lLL671uEm-V4Gm_pad-49" x="1401.181" y="735.827"/><use xlink:href="#T7RlA3lLL671uEm-V4Gm_pad-49" x="1275.984" y="835.827"/><use xlink:href="#T7RlA3lLL671uEm-V4Gm_pad-49" x="1401.181" y="935.827"/><use xlink:href="#T7RlA3lLL671uEm-V4Gm_pad-49" x="1275.984" y="1035.827"/><use xlink:href="#T7RlA3lLL671uEm-V4Gm_pad-49" x="1401.181" y="1135.827"/><use xlink:href="#T7RlA3lLL671uEm-V4Gm_pad-47" x="3838.583" y="786.327"/><use xlink:href="#T7RlA3lLL671uEm-V4Gm_pad-47" x="3838.583" y="886.327"/><use xlink:href="#T7RlA3lLL671uEm-V4Gm_pad-47" x="3838.583" y="986.327"/><use xlink:href="#T7RlA3lLL671uEm-V4Gm_pad-45" x="3612.672" y="987.52"/><use xlink:href="#T7RlA3lLL671uEm-V4Gm_pad-45" x="3612.672" y="877.283"/><use xlink:href="#T7RlA3lLL671uEm-V4Gm_pad-45" x="3962.98" y="877.283"/><use xlink:href="#T7RlA3lLL671uEm-V4Gm_pad-45" x="3962.98" y="987.52"/><use xlink:href="#T7RlA3lLL671uEm-V4Gm_pad-45" x="3720.472" y="877.283"/><use xlink:href="#T7RlA3lLL671uEm-V4Gm_pad-45" x="3720.472" y="987.52"/><use xlink:href="#T7RlA3lLL671uEm-V4Gm_pad-47" x="2854.331" y="786.327"/><use xlink:href="#T7RlA3lLL671uEm-V4Gm_pad-47" x="2854.331" y="886.327"/><use xlink:href="#T7RlA3lLL671uEm-V4Gm_pad-47" x="2854.331" y="986.327"/><use xlink:href="#T7RlA3lLL671uEm-V4Gm_pad-45" x="2628.42" y="987.52"/><use xlink:href="#T7RlA3lLL671uEm-V4Gm_pad-45" x="2628.42" y="877.283"/><use xlink:href="#T7RlA3lLL671uEm-V4Gm_pad-45" x="2989.541" y="877.283"/><use xlink:href="#T7RlA3lLL671uEm-V4Gm_pad-45" x="2989.541" y="987.52"/><use xlink:href="#T7RlA3lLL671uEm-V4Gm_pad-45" x="2736.22" y="877.283"/><use xlink:href="#T7RlA3lLL671uEm-V4Gm_pad-45" x="2736.22" y="987.52"/><use xlink:href="#T7RlA3lLL671uEm-V4Gm_pad-47" x="1870.079" y="786.327"/><use xlink:href="#T7RlA3lLL671uEm-V4Gm_pad-47" x="1870.079" y="886.327"/><use xlink:href="#T7RlA3lLL671uEm-V4Gm_pad-47" x="1870.079" y="986.327"/><use xlink:href="#T7RlA3lLL671uEm-V4Gm_pad-45" x="1754.021" y="986.501"/><use xlink:href="#T7RlA3lLL671uEm-V4Gm_pad-45" x="1754.021" y="876.265"/><use xlink:href="#T7RlA3lLL671uEm-V4Gm_pad-45" x="1997.381" y="877.283"/><use xlink:href="#T7RlA3lLL671uEm-V4Gm_pad-45" x="1997.381" y="987.52"/><use xlink:href="#T7RlA3lLL671uEm-V4Gm_pad-45" x="1645.888" y="877.283"/><use xlink:href="#T7RlA3lLL671uEm-V4Gm_pad-45" x="1645.888" y="987.52"/><use xlink:href="#T7RlA3lLL671uEm-V4Gm_pad-47" x="885.827" y="786.327"/><use xlink:href="#T7RlA3lLL671uEm-V4Gm_pad-47" x="885.827" y="886.327"/><use xlink:href="#T7RlA3lLL671uEm-V4Gm_pad-47" x="885.827" y="986.327"/><use xlink:href="#T7RlA3lLL671uEm-V4Gm_pad-45" x="1017.701" y="986.501"/><use xlink:href="#T7RlA3lLL671uEm-V4Gm_pad-45" x="1017.701" y="876.265"/><use xlink:href="#T7RlA3lLL671uEm-V4Gm_pad-45" x="764.98" y="877.283"/><use xlink:href="#T7RlA3lLL671uEm-V4Gm_pad-45" x="764.98" y="987.52"/><use xlink:href="#T7RlA3lLL671uEm-V4Gm_pad-45" x="1126.9" y="877.301"/><use xlink:href="#T7RlA3lLL671uEm-V4Gm_pad-45" x="1126.9" y="987.537"/><use xlink:href="#T7RlA3lLL671uEm-V4Gm_pad-38" x="511.811" y="511.811"/><use xlink:href="#T7RlA3lLL671uEm-V4Gm_pad-38" x="511.811" y="1259.843"/><use xlink:href="#T7RlA3lLL671uEm-V4Gm_pad-38" x="4212.598" y="1259.843"/><use xlink:href="#T7RlA3lLL671uEm-V4Gm_pad-38" x="4212.598" y="511.811"/></g></svg>