<svg version="1.1" xmlns="http://www.w3.org/2000/svg" xmlns:xlink="http://www.w3.org/1999/xlink" stroke-linecap="round" stroke-linejoin="round" stroke-width="0" fill-rule="evenodd" width="3.297843in" height="0.834619in" viewBox="715.0585 471.2745 3297.843 834.619" id="T0dBhPi_M7lULa4Yf4fD"><defs><rect x="-22.335" y="-21.8685" width="44.67" height="43.737" rx="21.8685" ry="21.8685" id="T0dBhPi_M7lULa4Yf4fD_pad-17"/><circle cx="0" cy="0" r="7.792" id="T0dBhPi_M7lULa4Yf4fD_pad-19"/><circle cx="0" cy="0" r="16.3885" id="T0dBhPi_M7lULa4Yf4fD_pad-20"/><circle cx="0" cy="0" r="6.2555" id="T0dBhPi_M7lULa4Yf4fD_pad-21"/><circle cx="0" cy="0" r="6.2555" id="T0dBhPi_M7lULa4Yf4fD_pad-22"/><circle cx="0" cy="0" r="6.219" id="T0dBhPi_M7lULa4Yf4fD_pad-23"/><circle cx="0" cy="0" r="6.219" id="T0dBhPi_M7lULa4Yf4fD_pad-24"/><circle cx="0" cy="0" r="6.987" id="T0dBhPi_M7lULa4Yf4fD_pad-25"/><rect x="-7.792" y="-7.022" width="15.584" height="14.044" rx="7.022" ry="7.022" id="T0dBhPi_M7lULa4Yf4fD_pad-26"/><rect x="-13.2425" y="-16.3815" width="26.485" height="32.763" rx="13.2425" ry="13.2425" id="T0dBhPi_M7lULa4Yf4fD_pad-27"/><rect x="-3.9145" y="-3.1235" width="7.829" height="6.247" rx="3.1235" ry="3.1235" id="T0dBhPi_M7lULa4Yf4fD_pad-28"/><circle cx="0" cy="0" r="7.0235" id="T0dBhPi_M7lULa4Yf4fD_pad-29"/><rect x="-7.8285" y="-7.022" width="15.657" height="14.044" rx="7.022" ry="7.022" id="T0dBhPi_M7lULa4Yf4fD_pad-30"/><rect x="-6.219" y="-7.022" width="12.438" height="14.044" rx="6.219" ry="6.219" id="T0dBhPi_M7lULa4Yf4fD_pad-31"/><rect x="-6.219" y="-5.4605" width="12.438" height="10.921" rx="5.4605" ry="5.4605" id="T0dBhPi_M7lULa4Yf4fD_pad-32"/></defs><g transform="translate(0,1777.1680000000001) scale(1,-1)" fill="currentColor" stroke="currentColor"><use xlink:href="#T0dBhPi_M7lULa4Yf4fD_pad-17" x="1435.911" y="1213.958"/><path d="M 1289.556 680.238 1289.556 790.524 M 1289.556 585.94 1289.556 593.673 M 1289.556 585.94 1387.61 585.94 1387.61 692.131 M 1387.61 778.696 1387.61 892.816 M 1289.556 880.274 1289.556 990.559 M 1387.61 978.666 1387.61 1092.852 M 1289.556 1080.374 1289.556 1185.85 M 1387.61 1178.832 1387.61 1185.85 1289.556 1185.85" fill="none" stroke-width="9.843"/><use xlink:href="#T0dBhPi_M7lULa4Yf4fD_pad-19" x="3102.644" y="615.215"/><path d="M 2935.72 644.854 3020.079 788.62 3085.707 644.854 2935.72 644.854"/><path d="M 3099.535 782.13 3158.798 782.13 3166.626 780.579 3177.528 775.905 3185.356 771.231 3193.112 764.984 3197.794 758.737 3202.477 749.389 3204.013 741.569 3205.623 730.671 3204.013 721.3 3199.331 710.379 3193.112 704.133 3185.356 697.908 3175.991 693.212 3168.163 690.11 3216.524 644.854 3099.535 644.854 3099.535 782.13"/><path d="M 3197.794 782.13 3341.342 782.13 3321.075 743.142 3292.98 738.468 3283.615 646.427 3257.057 646.427 3247.692 738.468 3219.67 743.142 3197.794 782.13"/><path d="M 3355.389 724.424 3375.656 724.424 3395.922 644.854 3336.659 644.854 3355.389 724.424"/><path d="M 3512.912 671.37 3444.284 708.829 3512.912 744.693 3503.547 755.614 3494.182 761.861 3481.744 768.108 3469.233 771.231 3455.185 771.231 3442.747 768.108 3430.236 763.411 3419.335 755.614 3409.97 744.693 3403.751 733.772 3400.605 721.3 3399.068 708.829 3400.605 694.785 3403.751 682.291 3411.506 669.819 3420.871 660.471 3431.773 652.651 3444.284 647.977 3455.185 644.854 3469.233 644.854 3481.744 647.977 3495.791 654.224 3512.912 671.37"/><path d="M 3514.448 646.427 3578.467 791.5 3667.361 644.854 3514.448 646.427"/><use xlink:href="#T0dBhPi_M7lULa4Yf4fD_pad-20" x="3365.486" y="767.321"/><path d="M 3018.396 615.215 3030.907 615.215 3030.907 577.778 3018.396 577.778 3018.396 615.215"/><use xlink:href="#T0dBhPi_M7lULa4Yf4fD_pad-21" x="3024.651" y="616.776"/><use xlink:href="#T0dBhPi_M7lULa4Yf4fD_pad-22" x="3024.651" y="577.778"/><path d="M 3035.589 615.215 3048.027 615.215 3048.027 577.778 3035.589 577.778 3035.589 615.215"/><use xlink:href="#T0dBhPi_M7lULa4Yf4fD_pad-23" x="3041.808" y="616.776"/><use xlink:href="#T0dBhPi_M7lULa4Yf4fD_pad-24" x="3041.808" y="577.778"/><path d="M 3076.122 615.215 3088.633 615.215 3088.633 577.778 3076.122 577.778 3076.122 615.215"/><use xlink:href="#T0dBhPi_M7lULa4Yf4fD_pad-21" x="3082.378" y="616.776"/><use xlink:href="#T0dBhPi_M7lULa4Yf4fD_pad-22" x="3082.378" y="577.778"/><path d="M 3168.163 613.664 3180.674 613.664 3180.674 576.227 3168.163 576.227 3168.163 613.664"/><use xlink:href="#T0dBhPi_M7lULa4Yf4fD_pad-21" x="3174.418" y="615.226"/><use xlink:href="#T0dBhPi_M7lULa4Yf4fD_pad-21" x="3174.418" y="576.216"/><use xlink:href="#T0dBhPi_M7lULa4Yf4fD_pad-25" x="3139.299" y="597.272"/><use xlink:href="#T0dBhPi_M7lULa4Yf4fD_pad-26" x="3138.495" y="580.126"/><use xlink:href="#T0dBhPi_M7lULa4Yf4fD_pad-19" x="3548.799" y="615.215"/><path d="M 3155.652 623.012 3193.112 623.012 3193.112 610.541 3155.652 610.541 3155.652 623.012"/><use xlink:href="#T0dBhPi_M7lULa4Yf4fD_pad-21" x="3157.225" y="616.776"/><use xlink:href="#T0dBhPi_M7lULa4Yf4fD_pad-23" x="3191.575" y="616.776"/><path d="M 3205.623 615.215 3218.061 615.215 3218.061 577.778 3205.623 577.778 3205.623 615.215"/><use xlink:href="#T0dBhPi_M7lULa4Yf4fD_pad-23" x="3211.842" y="616.776"/><use xlink:href="#T0dBhPi_M7lULa4Yf4fD_pad-24" x="3211.842" y="577.778"/><path d="M 3260.203 615.215 3272.714 615.215 3272.714 596.496 3260.203 596.496 3260.203 615.215"/><use xlink:href="#T0dBhPi_M7lULa4Yf4fD_pad-21" x="3266.459" y="616.776"/><path d="M 3211.842 623.012 3246.156 623.012 3246.156 590.249 3211.842 590.249 3211.842 623.012"/><path d="M 3300.736 615.215 3313.247 615.215 3313.247 601.17 3300.736 601.17 3300.736 615.215"/><use xlink:href="#T0dBhPi_M7lULa4Yf4fD_pad-21" x="3306.991" y="616.776"/><use xlink:href="#T0dBhPi_M7lULa4Yf4fD_pad-27" x="3243.814" y="606.631"/><path d="M 3506.693 613.664 3519.131 613.664 3519.131 576.227 3506.693 576.227 3506.693 613.664"/><use xlink:href="#T0dBhPi_M7lULa4Yf4fD_pad-23" x="3512.912" y="615.226"/><use xlink:href="#T0dBhPi_M7lULa4Yf4fD_pad-23" x="3512.912" y="576.216"/><path d="M 3494.182 623.012 3531.642 623.012 3531.642 610.541 3494.182 610.541 3494.182 623.012"/><use xlink:href="#T0dBhPi_M7lULa4Yf4fD_pad-21" x="3495.755" y="616.776"/><use xlink:href="#T0dBhPi_M7lULa4Yf4fD_pad-21" x="3530.069" y="616.776"/><path d="M 3374.046 615.215 3386.557 615.215 3386.557 577.778 3374.046 577.778 3374.046 615.215"/><use xlink:href="#T0dBhPi_M7lULa4Yf4fD_pad-21" x="3380.302" y="616.776"/><use xlink:href="#T0dBhPi_M7lULa4Yf4fD_pad-22" x="3380.302" y="577.778"/><path d="M 3356.926 615.215 3369.437 615.215 3369.437 577.778 3356.926 577.778 3356.926 615.215"/><use xlink:href="#T0dBhPi_M7lULa4Yf4fD_pad-21" x="3363.181" y="616.776"/><use xlink:href="#T0dBhPi_M7lULa4Yf4fD_pad-22" x="3363.181" y="577.778"/><path d="M 3316.393 615.215 3328.831 615.215 3328.831 577.778 3316.393 577.778 3316.393 615.215"/><use xlink:href="#T0dBhPi_M7lULa4Yf4fD_pad-23" x="3322.612" y="616.776"/><use xlink:href="#T0dBhPi_M7lULa4Yf4fD_pad-24" x="3322.612" y="577.778"/><path d="M 3263.349 599.62 3272.714 599.62 3272.714 590.249 3263.349 590.249 3263.349 599.62"/><use xlink:href="#T0dBhPi_M7lULa4Yf4fD_pad-28" x="3342.11" y="591.822"/><use xlink:href="#T0dBhPi_M7lULa4Yf4fD_pad-29" x="3585.49" y="597.272"/><use xlink:href="#T0dBhPi_M7lULa4Yf4fD_pad-30" x="3584.686" y="580.126"/><path d="M 3550.372 623.012 3587.832 623.012 3587.832 610.541 3550.372 610.541 3550.372 623.012"/><use xlink:href="#T0dBhPi_M7lULa4Yf4fD_pad-23" x="3551.908" y="616.776"/><use xlink:href="#T0dBhPi_M7lULa4Yf4fD_pad-21" x="3586.259" y="616.776"/><path d="M 3545.689 604.294 3583.149 604.294 3583.149 593.373 3545.689 593.373 3545.689 604.294"/><use xlink:href="#T0dBhPi_M7lULa4Yf4fD_pad-31" x="3547.226" y="600.395"/><path d="M 3545.689 584.025 3583.149 584.025 3583.149 573.104 3545.689 573.104 3545.689 584.025"/><path d="M 3041.808 623.012 3085.487 584.025 3083.951 571.531 3077.659 574.654 3041.808 605.867 3041.808 623.012"/><path d="M 3430.236 615.215 3442.747 615.215 3442.747 577.778 3430.236 577.778 3430.236 615.215"/><use xlink:href="#T0dBhPi_M7lULa4Yf4fD_pad-21" x="3436.492" y="616.776"/><use xlink:href="#T0dBhPi_M7lULa4Yf4fD_pad-22" x="3436.492" y="577.778"/><path d="M 3470.769 615.215 3483.28 615.215 3483.28 577.778 3470.769 577.778 3470.769 615.215"/><use xlink:href="#T0dBhPi_M7lULa4Yf4fD_pad-21" x="3477.025" y="616.776"/><use xlink:href="#T0dBhPi_M7lULa4Yf4fD_pad-22" x="3477.025" y="577.778"/><path d="M 3436.455 623.012 3480.134 584.025 3478.598 571.531 3472.379 574.654 3436.455 605.867 3436.455 623.012"/><path d="M 3104.217 623.012 3141.604 623.012 3141.604 610.541 3104.217 610.541 3104.217 623.012"/><use xlink:href="#T0dBhPi_M7lULa4Yf4fD_pad-23" x="3105.754" y="616.776"/><use xlink:href="#T0dBhPi_M7lULa4Yf4fD_pad-23" x="3140.068" y="616.776"/><path d="M 3099.535 604.294 3136.995 604.294 3136.995 593.373 3099.535 593.373 3099.535 604.294"/><use xlink:href="#T0dBhPi_M7lULa4Yf4fD_pad-31" x="3101.071" y="600.395"/><use xlink:href="#T0dBhPi_M7lULa4Yf4fD_pad-32" x="3545.689" y="578.564"/><path d="M 3099.535 584.025 3136.995 584.025 3136.995 573.104 3099.535 573.104 3099.535 584.025"/><use xlink:href="#T0dBhPi_M7lULa4Yf4fD_pad-32" x="3099.535" y="578.564"/><use xlink:href="#T0dBhPi_M7lULa4Yf4fD_pad-23" x="3135.385" y="579.34"/><use xlink:href="#T0dBhPi_M7lULa4Yf4fD_pad-22" x="3249.265" y="577.778"/><path d="M 3224.353 591.822 3244.619 573.104 3253.984 582.452 3241.473 594.946 3224.353 591.822"/><path d="M 3285.152 571.531 3296.053 571.531 3307.028 579.351 3311.71 590.249 3313.247 602.743 3300.736 604.294 3299.199 591.822 3285.152 571.531"/><path d="M 3260.203 602.743 3260.203 587.148 3271.104 573.104 3288.298 571.531 3302.345 580.901 3294.517 585.575 3288.298 582.452 3278.933 584.025 3260.203 602.743"/><path d="M 3324.148 623.012 3342.878 605.867 3360.072 621.461 3366.291 612.091 3346.024 591.822 3338.196 591.822 3324.148 605.867 3324.148 623.012"/><path d="M 3094.852 613.664 3107.29 613.664 3107.29 601.17 3094.852 601.17 3094.852 613.664"/><path d="M 3135.385 594.946 3146.287 594.946 3146.287 580.901 3135.385 580.901 3135.385 594.946"/><path d="M 3380.338 624.585 3417.725 624.585 3417.725 612.091 3380.338 612.091 3380.338 624.585"/><use xlink:href="#T0dBhPi_M7lULa4Yf4fD_pad-24" x="3381.875" y="618.338"/><use xlink:href="#T0dBhPi_M7lULa4Yf4fD_pad-24" x="3416.189" y="618.338"/><path d="M 3378.729 604.294 3416.189 604.294 3416.189 591.822 3378.729 591.822 3378.729 604.294"/><use xlink:href="#T0dBhPi_M7lULa4Yf4fD_pad-21" x="3380.302" y="598.058"/><use xlink:href="#T0dBhPi_M7lULa4Yf4fD_pad-23" x="3414.652" y="598.058"/><path d="M 3380.338 584.025 3417.725 584.025 3417.725 571.531 3380.338 571.531 3380.338 584.025"/><use xlink:href="#T0dBhPi_M7lULa4Yf4fD_pad-24" x="3381.875" y="577.778"/><use xlink:href="#T0dBhPi_M7lULa4Yf4fD_pad-24" x="3416.189" y="577.778"/><use xlink:href="#T0dBhPi_M7lULa4Yf4fD_pad-21" x="3581.576" y="579.34"/><path d="M 3541.007 613.664 3553.444 613.664 3553.444 601.17 3541.007 601.17 3541.007 613.664"/><path d="M 3581.539 594.946 3592.514 594.946 3592.514 580.901 3581.539 580.901 3581.539 594.946"/><path d="M 3290.624 1288.362 3317.141 1288.362 3321.814 1257.164 3340.544 1249.36 3365.504 1269.65 3385.771 1249.36 3365.504 1224.405 3373.311 1207.237 3404.501 1202.554 3404.501 1174.478 3373.311 1171.357 3365.504 1152.645 3384.214 1127.673 3365.504 1108.961 3340.544 1127.673 3329.621 1123.008 3314.026 1160.449 3324.949 1169.796 3332.736 1180.721 3332.736 1193.208 3329.621 1204.115 3320.256 1211.919 3309.334 1216.601 3296.854 1216.601 3285.931 1210.358 3279.701 1200.994 3276.586 1188.525 3279.701 1176.039 3287.509 1165.114 3295.296 1160.449 3279.701 1123.008 3268.779 1127.673 3243.819 1108.961 3225.109 1127.673 3243.819 1154.206 3236.012 1171.357 3204.822 1174.478 3204.822 1202.554 3237.589 1205.676 3243.819 1224.405 3223.551 1249.36 3243.819 1268.089 3268.779 1249.36 3287.509 1255.603 3290.624 1288.362"/><path d="M 3657.672 1028.402 3567.672 1028.402 3567.672 836.402 3657.672 836.402 3657.672 1028.402 M 3917.98 836.402 4007.98 836.402 4007.98 1028.402 3917.98 1028.402 3917.98 836.402 M 3675.472 836.402 3765.472 836.402 3765.472 1028.402 3675.472 1028.402 3675.472 836.402 M 2673.42 1028.402 2583.42 1028.402 2583.42 836.402 2673.42 836.402 2673.42 1028.402 M 2944.541 836.402 3034.541 836.402 3034.541 1028.402 2944.541 1028.402 2944.541 836.402 M 2691.22 836.402 2781.22 836.402 2781.22 1028.402 2691.22 1028.402 2691.22 836.402 M 1799.021 1027.383 1709.021 1027.383 1709.021 835.383 1799.021 835.383 1799.021 1027.383 M 1952.381 836.402 2042.381 836.402 2042.381 1028.402 1952.381 1028.402 1952.381 836.402 M 1600.888 836.402 1690.888 836.402 1690.888 1028.402 1600.888 1028.402 1600.888 836.402 M 1062.701 1027.383 972.701 1027.383 972.701 835.383 1062.701 835.383 1062.701 1027.383 M 719.98 836.402 809.98 836.402 809.98 1028.402 719.98 1028.402 719.98 836.402 M 1081.9 836.419 1171.9 836.419 1171.9 1028.419 1081.9 1028.419 1081.9 836.419" fill="none" stroke-width="9.843"/><path d="M 3565.035 820.456 3567.92 821.915 3572.231 826.193 3572.231 796.082 M 3590.116 826.193 3585.805 824.767 3582.92 820.456 3581.494 813.293 3581.494 808.982 3582.92 801.819 3585.805 797.508 3590.116 796.082 3592.968 796.082 3597.279 797.508 3600.131 801.819 3601.59 808.982 3601.59 813.293 3600.131 820.456 3597.279 824.767 3592.968 826.193 3590.116 826.193 M 3600.131 820.456 3582.92 801.819 M 3619.476 826.193 3615.165 824.767 3612.28 820.456 3610.854 813.293 3610.854 808.982 3612.28 801.819 3615.165 797.508 3619.476 796.082 3622.328 796.082 3626.639 797.508 3629.491 801.819 3630.95 808.982 3630.95 813.293 3629.491 820.456 3626.639 824.767 3622.328 826.193 3619.476 826.193 M 3629.491 820.456 3612.28 801.819 M 3660.309 826.226 3660.309 796.082 3640.213 826.226 3640.213 796.082 M 3944.702 820.456 3947.588 821.915 3951.899 826.193 3951.899 796.082 M 3961.162 826.226 3961.162 796.082 M 3981.258 826.226 3961.162 806.13 M 3968.325 813.326 3981.258 796.082 M 3687.515 820.456 3690.4 821.915 3694.711 826.193 3694.711 796.082 M 3712.597 826.193 3708.286 824.767 3705.4 820.456 3703.974 813.293 3703.974 808.982 3705.4 801.819 3708.286 797.508 3712.597 796.082 3715.448 796.082 3719.759 797.508 3722.611 801.819 3724.07 808.982 3724.07 813.293 3722.611 820.456 3719.759 824.767 3715.448 826.193 3712.597 826.193 M 3722.611 820.456 3705.4 801.819 M 3733.334 826.226 3733.334 796.082 M 3753.43 826.226 3733.334 806.13 M 3740.497 813.326 3753.43 796.082 M 2580.783 820.456 2583.668 821.915 2587.979 826.193 2587.979 796.082 M 2605.864 826.193 2601.553 824.767 2598.668 820.456 2597.242 813.293 2597.242 808.982 2598.668 801.819 2601.553 797.508 2605.864 796.082 2608.716 796.082 2613.027 797.508 2615.879 801.819 2617.338 808.982 2617.338 813.293 2615.879 820.456 2613.027 824.767 2608.716 826.193 2605.864 826.193 M 2615.879 820.456 2598.668 801.819 M 2635.224 826.193 2630.913 824.767 2628.028 820.456 2626.602 813.293 2626.602 808.982 2628.028 801.819 2630.913 797.508 2635.224 796.082 2638.076 796.082 2642.387 797.508 2645.239 801.819 2646.698 808.982 2646.698 813.293 2645.239 820.456 2642.387 824.767 2638.076 826.193 2635.224 826.193 M 2645.239 820.456 2628.028 801.819 M 2676.057 826.226 2676.057 796.082 2655.961 826.226 2655.961 796.082 M 2971.263 820.456 2974.148 821.915 2978.459 826.193 2978.459 796.082 M 2987.723 826.226 2987.723 796.082 M 3007.819 826.226 2987.723 806.13 M 2994.885 813.326 3007.819 796.082 M 2703.263 820.456 2706.148 821.915 2710.459 826.193 2710.459 796.082 M 2728.345 826.193 2724.034 824.767 2721.148 820.456 2719.723 813.293 2719.723 808.982 2721.148 801.819 2724.034 797.508 2728.345 796.082 2731.196 796.082 2735.507 797.508 2738.359 801.819 2739.819 808.982 2739.819 813.293 2738.359 820.456 2735.507 824.767 2731.196 826.193 2728.345 826.193 M 2738.359 820.456 2721.148 801.819 M 2749.082 826.226 2749.082 796.082 M 2769.178 826.226 2749.082 806.13 M 2756.245 813.326 2769.178 796.082 M 1706.384 1065.547 1709.269 1067.006 1713.58 1071.284 1713.58 1041.173 M 1731.465 1071.284 1727.154 1069.858 1724.269 1065.547 1722.843 1058.384 1722.843 1054.073 1724.269 1046.91 1727.154 1042.599 1731.465 1041.173 1734.317 1041.173 1738.628 1042.599 1741.48 1046.91 1742.939 1054.073 1742.939 1058.384 1741.48 1065.547 1738.628 1069.858 1734.317 1071.284 1731.465 1071.284 M 1741.48 1065.547 1724.269 1046.91 M 1760.825 1071.284 1756.514 1069.858 1753.629 1065.547 1752.203 1058.384 1752.203 1054.073 1753.629 1046.91 1756.514 1042.599 1760.825 1041.173 1763.677 1041.173 1767.988 1042.599 1770.84 1046.91 1772.299 1054.073 1772.299 1058.384 1770.84 1065.547 1767.988 1069.858 1763.677 1071.284 1760.825 1071.284 M 1770.84 1065.547 1753.629 1046.91 M 1801.658 1071.317 1801.658 1041.173 1781.562 1071.317 1781.562 1041.173 M 1914.217 914.124 1912.758 917.009 1908.48 921.32 1938.591 921.32 M 1908.447 930.584 1938.591 930.583 M 1908.447 950.679 1928.543 930.583 M 1921.347 937.746 1938.591 950.679 M 1612.931 1066.565 1615.816 1068.024 1620.127 1072.302 1620.127 1042.191 M 1638.013 1072.302 1633.702 1070.876 1630.816 1066.565 1629.39 1059.402 1629.39 1055.091 1630.816 1047.928 1633.702 1043.617 1638.013 1042.191 1640.864 1042.191 1645.175 1043.617 1648.027 1047.928 1649.486 1055.091 1649.486 1059.402 1648.027 1066.565 1645.175 1070.876 1640.864 1072.302 1638.013 1072.302 M 1648.027 1066.565 1630.816 1047.928 M 1658.75 1072.335 1658.75 1042.191 M 1678.846 1072.335 1658.75 1052.239 M 1665.913 1059.436 1678.846 1042.191 M 970.063 819.438 972.948 820.897 977.26 825.175 977.26 795.064 M 995.145 825.175 990.834 823.749 987.949 819.438 986.523 812.275 986.523 807.964 987.949 800.801 990.834 796.49 995.145 795.064 997.997 795.064 1002.308 796.49 1005.16 800.801 1006.619 807.964 1006.619 812.275 1005.16 819.438 1002.308 823.749 997.997 825.175 995.145 825.175 M 1005.16 819.438 987.949 800.801 M 1024.505 825.175 1020.194 823.749 1017.309 819.438 1015.883 812.275 1015.883 807.964 1017.309 800.801 1020.194 796.49 1024.505 795.064 1027.357 795.064 1031.668 796.49 1034.519 800.801 1035.979 807.964 1035.979 812.275 1034.519 819.438 1031.668 823.749 1027.357 825.175 1024.505 825.175 M 1034.519 819.438 1017.309 800.801 M 1065.338 825.208 1065.338 795.064 1045.242 825.208 1045.242 795.064 M 746.702 820.456 749.588 821.915 753.899 826.193 753.899 796.082 M 763.162 826.226 763.162 796.082 M 783.258 826.226 763.162 806.13 M 770.325 813.326 783.258 796.082 M 1093.943 820.473 1096.828 821.932 1101.139 826.21 1101.139 796.099 M 1119.024 826.21 1114.713 824.784 1111.828 820.473 1110.402 813.31 1110.402 808.999 1111.828 801.836 1114.713 797.525 1119.024 796.099 1121.876 796.099 1126.187 797.525 1129.039 801.836 1130.498 808.999 1130.498 813.31 1129.039 820.473 1126.187 824.784 1121.876 826.21 1119.024 826.21 M 1129.039 820.473 1111.828 801.836 M 1139.762 826.243 1139.762 796.099 M 1159.858 826.243 1139.762 806.147 M 1146.925 813.344 1159.858 796.099" fill="none" stroke-width="4.632"/><path d="M 1496.139 747.927 1496.139 750.779 1498.991 756.549 1501.843 759.401 1507.613 762.253 1519.087 762.253 1524.791 759.401 1527.643 756.549 1530.561 750.779 1530.561 745.075 1527.643 739.305 1521.939 730.749 1493.221 702.031 1533.413 702.031 M 1502.986 1138.392 1536.148 1138.392 M 1519.534 1064.228 1519.534 1012.562 M 1493.734 1038.362 1545.4 1038.362 M 1520.513 908.283 1520.513 968.505 1491.795 928.379 1534.838 928.379 M 1498.991 868.507 1530.495 868.507 1513.317 845.559 1521.939 845.559 1527.643 842.707 1530.495 839.855 1533.413 831.233 1533.413 825.53 1530.495 816.907 1524.791 811.137 1516.169 808.285 1507.547 808.285 1498.991 811.137 1496.139 814.056 1493.221 819.759 M 1502.995 644.531 1508.765 647.449 1517.387 656.005 1517.387 595.783 M 1849.781 1144.802 1849.781 1147.654 1852.633 1153.424 1855.485 1156.276 1861.255 1159.128 1872.729 1159.128 1878.433 1156.276 1881.285 1153.424 1884.203 1147.654 1884.203 1141.95 1881.285 1136.18 1875.581 1127.624 1846.863 1098.906 1887.055 1098.906 M 2837.01 1159.128 2868.513 1159.128 2851.335 1136.18 2859.957 1136.18 2865.661 1133.328 2868.513 1130.476 2871.431 1121.854 2871.431 1116.15 2868.513 1107.528 2862.809 1101.758 2854.187 1098.906 2845.565 1098.906 2837.01 1101.758 2834.158 1104.676 2831.239 1110.38 M 3838.082 1098.906 3838.082 1159.128 3809.364 1119.002 3852.408 1119.002" fill="none" stroke-width="9.264"/><path d="M 2061.833 526.856 2061.833 1249.516 1717.216 768.008 2233.743 768.008" fill="none" stroke-width="111.163"/><path d="M 873.049 1147.654 878.819 1150.572 887.441 1159.128 887.441 1098.906" fill="none" stroke-width="9.264"/><path d="M 2383.37 1250.312 2383.37 526.856 M 2142.218 1250.312 2624.522 1250.312" fill="none" stroke-width="111.163"/><path d="M 2152.303 862.83 2179.098 862.83 M 2158.051 862.83 2154.204 859.027 2152.303 855.181 2152.303 849.477 2154.204 845.63 2158.051 841.827 2163.799 839.882 2167.601 839.882 2173.35 841.827 2177.152 845.63 2179.098 849.477 2179.098 855.18 2177.152 859.027 2173.35 862.83 M 2138.906 875.181 2179.098 875.181 M 2152.303 887.533 2192.495 887.533 M 2158.051 887.533 2154.248 891.379 2152.303 895.182 2152.303 900.93 2154.248 904.777 2158.051 908.579 2163.799 910.525 2167.646 910.525 2173.35 908.579 2177.196 904.777 2179.098 900.93 2179.098 895.182 2177.196 891.379 2173.35 887.533 M 2138.906 922.876 2179.098 922.876 M 2159.952 922.876 2154.204 928.624 2152.303 932.471 2152.303 938.219 2154.204 942.021 2159.952 943.923 2179.098 943.923 M 2152.303 979.222 2179.098 979.222 M 2158.051 979.222 2154.204 975.419 2152.303 971.573 2152.303 965.869 2154.204 962.022 2158.051 958.22 2163.799 956.274 2167.602 956.274 2173.35 958.22 2177.152 962.022 2179.098 965.869 2179.098 971.573 2177.152 975.419 2173.35 979.222 M 2175.251 993.475 2177.196 991.573 2179.098 993.475 2177.196 995.42 2175.251 993.475 M 2144.654 1030.719 2140.851 1028.818 2138.95 1023.07 2138.95 1019.268 2140.851 1013.52 2146.599 1009.673 2156.15 1007.772 2165.7 1007.772 2173.35 1009.673 2177.196 1013.52 2179.098 1019.268 2179.098 1021.169 2177.196 1026.873 2173.35 1030.719 2167.601 1032.621 2165.7 1032.621 2159.952 1030.719 2156.15 1026.873 2154.248 1021.169 2154.248 1019.268 2156.15 1013.52 2159.952 1009.673 2165.7 1007.772" fill="none" stroke-width="6.176"/><path d="M 2479.807 534.864 2486.462 521.4 2499.925 508.091 2513.234 501.282 2533.352 494.628 2566.934 494.628 2586.897 501.282 2600.361 508.091 2613.67 521.4 2620.479 534.864 2620.479 561.637 2613.67 574.945 2600.361 588.409 2586.897 595.064 2566.934 601.718 2533.352 601.718 2513.234 595.064 2499.925 588.409 2486.462 574.945 2479.807 561.637 2479.807 534.864 M 2479.807 685.184 2486.462 671.72 2499.925 658.412 2513.234 651.602 2533.352 644.948 2566.934 644.948 2586.897 651.602 2600.361 658.412 2613.67 671.72 2620.479 685.184 2620.479 711.957 2613.67 725.266 2600.361 738.729 2586.897 745.384 2566.934 752.038 2533.352 752.038 2513.234 745.384 2499.925 738.729 2486.462 725.266 2479.807 711.957 2479.807 685.184 M 2513.234 895.704 2499.925 889.049 2486.462 875.586 2479.807 862.277 2479.807 835.504 2486.462 822.041 2499.925 808.732 2513.234 801.922 2533.352 795.268 2566.934 795.268 2586.897 801.922 2600.361 808.732 2613.67 822.041 2620.479 835.504 2620.479 862.277 2613.67 875.586 2600.361 889.049 2586.897 895.704 2566.934 895.704 2566.934 862.277 M 2479.807 938.934 2620.479 938.934 2620.479 1019.251 M 2479.807 1149.453 2479.807 1062.481 2620.479 1062.481 2620.479 1149.453 M 2546.816 1062.481 2546.816 1116.026" fill="none" stroke-width="21.615"/><path d="M 2987.702 523.537 2989.603 521.635 2991.549 523.537 2989.603 525.482 2987.702 523.537 M 2989.603 510.139 2989.603 483.345 M 3003.9 510.139 3003.9 483.345 M 3003.9 502.49 3009.648 508.238 3013.495 510.139 3019.199 510.139 3023.046 508.238 3024.947 502.49 3024.947 483.345 M 3058.345 504.391 3056.444 508.238 3050.696 510.139 3044.948 510.139 3039.199 508.238 3037.298 504.391 3039.199 500.589 3043.046 498.643 3052.597 496.742 3056.444 494.841 3058.345 490.994 3058.345 489.093 3056.444 485.29 3050.696 483.345 3044.948 483.345 3039.199 485.29 3037.298 489.093 M 3076.444 523.537 3076.444 490.994 3078.346 485.29 3082.192 483.345 3085.995 483.345 M 3070.696 510.139 3084.094 510.139 M 3098.346 510.139 3098.346 483.345 M 3098.346 498.643 3100.292 504.391 3104.094 508.238 3107.941 510.139 3113.689 510.139 M 3126.04 510.139 3126.04 490.994 3127.942 485.29 3131.789 483.345 3137.537 483.345 3141.339 485.29 3147.087 490.994 M 3147.087 510.139 3147.087 483.345 M 3159.439 510.139 3159.439 483.345 M 3159.439 502.49 3165.187 508.238 3169.033 510.139 3174.737 510.139 3178.584 508.238 3180.485 502.49 3180.485 483.345 M 3180.485 502.49 3186.233 508.238 3190.08 510.139 3195.784 510.139 3199.631 508.238 3201.576 502.49 3201.576 483.345 M 3213.927 498.643 3236.875 498.643 3236.875 502.49 3234.974 506.337 3233.073 508.238 3229.226 510.139 3223.478 510.139 3219.675 508.238 3215.829 504.391 3213.927 498.643 3213.927 494.841 3215.829 489.093 3219.675 485.29 3223.478 483.345 3229.226 483.345 3233.073 485.29 3236.875 489.093 M 3249.227 510.139 3249.227 483.345 M 3249.227 502.49 3254.975 508.238 3258.821 510.139 3264.525 510.139 3268.372 508.238 3270.273 502.49 3270.273 483.345 M 3288.373 523.537 3288.373 490.994 3290.274 485.29 3294.121 483.345 3297.923 483.345 M 3282.625 510.139 3296.022 510.139 M 3331.321 504.391 3329.42 508.238 3323.672 510.139 3317.924 510.139 3312.176 508.238 3310.275 504.391 3312.176 500.589 3316.023 498.643 3325.573 496.742 3329.42 494.841 3331.321 490.994 3331.321 489.093 3329.42 485.29 3323.672 483.345 3317.924 483.345 3312.176 485.29 3310.275 489.093 M 3345.574 487.191 3343.673 485.246 3345.574 483.345 3347.52 485.246 3345.574 487.191 M 3382.819 510.139 3382.819 483.345 M 3382.819 504.391 3379.016 508.238 3375.17 510.139 3369.466 510.139 3365.619 508.238 3361.816 504.391 3359.871 498.643 3359.871 494.841 3361.816 489.093 3365.619 485.29 3369.466 483.345 3375.17 483.345 3379.016 485.29 3382.819 489.093 M 3395.17 510.139 3395.17 483.345 M 3395.17 498.643 3397.116 504.391 3400.918 508.238 3404.765 510.139 3410.513 510.139 M 3428.612 523.537 3428.612 490.994 3430.514 485.29 3434.361 483.345 3438.163 483.345 M 3422.864 510.139 3436.262 510.139 M 3450.514 523.537 3452.416 521.635 3454.361 523.537 3452.416 525.482 3450.514 523.537 M 3452.416 510.139 3452.416 483.345 M 3489.705 504.391 3485.858 508.238 3482.011 510.139 3476.307 510.139 3472.461 508.238 3468.658 504.391 3466.713 498.643 3466.713 494.841 3468.658 489.093 3472.461 485.29 3476.307 483.345 3482.011 483.345 3485.858 485.29 3489.705 489.093 M 3525.004 510.139 3525.004 483.345 M 3525.004 504.391 3521.202 508.238 3517.355 510.139 3511.651 510.139 3507.804 508.238 3504.002 504.391 3502.056 498.643 3502.056 494.841 3504.002 489.093 3507.804 485.29 3511.651 483.345 3517.355 483.345 3521.202 485.29 3525.004 489.093 M 3539.257 487.191 3537.355 485.246 3539.257 483.345 3541.202 485.246 3539.257 487.191 M 3576.546 504.391 3572.699 508.238 3568.852 510.139 3563.148 510.139 3559.302 508.238 3555.499 504.391 3553.554 498.643 3553.554 494.841 3555.499 489.093 3559.302 485.29 3563.148 483.345 3568.852 483.345 3572.699 485.29 3576.546 489.093 M 3611.889 504.391 3608.043 508.238 3604.196 510.139 3598.492 510.139 3594.645 508.238 3590.843 504.391 3588.897 498.643 3588.897 494.841 3590.843 489.093 3594.645 485.29 3598.492 483.345 3604.196 483.345 3608.043 485.29 3611.889 489.093" fill="none" stroke-width="6.176"/><path d="M 3169.956 1069.628 3168.53 1072.48 3165.645 1075.365 3162.793 1076.791 3157.056 1076.791 3154.171 1075.365 3151.319 1072.48 3149.86 1069.628 3148.434 1065.317 3148.434 1058.121 3149.86 1053.843 3151.319 1050.958 3154.171 1048.106 3157.056 1046.647 3162.793 1046.647 3165.645 1048.106 3168.53 1050.958 3169.956 1053.843 M 3200.741 1069.628 3199.316 1072.48 3196.43 1075.365 3193.579 1076.791 3187.842 1076.791 3184.956 1075.365 3182.105 1072.48 3180.645 1069.628 3179.22 1065.317 3179.22 1058.121 3180.645 1053.843 3182.105 1050.958 3184.956 1048.106 3187.842 1046.647 3193.579 1046.647 3196.43 1048.106 3199.316 1050.958 3200.741 1053.843 M 3239.166 1076.791 3239.166 1046.647 3252.099 1046.647 3256.41 1048.106 3257.836 1049.532 3259.262 1052.384 3259.262 1056.695 3257.836 1059.58 3256.41 1061.006 3252.099 1062.432 3256.41 1063.891 3257.836 1065.317 3259.262 1068.169 3259.262 1071.054 3257.836 1073.906 3256.41 1075.365 3252.099 1076.791 3239.166 1076.791 M 3239.166 1062.432 3252.099 1062.432 M 3268.525 1076.791 3279.999 1062.432 3279.999 1046.647 M 3291.473 1076.791 3279.999 1062.432 M 3300.737 1061.702 3317.317 1061.702 M 3346.677 1072.48 3343.825 1075.365 3339.514 1076.791 3333.777 1076.791 3329.466 1075.365 3326.581 1072.48 3326.581 1069.628 3328.04 1066.743 3329.466 1065.317 3332.318 1063.891 3340.94 1061.006 3343.825 1059.58 3345.251 1058.121 3346.677 1055.269 3346.677 1050.958 3343.825 1048.106 3339.514 1046.647 3333.777 1046.647 3329.466 1048.106 3326.581 1050.958 M 3378.922 1046.647 3367.415 1076.791 3355.941 1046.647 M 3360.252 1056.695 3374.611 1056.695 M 3431.705 1046.647 3431.705 1076.758 3417.346 1056.695 3438.868 1056.695 M 3449.557 1049.532 3448.131 1048.073 3449.557 1046.647 3451.016 1048.073 3449.557 1049.532 M 3468.902 1076.758 3464.591 1075.332 3461.706 1071.021 3460.28 1063.858 3460.28 1059.547 3461.706 1052.384 3464.591 1048.073 3468.902 1046.647 3471.754 1046.647 3476.065 1048.073 3478.917 1052.384 3480.376 1059.547 3480.376 1063.858 3478.917 1071.021 3476.065 1075.332 3471.754 1076.758 3468.902 1076.758 M 3478.917 1071.021 3461.706 1052.384" fill="none" stroke-width="4.632"/></g></svg>